<?xml version="1.0" encoding="UTF-8"?>
<svg id="Camada_1" data-name="Camada 1" xmlns="http://www.w3.org/2000/svg" viewBox="0 0 660.13 500">
  <defs>
    <style>
      .cls-1 {
        fill: #fff;
        stroke-width: 0px;
      }
    </style>
  </defs>
  <path class="cls-1" d="m418.98,90.38c-8.22-24.17-22.15-45.58-36.78-66.29-.62-.88-1.25-1.76-1.87-2.64.95,4.92,1.52,9.9,1.74,14.84.05,1.08.06,2.18.03,3.28.24,2.2.42,4.41.51,6.6.42,9.43-1.76,19.5-5.64,28.94-.75,2.14-1.56,4.27-2.48,6.36-2.99,8.3-7.34,16.23-12.51,22.96-3.01,4.69-6.4,8.99-10.06,12.64-.42.42-.86.81-1.29,1.22-5.05,5.97-11.27,11.01-18.2,14.7-9.63,6.42-21.13,10.28-32.48,11.78-5.13.68-10.2.86-15.22.65-3.26.44-6.52.69-9.75.69-7.44,0-14.57-1.11-21.37-3.12-4.8-.97-9.45-2.4-13.93-4.23-6.87-2.34-13.38-5.62-19.47-9.7-5.72-3.36-11.12-7.39-16.13-11.99-.61-.56-1.18-1.15-1.76-1.73-2.42-1.3-4.72-2.73-6.83-4.4-67.13,133.02-7.95,252.55,123.84,310.37-12.5-65.31,20.51-107.88,57.61-150.79,2.95-4.91,5.97-9.79,9-14.66,15.67-25.11,31.69-51,37.54-80.44,5.57-28.01,4.73-57.9-4.51-85.04Z"/>
  <path class="cls-1" d="m487.92,209.79c-7.85-32.89-25.34-64.07-43.99-90.64,14.19,147.12-135.33,230.38-124.52,359.41,96.29-83.28,195.81-117.66,168.51-268.77Z"/>
</svg>