<svg width="16" height="16" viewBox="0 0 16 16" fill="none" xmlns="http://www.w3.org/2000/svg">
<g clip-path="url(#clip0_309_82324)">
<rect width="16" height="16" fill="white" fill-opacity="0.01"/>
<g clip-path="url(#clip1_309_82324)">
<path d="M0.5 9.89894C0.632608 9.89894 0.759785 9.95162 0.853553 10.0454C0.947322 10.1392 1 10.2663 1 10.3989V12.8989C1 13.1642 1.10536 13.4185 1.29289 13.606C1.48043 13.7936 1.73478 13.8989 2 13.8989H14C14.2652 13.8989 14.5196 13.7936 14.7071 13.606C14.8946 13.4185 15 13.1642 15 12.8989V10.3989C15 10.2663 15.0527 10.1392 15.1464 10.0454C15.2402 9.95162 15.3674 9.89894 15.5 9.89894C15.6326 9.89894 15.7598 9.95162 15.8536 10.0454C15.9473 10.1392 16 10.2663 16 10.3989V12.8989C16 13.4294 15.7893 13.9381 15.4142 14.3132C15.0391 14.6882 14.5304 14.8989 14 14.8989H2C1.46957 14.8989 0.960859 14.6882 0.585786 14.3132C0.210714 13.9381 0 13.4294 0 12.8989V10.3989C0 10.2663 0.0526784 10.1392 0.146447 10.0454C0.240215 9.95162 0.367392 9.89894 0.5 9.89894Z" fill="#183C56"/>
<path d="M7.646 1.14494C7.69245 1.09838 7.74762 1.06143 7.80837 1.03623C7.86911 1.01102 7.93423 0.998047 8 0.998047C8.06577 0.998047 8.13089 1.01102 8.19163 1.03623C8.25238 1.06143 8.30755 1.09838 8.354 1.14494L11.354 4.14494C11.4479 4.23883 11.5006 4.36616 11.5006 4.49894C11.5006 4.63172 11.4479 4.75905 11.354 4.85294C11.2601 4.94683 11.1328 4.99957 11 4.99957C10.8672 4.99957 10.7399 4.94683 10.646 4.85294L8.5 2.70594V11.4989C8.5 11.6315 8.44732 11.7587 8.35355 11.8525C8.25979 11.9463 8.13261 11.9989 8 11.9989C7.86739 11.9989 7.74021 11.9463 7.64645 11.8525C7.55268 11.7587 7.5 11.6315 7.5 11.4989V2.70594L5.354 4.85294C5.30751 4.89943 5.25232 4.93631 5.19158 4.96146C5.13084 4.98662 5.06574 4.99957 5 4.99957C4.93426 4.99957 4.86916 4.98662 4.80842 4.96146C4.74768 4.93631 4.69249 4.89943 4.646 4.85294C4.59951 4.80645 4.56264 4.75126 4.53748 4.69052C4.51232 4.62978 4.49937 4.56468 4.49937 4.49894C4.49937 4.4332 4.51232 4.3681 4.53748 4.30736C4.56264 4.24662 4.59951 4.19143 4.646 4.14494L7.646 1.14494Z" fill="#183C56"/>
</g>
</g>
<defs>
<clipPath id="clip0_309_82324">
<rect width="16" height="16" fill="white"/>
</clipPath>
<clipPath id="clip1_309_82324">
<rect width="16" height="16" fill="white"/>
</clipPath>
</defs>
</svg>
