<svg width="32" height="32" viewBox="0 0 32 32" fill="none" xmlns="http://www.w3.org/2000/svg">
<path fill-rule="evenodd" clip-rule="evenodd" d="M22 30C26.4183 30 30 26.4183 30 22C30 17.5817 26.4183 14 22 14C17.5817 14 14 17.5817 14 22C14 26.4183 17.5817 30 22 30ZM32 22C32 27.5228 27.5228 32 22 32C16.4772 32 12 27.5228 12 22C12 16.4772 16.4772 12 22 12C27.5228 12 32 16.4772 32 22Z" fill="#183C56"/>
<path d="M18.875 23.8888C18.9704 25.0807 19.9114 26.0098 21.6026 26.1198V27H22.3529V26.1137C24.1013 25.9914 25.125 25.0562 25.125 23.6993C25.125 22.4645 24.343 21.8288 22.9442 21.4988L22.3529 21.3582V18.9621C23.1031 19.0477 23.58 19.4572 23.6944 20.0257H25.0106C24.9152 18.8765 23.9297 17.978 22.3529 17.8802V17H21.6026V17.8985C20.1085 18.0452 19.0912 18.9438 19.0912 20.2152C19.0912 21.3399 19.8478 22.055 21.1067 22.3484L21.6026 22.4707V25.0134C20.8333 24.8973 20.3246 24.4755 20.2102 23.8888H18.875ZM21.5963 21.1809C20.8587 21.0098 20.4582 20.6614 20.4582 20.1357C20.4582 19.5489 20.8905 19.1088 21.6026 18.9804V21.1809H21.5963ZM22.461 22.6724C23.3575 22.8802 23.7707 23.2164 23.7707 23.8093C23.7707 24.4878 23.2557 24.9523 22.3529 25.0379V22.6479L22.461 22.6724Z" fill="#183C56"/>
<path d="M2 0C0.895431 0 0 0.895431 0 2V18C0 19.1046 0.895431 20 2 20H10.1659C10.2814 19.3117 10.4555 18.6433 10.6828 18H6C6 15.7909 4.20914 14 2 14V6C4.20914 6 6 4.20914 6 2H26C26 4.20914 27.7909 6 30 6V13.0556C30.7602 13.736 31.4332 14.5119 32 15.3644V2C32 0.895431 31.1046 0 30 0H2Z" fill="#183C56"/>
<path d="M19.9966 10.1665C19.9989 10.1113 20 10.0558 20 10C20 7.79086 18.2091 6 16 6C13.7909 6 12 7.79086 12 10C12 11.369 12.6877 12.5774 13.7366 13.2985C15.4297 11.6901 17.5918 10.5707 19.9966 10.1665Z" fill="#183C56"/>
</svg>
