<svg width="32" height="32" viewBox="0 0 32 32" fill="none" xmlns="http://www.w3.org/2000/svg">
<path d="M11 19.022C11.1526 20.9291 12.6582 22.4156 15.3642 22.5917V24H16.5646V22.5819C19.3622 22.3863 21 20.89 21 18.7188C21 16.7433 19.7487 15.7262 17.5107 15.198L16.5646 14.9731V11.1394C17.765 11.2763 18.528 11.9315 18.7111 12.8411H20.8169C20.6643 11.0024 19.0875 9.56479 16.5646 9.40831V8H15.3642V9.43765C12.9735 9.67237 11.3459 11.11 11.3459 13.1443C11.3459 14.9438 12.5565 16.088 14.5707 16.5575L15.3642 16.7531V20.8215C14.1333 20.6357 13.3194 19.9609 13.1363 19.022H11ZM15.354 14.6895C14.174 14.4156 13.5331 13.8582 13.5331 13.0171C13.5331 12.0782 14.2248 11.3741 15.3642 11.1687V14.6895H15.354ZM16.7375 17.0758C18.1719 17.4083 18.8332 17.9462 18.8332 18.8949C18.8332 19.9804 18.0092 20.7237 16.5646 20.8606V17.0367L16.7375 17.0758Z" fill="#183C56"/>
<path d="M16 30C8.26801 30 2 23.732 2 16C2 8.26801 8.26801 2 16 2C23.732 2 30 8.26801 30 16C30 23.732 23.732 30 16 30ZM16 32C24.8366 32 32 24.8366 32 16C32 7.16344 24.8366 0 16 0C7.16344 0 0 7.16344 0 16C0 24.8366 7.16344 32 16 32Z" fill="#183C56"/>
<path d="M16 27C9.92487 27 5 22.0751 5 16C5 9.92487 9.92487 5 16 5C22.0751 5 27 9.92487 27 16C27 22.0751 22.0751 27 16 27ZM16 28C22.6274 28 28 22.6274 28 16C28 9.37258 22.6274 4 16 4C9.37258 4 4 9.37258 4 16C4 22.6274 9.37258 28 16 28Z" fill="#183C56"/>
</svg>
