<svg width="48" height="48" viewBox="0 0 48 48" fill="none" xmlns="http://www.w3.org/2000/svg">
<path d="M24 48C37.2548 48 48 37.2548 48 24C48 10.7452 37.2548 0 24 0C10.7452 0 0 10.7452 0 24C0 37.2548 10.7452 48 24 48Z" fill="#183C56"/>
<path fill-rule="evenodd" clip-rule="evenodd" d="M28.2857 16C28.2857 13.6331 26.3669 11.7143 24 11.7143C21.6331 11.7143 19.7143 13.6331 19.7143 16V16.8571H28.2857V16ZM30 16V16.8571H36V34C36 35.8935 34.465 37.4286 32.5714 37.4286H15.4286C13.535 37.4286 12 35.8935 12 34V16.8571H18V16C18 12.6863 20.6863 10 24 10C27.3137 10 30 12.6863 30 16ZM24.8571 23.7143C24.8571 23.2409 24.4734 22.8571 24 22.8571C23.5266 22.8571 23.1429 23.2409 23.1429 23.7143V26.2857H20.5714C20.098 26.2857 19.7143 26.6695 19.7143 27.1429C19.7143 27.6162 20.098 28 20.5714 28H23.1429V30.5714C23.1429 31.0448 23.5266 31.4286 24 31.4286C24.4734 31.4286 24.8571 31.0448 24.8571 30.5714V28H27.4286C27.902 28 28.2857 27.6162 28.2857 27.1429C28.2857 26.6695 27.902 26.2857 27.4286 26.2857H24.8571V23.7143Z" fill="white"/>
</svg>
