<svg width="48" height="48" viewBox="0 0 48 48" fill="none" xmlns="http://www.w3.org/2000/svg">
<path d="M24 48C37.2548 48 48 37.2548 48 24C48 10.7452 37.2548 0 24 0C10.7452 0 0 10.7452 0 24C0 37.2548 10.7452 48 24 48Z" fill="#183C56"/>
<path fill-rule="evenodd" clip-rule="evenodd" d="M32.4375 39C36.0619 39 39 36.0619 39 32.4375C39 28.8131 36.0619 25.875 32.4375 25.875C28.8131 25.875 25.875 28.8131 25.875 32.4375C25.875 36.0619 28.8131 39 32.4375 39ZM33.375 29.625C33.375 29.1072 32.9553 28.6875 32.4375 28.6875C31.9197 28.6875 31.5 29.1072 31.5 29.625V31.5H29.625C29.1072 31.5 28.6875 31.9197 28.6875 32.4375C28.6875 32.9553 29.1072 33.375 29.625 33.375H31.5V35.25C31.5 35.7678 31.9197 36.1875 32.4375 36.1875C32.9553 36.1875 33.375 35.7678 33.375 35.25V33.375H35.25C35.7678 33.375 36.1875 32.9553 36.1875 32.4375C36.1875 31.9197 35.7678 31.5 35.25 31.5H33.375V29.625Z" fill="white"/>
<path d="M29.625 18.375C29.625 21.4816 27.1066 24 24 24C20.8934 24 18.375 21.4816 18.375 18.375C18.375 15.2684 20.8934 12.75 24 12.75C27.1066 12.75 29.625 15.2684 29.625 18.375Z" fill="white"/>
<path d="M12.75 33.375C12.75 35.25 14.625 35.25 14.625 35.25H24.4801C24.1692 34.3703 24 33.4237 24 32.4375C24 29.8994 25.1207 27.623 26.8942 26.0763C26.0195 25.9466 25.0575 25.875 24 25.875C14.625 25.875 12.75 31.5 12.75 33.375Z" fill="white"/>
</svg>
