<svg width="82" height="70" viewBox="0 0 82 70" fill="none" xmlns="http://www.w3.org/2000/svg">
<path d="M34.85 14C28.0569 14 22.55 20.268 22.55 28C22.55 35.7319 28.0569 41.9999 34.85 41.9999C41.6431 41.9999 47.15 35.7319 47.15 28C47.15 20.268 41.6431 14 34.85 14ZM28.7 28C28.7 24.134 31.4534 21 34.85 21C38.2465 21 41 24.134 41 28C41 31.8659 38.2465 34.9999 34.85 34.9999C31.4534 34.9999 28.7 31.8659 28.7 28ZM0 10.5C0 4.701 4.13017 0 9.22499 0H60.4749C65.5698 0 69.6999 4.701 69.6999 10.5V45.4999C69.6999 51.2989 65.5698 55.9999 60.4749 55.9999H9.22499C4.13017 55.9999 0 51.2989 0 45.4999V10.5ZM9.22499 6.99999C7.52672 6.99999 6.14999 8.56699 6.14999 10.5V14H9.22499C10.9233 14 12.3 12.433 12.3 10.5V6.99999H9.22499ZM6.14999 34.9999H9.22499C14.3198 34.9999 18.45 39.701 18.45 45.4999V48.9999H51.2499V45.4999C51.2499 39.701 55.3801 34.9999 60.4749 34.9999H63.5499V21H60.4749C55.3801 21 51.2499 16.299 51.2499 10.5V6.99999H18.45V10.5C18.45 16.299 14.3198 21 9.22499 21H6.14999V34.9999ZM63.5499 14V10.5C63.5499 8.56699 62.1732 6.99999 60.4749 6.99999H57.3999V10.5C57.3999 12.433 58.7767 14 60.4749 14H63.5499ZM63.5499 41.9999H60.4749C58.7767 41.9999 57.3999 43.5669 57.3999 45.4999V48.9999H60.4749C62.1732 48.9999 63.5499 47.4329 63.5499 45.4999V41.9999ZM6.14999 45.4999C6.14999 47.4329 7.52672 48.9999 9.22499 48.9999H12.3V45.4999C12.3 43.5669 10.9233 41.9999 9.22499 41.9999H6.14999V45.4999ZM9.8456 63C11.9723 67.1846 15.9473 70 20.5001 70H62.525C73.2808 70 82 60.0757 82 47.8334V23.3334C82 18.1514 79.5265 13.627 75.85 11.2064V47.8334C75.85 56.2097 69.8842 63 62.525 63H9.8456Z" fill="#183C56"/>
</svg>
