<svg width="17" height="16" viewBox="0 0 17 16" fill="none" xmlns="http://www.w3.org/2000/svg">
<g clip-path="url(#clip0_635_93930)">
<path d="M4.12868 15.0312H3.13104C2.9326 15.0312 2.74228 14.9572 2.60196 14.8253C2.46164 14.6934 2.38281 14.5146 2.38281 14.3281V10.1094C2.38281 9.92289 2.46164 9.74405 2.60196 9.61219C2.74228 9.48033 2.9326 9.40625 3.13104 9.40625H4.12868C4.32713 9.40625 4.51744 9.48033 4.65776 9.61219C4.79808 9.74405 4.87692 9.92289 4.87692 10.1094V14.3281C4.87692 14.5146 4.79808 14.6934 4.65776 14.8253C4.51744 14.9572 4.32713 15.0312 4.12868 15.0312V15.0312Z" fill="#183C56"/>
<path d="M11.1131 15.0312H10.1154C9.91698 15.0312 9.72666 14.9572 9.58634 14.8253C9.44602 14.6934 9.36719 14.5146 9.36719 14.3281V7.29687C9.36719 7.11039 9.44602 6.93155 9.58634 6.79969C9.72666 6.66783 9.91698 6.59375 10.1154 6.59375H11.1131C11.3115 6.59375 11.5018 6.66783 11.6421 6.79969C11.7825 6.93155 11.8613 7.11039 11.8613 7.29687V14.3281C11.8613 14.5146 11.7825 14.6934 11.6421 14.8253C11.5018 14.9572 11.3115 15.0312 11.1131 15.0312V15.0312Z" fill="#183C56"/>
<path d="M14.6052 15.0312H13.6076C13.4092 15.0312 13.2188 14.9572 13.0785 14.8253C12.9382 14.6934 12.8594 14.5146 12.8594 14.3281V4.01562C12.8594 3.82914 12.9382 3.6503 13.0785 3.51844C13.2188 3.38658 13.4092 3.3125 13.6076 3.3125H14.6052C14.8037 3.3125 14.994 3.38658 15.1343 3.51844C15.2746 3.6503 15.3535 3.82914 15.3535 4.01562V14.3281C15.3535 14.5146 15.2746 14.6934 15.1343 14.8253C14.994 14.9572 14.8037 15.0312 14.6052 15.0312V15.0312Z" fill="#183C56"/>
<path d="M7.62087 15.0312H6.62323C6.42479 15.0312 6.23447 14.9572 6.09415 14.8253C5.95383 14.6934 5.875 14.5146 5.875 14.3281V1.67187C5.875 1.48539 5.95383 1.30655 6.09415 1.17469C6.23447 1.04283 6.42479 0.96875 6.62323 0.96875H7.62087C7.81932 0.96875 8.00963 1.04283 8.14995 1.17469C8.29027 1.30655 8.3691 1.48539 8.3691 1.67187V14.3281C8.3691 14.5146 8.29027 14.6934 8.14995 14.8253C8.00963 14.9572 7.81932 15.0312 7.62087 15.0312V15.0312Z" fill="#183C56"/>
</g>
<defs>
<clipPath id="clip0_635_93930">
<rect width="15.9623" height="15" fill="white" transform="translate(0.886719 0.5)"/>
</clipPath>
</defs>
</svg>
