<svg width="24" height="24" viewBox="0 0 24 24" fill="none" xmlns="http://www.w3.org/2000/svg">
<g clip-path="url(#clip0_535_42916)">
<path d="M23.9991 12.0733C23.9991 5.40429 18.6261 -0.00170898 11.9991 -0.00170898C5.36909 -0.000208984 -0.00390625 5.40429 -0.00390625 12.0748C-0.00390625 18.1003 4.38509 23.0953 10.1211 24.0013V15.5638H7.07609V12.0748H10.1241V9.41229C10.1241 6.38679 11.9166 4.71579 14.6571 4.71579C15.9711 4.71579 17.3436 4.95129 17.3436 4.95129V7.92129H15.8301C14.3406 7.92129 13.8756 8.85279 13.8756 9.80829V12.0733H17.2026L16.6716 15.5623H13.8741V23.9998C19.6101 23.0938 23.9991 18.0988 23.9991 12.0733Z" fill="#183C56"/>
</g>
<defs>
<clipPath id="clip0_535_42916">
<rect width="24" height="24" fill="white" transform="translate(0 -0.000244141)"/>
</clipPath>
</defs>
</svg>
