<svg width="82" height="77" viewBox="0 0 82 77" fill="none" xmlns="http://www.w3.org/2000/svg">
<path d="M0 73H22.448C27.9709 73 32.448 68.5228 32.448 63V38.3623C32.448 32.8395 36.9252 28.3623 42.448 28.3623H57.5952" stroke="#183C56" stroke-width="7"/>
<path d="M66.3815 52.4068V4.5076C66.3815 3.79202 65.6605 3.31829 65.0188 3.63494C62.3655 4.94424 56.5826 8.17436 54.4903 12.3472C52.1823 16.95 52.7818 27.8666 52.7929 28.0648C52.7932 28.071 52.793 28.0706 52.793 28.0768L52.793 34.5276C52.793 42.8175 58.1798 50.1457 66.0919 52.6196C66.2356 52.6645 66.3815 52.5572 66.3815 52.4068Z" fill="#183C56" stroke="#183C56" stroke-width="7"/>
<ellipse cx="78.5827" cy="17.2025" rx="3.41667" ry="4.05797" fill="#183C56"/>
<ellipse cx="78.5827" cy="38.5072" rx="3.41667" ry="4.05797" fill="#183C56"/>
<rect x="65.4043" y="13.1445" width="13.6667" height="8.11594" fill="#183C56"/>
<rect x="65.4043" y="34.4492" width="13.6667" height="8.11594" fill="#183C56"/>
</svg>
