<svg width="324" height="324" viewBox="0 0 324 324" fill="none" xmlns="http://www.w3.org/2000/svg">
<g clip-path="url(#clip0_971_96618)">
<path d="M314 0H10C4.47715 0 0 4.47715 0 9.99999V314C0 319.523 4.47715 324 9.99999 324H314C319.523 324 324 319.523 324 314V10C324 4.47715 319.523 0 314 0Z" fill="#CECECE"/>
<path d="M246.066 209.833V226.472C246.067 230.087 245.359 233.668 243.983 237.009C242.606 240.35 240.588 243.385 238.044 245.942C235.5 248.499 232.479 250.527 229.155 251.91C225.83 253.294 222.267 254.005 218.669 254.005H109.658C106.06 254.005 102.497 253.294 99.1726 251.91C95.8482 250.527 92.8275 248.499 90.2833 245.942C87.7391 243.385 85.7211 240.35 84.3448 237.009C82.9684 233.668 82.2606 230.087 82.2617 226.472V209.833C82.2617 183.968 96.4339 162.358 115.355 157.135C117.335 156.589 119.422 156.562 121.415 157.058C123.408 157.554 125.242 158.556 126.739 159.968C136.882 169.53 150.267 174.853 164.175 174.853C178.082 174.853 191.468 169.53 201.61 159.968C203.11 158.559 204.943 157.559 206.936 157.063C208.928 156.567 211.014 156.592 212.994 157.135C231.894 162.358 246.066 183.968 246.066 209.833ZM164.164 75.0469C139.575 75.0469 119.642 95.0769 119.642 119.786C119.642 144.496 139.575 164.526 164.164 164.526C188.753 164.526 208.685 144.496 208.685 119.786C208.685 95.0769 188.755 75.0469 164.164 75.0469Z" fill="white"/>
</g>
<defs>
<clipPath id="clip0_971_96618">
<rect width="324" height="324" fill="white"/>
</clipPath>
</defs>
</svg>
