<svg width="48" height="48" viewBox="0 0 48 48" fill="none" xmlns="http://www.w3.org/2000/svg">
<path d="M24 48C37.2548 48 48 37.2548 48 24C48 10.7452 37.2548 0 24 0C10.7452 0 0 10.7452 0 24C0 37.2548 10.7452 48 24 48Z" fill="#183C56"/>
<g clip-path="url(#clip0_644_28944)">
<path d="M20.766 26.1513H14.357C13.8516 26.1513 13.4414 25.7305 13.4414 25.2119V13.9394C13.4414 13.4208 13.8516 13 14.357 13H30.8373C31.3427 13 31.7529 13.4208 31.7529 13.9394V18.6363H29.9217V14.8788H15.2726V24.2726H20.766V26.1513Z" fill="white"/>
<path d="M29.0067 28.0301C26.3048 28.0301 24.0598 27.4298 22.5977 26.4219C22.5977 27.1227 22.5977 27.5848 22.5977 28.0301C22.5977 29.5866 25.4671 30.8482 29.0067 30.8482C32.5463 30.8482 35.4157 29.5866 35.4157 28.0301C35.4157 27.5848 35.4157 27.1227 35.4157 26.4219C33.9535 27.4298 31.7085 28.0301 29.0067 28.0301Z" fill="white"/>
<path d="M29.0067 32.7274C26.3048 32.7274 24.0598 32.1271 22.5977 31.1191C22.5977 31.8199 22.5977 32.2821 22.5977 32.7274C22.5977 34.2839 25.4671 35.5455 29.0067 35.5455C32.5463 35.5455 35.4157 34.2839 35.4157 32.7274C35.4157 32.2821 35.4157 31.8199 35.4157 31.1191C33.9535 32.1271 31.7085 32.7274 29.0067 32.7274Z" fill="white"/>
<path d="M21.5979 21.1467C22.226 20.3942 23.1855 19.7799 24.405 19.3468C24.2942 18.4206 23.5307 17.6973 22.5968 17.6973C21.5869 17.6973 20.7656 18.5399 20.7656 19.576C20.7656 20.2336 21.098 20.8113 21.5979 21.1467Z" fill="white"/>
<path d="M29.0067 26.1509C32.5463 26.1509 35.4157 24.8892 35.4157 23.3328C35.4157 21.7764 32.5463 20.5146 29.0067 20.5146C25.4671 20.5146 22.5977 21.7764 22.5977 23.3328C22.5977 24.8892 25.4671 26.1509 29.0067 26.1509Z" fill="white"/>
</g>
<defs>
<clipPath id="clip0_644_28944">
<rect width="21.9737" height="22.5451" fill="white" transform="translate(13.4414 13)"/>
</clipPath>
</defs>
</svg>
