<svg width="33" height="30" viewBox="0 0 33 30" fill="none" xmlns="http://www.w3.org/2000/svg">
<rect x="0.792969" width="31.9245" height="30" rx="8" fill="#183C56"/>
<g clip-path="url(#clip0_635_93973)">
<path d="M16.9279 10.4674C16.8815 10.4256 16.8198 10.4023 16.7555 10.4023C16.6913 10.4023 16.6295 10.4256 16.5831 10.4674L10.8436 15.6198C10.8192 15.6417 10.7998 15.668 10.7866 15.6972C10.7733 15.7263 10.7665 15.7577 10.7666 15.7894L10.7656 20.6252C10.7656 20.8738 10.8707 21.1123 11.0578 21.2881C11.2449 21.4639 11.4987 21.5627 11.7633 21.5627H14.7593C14.8916 21.5627 15.0185 21.5133 15.112 21.4254C15.2056 21.3375 15.2581 21.2182 15.2581 21.0939V17.1095C15.2581 17.0474 15.2844 16.9878 15.3312 16.9438C15.378 16.8999 15.4414 16.8752 15.5075 16.8752H18.0016C18.0678 16.8752 18.1312 16.8999 18.178 16.9438C18.2248 16.9878 18.2511 17.0474 18.2511 17.1095V21.0939C18.2511 21.2182 18.3036 21.3375 18.3972 21.4254C18.4907 21.5133 18.6176 21.5627 18.7499 21.5627H21.7447C22.0093 21.5627 22.263 21.4639 22.4501 21.2881C22.6372 21.1123 22.7423 20.8738 22.7423 20.6252V15.7894C22.7423 15.7577 22.7355 15.7263 22.7223 15.6972C22.7091 15.668 22.6897 15.6417 22.6653 15.6198L16.9279 10.4674Z" fill="white"/>
<path d="M24.0794 14.6538L21.7474 12.5573V9.37598C21.7474 9.25166 21.6948 9.13243 21.6013 9.04452C21.5077 8.95661 21.3809 8.90723 21.2486 8.90723H19.7521C19.6198 8.90723 19.4929 8.95661 19.3994 9.04452C19.3058 9.13243 19.2533 9.25166 19.2533 9.37598V10.3135L17.4476 8.69102C17.2786 8.53047 17.0273 8.43848 16.7558 8.43848C16.4851 8.43848 16.2345 8.53047 16.0655 8.69131L9.43432 14.6532C9.2404 14.829 9.21608 15.1182 9.39254 15.3086C9.43685 15.3567 9.49111 15.3958 9.55201 15.4235C9.61291 15.4512 9.67918 15.467 9.74678 15.4699C9.81438 15.4728 9.88191 15.4628 9.94525 15.4404C10.0086 15.418 10.0664 15.3837 10.1152 15.3396L16.5843 9.53066C16.6307 9.48894 16.6925 9.46565 16.7567 9.46565C16.8209 9.46565 16.8827 9.48894 16.9291 9.53066L23.3988 15.3396C23.4941 15.4255 23.6218 15.4724 23.7538 15.47C23.8858 15.4676 24.0114 15.4161 24.1031 15.3268C24.2945 15.1404 24.2786 14.8328 24.0794 14.6538Z" fill="white"/>
</g>
<defs>
<clipPath id="clip0_635_93973">
<rect width="15.9623" height="15" fill="white" transform="translate(8.77344 7.5)"/>
</clipPath>
</defs>
</svg>
