<svg id="eIeHQSUJakx1" xmlns="http://www.w3.org/2000/svg" xmlns:xlink="http://www.w3.org/1999/xlink" viewBox="0 0 538.24 264.94" shape-rendering="geometricPrecision" text-rendering="geometricPrecision"><defs><linearGradient id="eIeHQSUJakx2-fill" x1="189.56" y1="124.78" x2="189.56" y2="236.15" spreadMethod="pad" gradientUnits="userSpaceOnUse" gradientTransform="translate(0 0)"><stop id="eIeHQSUJakx2-fill-0" offset="39%" stop-color="#cab336"/><stop id="eIeHQSUJakx2-fill-1" offset="91%" stop-color="#95ab4a"/></linearGradient><linearGradient id="eIeHQSUJakx34-fill" x1="634.04" y1="112.76" x2="634.04" y2="232.21" spreadMethod="pad" gradientUnits="userSpaceOnUse" gradientTransform="translate(0 0)"><stop id="eIeHQSUJakx34-fill-0" offset="0%" stop-color="#c9b336"/><stop id="eIeHQSUJakx34-fill-1" offset="100%" stop-color="#97ab49"/></linearGradient><linearGradient id="eIeHQSUJakx40-fill" x1="571.3" y1="209.41" x2="571.3" y2="258.37" spreadMethod="pad" gradientUnits="userSpaceOnUse" gradientTransform="translate(0 0)"><stop id="eIeHQSUJakx40-fill-0" offset="0%" stop-color="#cab336"/><stop id="eIeHQSUJakx40-fill-1" offset="100%" stop-color="#95ab4a"/></linearGradient></defs><path id="eIeHQSUJakx2" d="M205.14,124.81c9.15-.49,22.88,5.25,22.88,5.25l10.51,30.39v72c0,0-14-1.27-22.89,0-5.21.74-7.9,2.43-13.13,3-4.81.52-7.69,1.18-12.38,0-6.07-1.53-9.63-3.72-13.51-8.63s-2.33-9.31-5.25-14.63c-3.35-6.13-6.17-9.11-11.26-13.89-6.39-6-16.36-3.93-18.76-12.38-1.01993-3.04349-1.01993-6.33651,0-9.38c1.74-5.75,6.47-6.8,10.88-10.88c6.28-5.79,11.17-7.54,16.89-13.88s5.53-12.58,12-18c7.68-6.41,14.02-8.44,24.02-8.97Z" transform="matrix(1.012703 0 0 0.998389-140.579999-55.769997)" fill="url(#eIeHQSUJakx2-fill)"/><polygon points="303.02,135.89 236.78,135.89 290.21,44.91 356.45,44.91 303.02,135.89" fill="#c9e8e2" stroke="#effdfd" stroke-width="4" stroke-miterlimit="10"/><polygon points="369,135.89 302.77,135.89 356.2,44.91 422.43,44.91 369,135.89" fill="#c9e8e2" stroke="#effdfd" stroke-width="4" stroke-miterlimit="10"/><polygon points="436.45,135.89 370.21,135.89 423.64,44.91 489.88,44.91 436.45,135.89" fill="#c9e8e2" stroke="#effdfd" stroke-width="4" stroke-miterlimit="10"/><polyline points="464.31,88.45 398.07,88.45 394.18,88.45 330.63,88.45 328.2,88.45 264.64,88.45" fill="none" stroke="#effdfd" stroke-width="4" stroke-miterlimit="10"/><g id="eIeHQSUJakx7"><polygon points="394.19,137.06 385.73,137.05 463.31,43.74 471.77,43.75 394.19,137.06" fill="#eaf7f5"/><polygon points="362.24,137.05 358.01,137.49 435.59,44.18 439.82,43.75 362.24,137.05" fill="#eaf7f5"/><polygon points="334.78,137.05 319.24,137.49 396.82,44.18 412.36,43.75 334.78,137.05" fill="#eaf7f5"/><polygon points="281.39,137.44 278.31,137.49 355.89,44.18 358.97,44.14 281.39,137.44" fill="#eaf7f5"/><polygon points="258.76,137.5 250.31,137.49 327.89,44.18 336.35,44.19 258.76,137.5" fill="#eaf7f5"/></g><circle r="17.86" transform="translate(282.54 91.22)" fill="#7bb5af" stroke="#9dc0c0" stroke-width="4" stroke-linejoin="round"/><path d="M445.23,93.5l195.5.24c-.323135.654349-.690659,1.285824-1.1,1.89q-4.2,7.35-8.38,14.72-5.13,9-10.28,18.05c-2.11,3.7-4.26,7.38-6.37,11.08q-4.51,7.91-9,15.84c-2.21,3.9-4.4,7.8-6.61,11.69-3.06,5.37-6.15,10.72-9.2,16.09-2.21,3.89-4.36,7.81-6.57,11.7-.79,1.38-1.68,2.7-2.59,4.16-1.31,0-2.58,0-3.85,0h-105.58c-1,0-1.92,0-2.87,0-.672474.066514-1.340344.173373-2,.32-.219737,1.925621-.253225,3.867948-.1,5.8c0,7.86-.06,15.41-.09,23c0,3.09-.06,6.17-.31,9.23-2.538415-1.213063-5.002733-2.575449-7.38-4.08c0-11.8,0-23.3,0-34.8.177002-.954015.156582-1.934185-.06-2.88-.095997-.372748-.230034-.734648-.4-1.08L419.51,194q-.18,6.9-.15,14q0,2,0,4l-7.3-4.36-.26-23.32-2.68-.1-.41-3.45-36,.06c-.19,1.42-.38,2.84-.58,4.26l-6.83-3.42-6.22-3.13q.17-9.14.32-18.26h23.27l41.6-71.87c2.2,3.56,5.45,8.89,9.3,15.42c6.28,10.64,10.33,18.15,15.92,28s11.13,19.58,16.69,29.54c.026141.256001.026141.513999,0,.77c0,2.21,0,4.14,0,6.37c0,2.46.06,4.63.07,7.07c0,1.79,0,3.29-.05,5.09c0,2.25,0,4.21,0,6.46c0,2-.31,3.66.24,5.51c1.26,0,2.41.09,3.56.09h45.46c1.7,0,3.41-.07,5.41,0c21.27.39,54.43.25,57.85-.23c9.76-17.39,20-34.73,29.62-52.41c0,0,0,0,.1-.09s.28-.3.41-.64C614,130.44,619,121.72,624,113c.56-1,3-5.47,6.45-11.43l1.06-1.86h-4.4c-20.95-.21-36.58,0-41,0h-132.28c-1.06,0-2.14,0-3.19,0-.48,0-.92.42-1.53.51-.24-.4-.46-.79-.67-1.16-.48-.88-.81-1.54-.89-1.71-.697434-1.327567-1.472096-2.613106-2.32-3.85Zm-32.62,69.93c3.69,2.92,3.57,2.87,3.92,3.09c2.130061,1.266005,4.46531,2.149338,6.9,2.61c5.201312,1.035425,10.596097-.233937,14.79-3.48c4.15908-2.924308,6.963762-7.401705,7.78-12.42.453867-2.551015.409722-5.16576-.13-7.7-.810896-3.512764-2.579727-6.731968-5.11-9.3l-1.39-.08c-.993448-1.259653-2.097872-2.427666-3.3-3.49-1.884732-1.740309-4.061333-3.134958-6.43-4.12-1.976384-.794352-4.072271-1.250715-6.2-1.35-4.348374-.125225-8.611754,1.220735-12.1,3.82-3.417302,2.455677-5.837844,6.058097-6.82,10.15-1.115689,4.50153-.811803,9.237955.87,13.56.910056,2.393185,2.353218,4.547669,4.22,6.3.24.25.25.23,3,2.41Z" transform="translate(-140.58-55.77)" fill="#55979e"/><path d="M382.74,160.32h-23.27c-.89.48-1.64.86-2.18,1.13-40.63,20.09-99.45,0-115.81,0-.95,0-1.91.08-3.16.08-4.85-.05-9.39-.08-13.94-.07-3.17,0-6.34.08-9.67.09-.26,0-.36,0-.7,0-1,0-1.78,0-2.79,0-.91-.18-1.44-.42-1.1-1.25s.82-1.86,1.37-2.93c1.487054-1.806852,2.650829-3.85699,3.44-6.06c4.16-7.16,8.14-14.18,12.11-21.19l4.94-8.58q3.5-6.1,7-12.2c1.95-3.42,3.89-6.86,5.83-10.28c2.57-4.54,5.16-9.07,7.72-13.62c2.09-3.71,4.22-7.4,6.21-11.17.504617-1.340543,1.857194-2.165286,3.28-2c.85.07,1.71,0,2.56,0v0c0,0,67.71-1,115.92.16c3.92.09,13,.32,25.43.33c5.41,0,9.83,0,12.66,0c.33-.11.39-.27.39-.49.064286.003544.126445.024264.18.06c3.8,0,7.6,0,11.41,0c.81,0,1.7-.22,2.32.86q-3.62,6.52-7.29,13-21.21,37.81-42.86,74.13ZM239.29,148c.285766,1.652954,1.841755,2.773267,3.5,2.52.32,0,.64,0,1,0h126.21c.94,0,1.88-.09,2.71-.13.266421-.2726.513678-.563293.74-.87q17.07-30.06,34.13-60.12c.42-.74.79-1.51,1.18-2.27.049026-.095804.073102-.202425.07-.31-.011863-.175988-.042026-.350262-.09-.52-.59-.72-.95-2-2.86-2.16-1.05-.09-2.11-.26-3.16-.26h-124.62c-1.05,0-2.11.07-3.29.11-1.35,2.37-2.67,4.67-4,7-2.22,3.88-4.46,7.76-6.66,11.65s-4.47,8-6.73,12c-3,5.28-6.05,10.53-9.07,15.8-2.28,4-4.59,7.93-6.8,11.93-.91,1.63-2.15,3.12-2.26,5.63Z" transform="translate(-140.58-55.77)" fill="#fec9c5"/><path d="M359.15,178.58q.06,39.85.11,79.72c-1.27,0-2.54.07-3.82.07h-112.16c-1.37,0-2.74,0-3.91,0-1-1-.75-2-.76-2.91c0-6.37,0-12.74,0-19.11c0-1.27,0-2.54,0-4.4c0-5.18-.06-9.77-.05-14.66c0-7.74,0-15.18,0-22.93c0-5.83,0-11.37,0-17.2.07-4.14-.31-7.93,0-11.76h1.65ZM248.26,180.9l.07,41l103.19-.41-.47-40.65Z" transform="translate(-140.58-55.77)" fill="#f38787"/><path d="M359.26,258.3q0-39.86-.11-79.72L373,185.32v35.73l2.24.56.09,3.61l37-.13q0-8.64-.05-17.29l7.11,4v46.52h-28.63q-15.76.04-31.5-.02Z" transform="translate(-140.58-55.77)" fill="#78c8c2"/><path d="M424.34,88.45l8.53-15.25q6.44,10.32,12.85,20.65c.82,1.4,1.44,2.69,2.08,4c.46.91.94,1.82,1.71,3.06c1.25,1.89,2.21,3.45,3.25,5.2s1.87,3,2.82,4.64c2.41,4.09,4.77,8,7.18,12c1.28,2.21,2.52,4.2,3.8,6.4.51.92,1,1.62,1.47,2.54.85,1.55,1.66,2.9,2.48,4.24c1.68,2.76,3.37,5.51,5.12,8.48c1.08,1.8,2.09,3.4,3.15,5.21c2,3.51,4,6.79,5.9,10.08.285534.601399.52619,1.223095.72,1.86h-18.82l-16.75-29.33c-5.73-10-9.71-17.27-16-27.93-4-6.8-7.34-12.3-9.49-15.85Z" transform="translate(-140.58-55.77)" fill="#2b5659"/><path d="M466,204.24c-.165933-1.820846-.142474-3.653996.07-5.47.659875-.145477,1.327677-.252326,2-.32.95,0,1.92,0,2.88,0h105.69c1.27,0,2.55,0,3.87-.06.91-1.45,1.8-2.76,2.58-4.13c2.22-3.86,4.37-7.75,6.59-11.61c3.05-5.34,6.14-10.65,9.21-16c2.21-3.86,4.4-7.74,6.61-11.6q4.49-7.87,9-15.73c2.11-3.68,4.26-7.33,6.38-11l10.29-17.93c2.05-3.57,4.65-8.12,8.39-14.61l1.17-2q1.47,2.69,2.95,5.35l-60.17,105.1h-3.66q-29.6,0-59,.37c-1.19.14-3,.34-5.15.51-11.76.92-19.48-.21-28.24-.76-7.145295-.448473-14.310483-.4852-21.46-.11Z" transform="translate(-140.58-55.77)" fill="#2b5659"/><path d="M419.37,258.37L419.28,194l39.48.4c-.196941.393735-.344716.810193-.44,1.24-.177085.9473-.156659,1.920961.06,2.86c0,11.46,0,22.92,0,35-.05,8.7-.06,16.8-.08,24.91-.168733.049789-.344107.073397-.52.07-.627227.015168-1.245437-.15154-1.78-.48c0-1.34-.09-2.41,0-3.47.030711-1.487699-.209884-2.968545-.71-4.37-3.29-10.35-7.76-20.2-12.43-30-.91-1.91-2-3.72-3.1-5.68l-17.79-3.69q-.12,23.75-.26,47.49Z" transform="translate(-140.58-55.77)" fill="#2b5659"/><path d="M517.65,258.28c-.53,0-1.06.1-1.59.1-16.55,0-33.11,0-50-.35-.28-5.79-.24-11.26,0-16.81c6.379604-4.568099,13.685297-7.678139,21.4-9.11.049558.525128.06959,1.052625.06,1.58-.29,3.33,1.42,5.36,4.29,6.69c1.760185.740087,3.603651,1.263913,5.49,1.56c4.685079.939191,9.540652.526467,14-1.19.46,1.61,1.7,2.35,2.65,3.32c2.3606,2.327013,3.686679,5.505279,3.68,8.82.05,1.8.02,3.6.02,5.39Z" transform="translate(-140.58-55.77)" fill="#ee6763"/><path d="M406.42,72.82l-25.94-.33c-.07-2.64-.12-5.34-.13-8.09s0-5.51,0-8.18h24.58c.59,4.26,1,8.73,1.29,13.4.11,1.06.16,2.14.2,3.2Z" transform="translate(-140.58-55.77)" fill="#ee6763"/><path d="M405.91,72.82c-.407163-.224136-.751131-.547466-1-.94-.367661-.685315-.487744-1.476453-.34-2.24.22-1.56.32-6.38.38-13.45l13.75.18c.29,8.11.48,14,.52,14.89.072015.46491-.059094.93836-.36,1.3-.09215.089951-.200807.161257-.32.21Z" transform="translate(-140.58-55.77)" fill="#d44243"/><path d="M465.89,241.08c0,5.41-.07,10.83-.09,16.54-.894349.680408-2.041333.936105-3.14.7-1.26-.13-2.52-.22-4.06-.38-.25-8-.24-16-.17-24.33c2.458078,1.043625,4.826075,2.287826,7.08,3.72.240499,1.235835.367694,2.491042.38,3.75Z" transform="translate(-140.58-55.77)" fill="#78c8c2"/><path d="M523.49,234.21c-1.75,1.34-3.52,2.66-4.52,4.95-1.72,3.53-1.15,6.78.38,10.18c1.09,2.79,3,4.75,4.75,6.8.54.63,1.15,1.21,1.82,2-2.48.22-5.06.24-7.92.22-.226828-1.790592-.320418-3.595551-.28-5.4.008187-3.288568-1.307284-6.442095-3.65-8.75-.94-1-2.17-1.71-2.41-3.35.92-.69,1.65-1.09,2.34-1.54c1.556525-.940786,2.479437-2.652577,2.41-4.47-.036528-.928366.074864-1.856633.33-2.75c2.42.75,4.58,1.43,6.75,2.11Z" transform="translate(-140.58-55.77)" fill="#d44243"/><path d="M359.15,178.58L238.53,165.7v-5.25l120.94-.13q-.15,9.14-.32,18.26Z" transform="translate(-140.58-55.77)" fill="#d44243"/><path d="M426.57,127.61l1.72.46c1.647772.579189,3.227181,1.337038,4.71,2.26.76.48,1.32.9,2.43,1.73c1.263169.844604,2.378173,1.892032,3.3,3.1.222489.321264.426164.655158.61,1-.72.53-1.75,1.27-3,2.15-8.555878,6.088866-17.535349,11.559425-26.87,16.37-1.26.64-2.4,1.2-3.38,1.67-.255849-.484283-.486164-.98163-.69-1.49-1.656828-4.240329-2.005139-8.879824-1-13.32Zm7.56,8.42c-.252493-.49284-.591167-.936504-1-1.31-.459547-.407285-.9971-.716889-1.58-.91l-23.86,14.31c-.098125.595988-.098125,1.204012,0,1.8.115331.631701.342204,1.237825.67,1.79Z" transform="translate(-140.58-55.77)" fill="#afd2cf"/><path d="M412.51,225.2l-37.27.16c0-.49-.05-1-.06-1.51c0-1,0-1.91,0-2.81l33.78.1c0-2.64,0-6.65-.12-11.55-.08-3.11-.17-5.17-.2-6.2-.183296-6.437474.037136-12.880108.66-19.29h2.7Z" transform="translate(-140.58-55.77)" fill="#2b5659"/><path d="M439.34,136.15l1.39.08c2.426841,2.292796,4.133043,5.243031,4.91,8.49.541907,2.864767.429095,5.814982-.33,8.63-.44956,2.673469-1.421396,5.232184-2.86,7.53-1.275277,1.954987-2.890854,3.665399-4.77,5.05-4.077166,3.287247-9.409407,4.581801-14.54,3.53-4.065992-.73988-7.768471-2.816365-10.52-5.9c3.502917,2.039527,7.552705,2.941033,11.59,2.58c8.89-.88,13.65-7.89,14.47-9.15c3.52-5.41,4.59-12.77,1.95-18.56-.36594-.794504-.797432-1.557141-1.29-2.28Z" transform="translate(-140.58-55.77)" fill="#2b5659"/><path d="M465.91,161.9c1.22-.25,2.43-.62,3.58.08c0,.33.24.76.11,1-1.18,1.72-1.57,4-3.47,5.39-.220945-2.149116-.29445-4.31084-.22-6.47Z" transform="translate(-140.58-55.77)" fill="#eaf7f5"/><path d="M390.51,111.87c.4-.61.83-1.21,1.19-1.85c4.82-8.48,9.62-17,14.51-25.65c1.61-.43,2,.85,2.56,1.57.042987.174214.073069.351361.09.53.000743.107333-.023208.2134-.07.31-.39.76-.76,1.53-1.18,2.27q-17.06,30.12-34.14,60.24c-.218642.312968-.462808.607306-.73.88-.83,0-1.77.13-2.71.13h-126.29c-.32,0-.64,0-1,0-1.88.14-3-.76-3.5-2.77c11.58-.21,23.17-.19,34.76-.18h58c12.49,0,24.39,0,36.3,0c.800223-.033633,1.598049-.110412,2.39-.23c2.63-4.63,5.16-9.07,7.66-13.53q6.12-10.84,12.16-21.72Z" transform="translate(-140.58-55.77)" fill="#d44949"/><path d="M211.73,157.07c-.14-1.8-.16-3.74-.22-6c0-1.77.09-3.26.17-4.92.418166-.158955.849953-.279454,1.29-.36.350546.028204.696392.098716,1.03.21.146995.300715.251334.620462.31.95.07,1.17.08,2.35.17,3.83-.456503,2.269138-1.394247,4.414015-2.75,6.29Z" transform="translate(-140.58-55.77)" fill="#1f566a"/><path d="M351.47,180.46q0,20.53,0,41.06L248,221.93l-.19-41.09Zm-100.2,2.94l-.15,7.1.33,28l97.14.06-.34-35.13Z" transform="translate(-140.58-55.77)" fill="#f1faf9"/><path id="eIeHQSUJakx34" d="M639.23,114.68c-3.43-.3-5.2-2.22-8.63-1.88-7.65.78-9.63,8-12.75,15s-2.63,17.64-2.63,19.14-3.87,10.57-8.25,16.13-10,5.63-13.51,11.63c-3.13,5.33-5.15,9.36-3.75,15.38s6.11,7.15,7.5,12.76c1.74,7-5.15,11.28-2.25,18.38c1.84,4.51,4.31,6.76,8.63,9c6.23,3.25,11,0,18,0c5,0,7.79-.44,12.75,0c3.1.27,4.79.84,7.88,1.12c5.84.55,9.37,1.61,15,0c4.290476-.987139,8.206276-3.18804,11.28-6.34c2.79-2.73,4.39-4.56,5.62-8.26c1.28688-3.76987,1.28688-7.86013,0-11.63-1.12-3.25-2.18-6.58-1.87-10.88.41-5.7,4.62-7.88,5.63-13.51.82-4.61,1.64-7.61,0-12-1.54-4.1-4-5.63-7.13-8.63s-7.36-5-10.13-9.76c-2.11-3.6-2.32-6.09-3.38-10.13-1.8-6.87,1.39-12.14-2.63-18-2.65-3.86-4.8-6.47-9.38-7.5-2.23-.53-3.66.18-6-.02Z" transform="translate(-140.58-55.769995)" fill="url(#eIeHQSUJakx34-fill)"/><path d="M631,230.8c-.08-3.55-.11-6.82,0-10.09.076399-1.582227-.393144-3.142666-1.33-4.42-3.33-4.61-6.56-9.29-10.07-14.27-.395495-.662341-.840074-1.29411-1.33-1.89-1.256592-1.283348-2.290733-2.766968-3.06-4.39-.378545-.636074-.79253-1.250375-1.24-1.84-.31-.51-.58-1.06-.94-1.74l2.28-1.53c.74,1,1.38,1.82,2,2.67q5.87,8.32,11.72,16.64c.47.65.78,1.52,2,1.62.09-.81.24-1.62.25-2.42q0-13.54,0-27.09c0-.94-.18-1.89-.2-3.12.12-5.55.15-10.81.16-16.06-.045157-.520194-.135498-1.035471-.27-1.54.16-1.32.32-2.63.51-4.12l2.32-.14c.13.92.25,1.7.42,2.75-.007446.297703-.030813.594794-.07.89c0,7.44,0,14.88,0,22.26.69.47,1.06,0,1.43-.32l8.93-8.61l2.62-2.53L649,173.1c0,1.31-1.05,1.71-1.65,2.66-1.62,1.6-3.15,3-4.66,4.45-2.65,2.51-5.29,5-8.12,7.83-.34.41-.37.56-.29.75c0,1.52-.08,3-.07,4.84c0,2-.12,3.62-.13,5.29c0,3.66,0,7.33.11,11.29c0,.81-.12,1.33-.12,1.85c0,6.11,0,12.22.12,18.62c0,1.55-.06,2.82-.06,4.09c0,6.77,0,13.54,0,20.31c0,1-.07,2.08-.11,3.29h-2.66c-.06-1-.16-1.94-.16-2.86c0-7,0-14,0-20.95-.05-1.16-.11-2.32-.2-3.76Z" transform="translate(-140.58-55.77)" fill="#1f566a"/><path d="M516.7,204.89c.12,2,.2,4,.22,6.15c0,2.38,0,4.65-.17,6.79-.666737.047089-1.336449.030346-2-.05-.588584-.073406-1.166117-.21779-1.72-.43s-3.52-1.25-16.35-5.54c-3.137283-1.044808-6.332679-1.906263-9.57-2.58.671933-1.539711.785115-3.265728.32-4.88Z" transform="translate(-140.58-55.77)" fill="#d44243"/><path d="M456.14,258l-34.63.31q.17-23.84.32-47.66l18,3.64c1.08,2,2.19,3.79,3.1,5.71c4.67,9.82,9.14,19.72,12.44,30.12.500134,1.408373.740693,2.895776.71,4.39-.03,1.06.03,2.13.06,3.49Z" transform="translate(-140.58-55.77)" fill="#55979e"/><path d="M198.76,175.18c.25-.23.51-.05.75.61-.23.15-.46-.07-.75-.61Z" transform="translate(-140.58-55.77)" fill="#87a851"/><path d="M487.87,208.85c3.08.09,5.83,1.27,8.62,2.31c5.49,2.07,10.93,4.27,16.41,6.35c1.184434.376067,2.404041.630711,3.64.76.28,4.36.32,8.76.38,13.43c0,1.21-.07,2.16-.06,3.11.077797,1.845385-.868087,3.583351-2.46,4.52-.778567.489823-1.583077.937144-2.41,1.34-6.416532,2.490409-13.538782,2.454673-19.93-.1-2.91-1.34-4.64-3.38-4.35-6.73.00978-.527376-.010252-1.054884-.06-1.58c0-6.12,0-11.92.06-17.73.01-1.79.05-3.53.16-5.68Z" transform="translate(-140.58-55.77)" fill="#f38787"/><path d="M534.92,220.1c2.37-2.64,3.8-4.41,7.13-5.62c5.16-1.88,8.4,2.54,13.88,2.25c7.83-.43,11-6.38,18.76-7.13c4.014599-.379658,8.063915-.126576,12,.75c7.21,1.26,11.06,3.15,17.63,6.38c5.55,2.72,9.25,3.77,13.51,8.25c3.22,3.39,5,5.66,6.38,10.13c1.520248,4.375031,1.520248,9.134969,0,13.51-1.24,4.22-5.63,9.75-5.63,9.75h-93.04c0,0-2.37-3.14-3.75-5.25-1.93-3-4.17-4.35-4.5-7.88-.35-3.74,1.11-6,3.38-9c2.47-3.28,5.84-3,8.63-6c3.07-3.33,2.61-6.76,5.62-10.14Z" transform="translate(-140.58-55.769999)" fill="url(#eIeHQSUJakx40-fill)"/><path d="M531.17,143.55c.13-1.18,1.22-1.54,2.08-2.12c2.38-1.6,4.84-3.07,7.5-4.62.203291.400604.232237.867348.08,1.29-.88,1.76-1.83,3.48-2.8,5.31-2.28276.164117-4.572445.210845-6.86.14Z" transform="translate(-140.58-55.77)" fill="#c9e8e2"/><path d="M303.06,218.52l-43.52-.13l56.53-35l32.71-.26-.12,7.69Z" transform="translate(-140.58-55.77)" fill="#c9e8e2"/><path d="M255.79,218.6h-4.65v-10.43l41-24.83h20.42Z" transform="translate(-140.58-55.77)" fill="#c9e8e2"/><path d="M303.06,218.52l45.6-27.68q0,8.24,0,16.47l-18.49,11.28Z" transform="translate(-140.58-55.77)" fill="#eaf7f5"/><path d="M262.16,183.36h14.94L251,199.54c0-3,.07-6,.1-9Z" transform="translate(-140.58-55.77)" fill="#eaf7f5"/><path d="M251.29,199.39q12.9-8,25.81-16h7.63L251.29,203.6Z" transform="translate(-140.58-55.77)" fill="#c9e8e2"/><path d="M251.29,203.6l33.44-20.19l7.44-.07-41,24.83Z" transform="translate(-140.58-55.77)" fill="#eaf7f5"/><path d="M255.79,218.6l56.8-35.25l3.48.06-56.61,35Z" transform="translate(-140.58-55.77)" fill="#eaf7f5"/><path d="M330.07,218.57l18.6-11.26c0,3.75-.05,7.49-.08,11.24Z" transform="translate(-140.58-55.77)" fill="#c9e8e2"/><path d="M262.16,183.36l-11,7.14.15-7.1Z" transform="translate(-140.58-55.77)" fill="#c9e8e2"/><path d="M643.82,55.78c.778834.019413,1.532881.277744,2.16.74-1.0079-.096434-2.009512-.250014-3-.46.18-.42.5-.24.84-.28Z" transform="translate(-140.58-55.77)" fill="#565ca6"/><path d="M211.07,234c-.06-5.94,0-11.57-.06-17.49s0-11.79,0-17.83c.49-4.14-.19-7.54-2.87-10.57-2-2.27-3.63-4.92-5.56-7.54-1.08-1.45-2-2.76-3.06-4.41-.23-.5-.37-.58-.57-.59-1.413457-1.486756-2.503086-3.250592-3.2-5.18l1.82-1.56c.3175.156857.610555.358964.87.6q4.92,6.77,9.82,13.57c.65045,1.02416,1.40805,1.976188,2.26,2.84.26-.19.4-.24.4-.3.06-6.35.11-12.69.12-19.34c0-1.54.08-2.79.18-4.31.824462-.290145,1.710577-.359104,2.57-.2.247644.130152.399124.390386.39.67.05,5.18.1,10.07.08,15.25c0,5.84,0,11.38,0,17.21-.36,10.57-.24,16.06.37,18.38.56-.58,1.1-1,1.55-1.6q5.67-6.81,11.31-13.63c.419783-.469878.870809-.91088,1.35-1.32.14-.12.39-.11.61-.17.87694.191529,1.518863.943846,1.57,1.84-.19109.347057-.404889.681117-.64,1-3.43,4.15-6.89,8.26-10.29,12.42-1.34,1.63-2.57,3.33-4.05,5.1-1.37055,1.09333-2.096473,2.804703-1.93,4.55-.046855,3.755512.106696,7.51085.46,11.25s0,0-.15.09-.29.3-.21.45q0,10.63,0,21.26c.03686,1.23907-.114874,2.476542-.45,3.67-.611792.16757-1.237806.278043-1.87.33-.62-.4-.61-1.05-.61-1.68c0-2.1-.05-4.21-.05-6.31-.05-5.45-.07-10.8-.16-16.45Z" transform="translate(-140.58-55.77)" fill="#1f566a"/><path id="eIeHQSUJakx53" d="M491.84,135.05c-.264622.246535-.564602.452139-.89.61-.276766.168864-.595834.255567-.92.25-.428054-.076144-.797042-.345506-1-.73-.08-.27-.2-.7-.32-1.23c0,0-.12-.53-.22-1.07-1.38-7.48-.42-10.58-.42-10.58.340187-1.374926,1.08162-2.617609,2.13-3.57.32-.26,2.3-1.86,3.92-1.17.628788.341475,1.132988.873686,1.44,1.52c1.13,1.8,1.07,3.55,1.44,3.55s.43-1.34.83-1.36.83,1.54.92,1.92c.192392,1.11603.279441,2.247675.26,3.38.06,1.05-.24,1.05-.37,2.08-.27,2.12.24,2.87,0,3.69-.22,1.03-1.64,2.18-6.8,2.71Z" transform="translate(-140.58-46.769997)" fill="#e4b1b5"/><path d="M489.49,167.11c-.2-1.15-.4-2.31-.59-3.47l-1.29-7.87c-.13-.81-.27-1.63-.44-2.64-.07-.39-.09-.59-.12-.79s0-.45-.11-.84c-.063081-.286046-.0999-.577256-.11-.87-.18-1.26-.35-2.42-.52-3.69-.1-1.55-.33-3-.28-4.42c0-1.13,0-2.27.05-3.4c0-.78.12-1.56.2-2.45.083071-.729147.220113-1.451128.41-2.16.312983-1.201694,1.089767-2.230215,2.16-2.86c1.39916-.802355,2.903764-1.404869,4.47-1.79.207146-.060826.408048-.141187.6-.24c2.410518-.594931,4.855048-1.042426,7.32-1.34c1.82-.22,3.63-.48,5.44-.71.350803-.041985.706264-.021673,1.05.06.172822,1.052539.787979,1.980735,1.69,2.55.4.26.8.52,1.22.74c1.44259.726725,3.010661,1.171351,4.62,1.31c1.692558.246215,3.41871-.084924,4.9-.94c1.049241-.508788,1.846855-1.421894,2.21-2.53.122223-.519576.122223-1.060424,0-1.58c3,.28,5.45.65,7.39,1c2.777613.353317,5.505476,1.024378,8.13,2c2.68.82,2.79.92,4.28,3.27c2.464944,3.94703,4.672856,8.04887,6.61,12.28c2.561803,5.453258,4.50717,11.175321,5.8,17.06.457316,1.967605.528633,4.005236.21,6-.18,1-.22,2-.31,3-.047534,1.217378-.790665,2.299003-1.91,2.78-.39151.197653-.808962.339049-1.24.42-1.096652.155874-2.202376.239388-3.31.25.508688-.586184.748118-1.358891.66-2.13-.037716-.522998-.121372-1.041665-.25-1.55-.810935-2.550955-1.964829-4.979853-3.43-7.22-.253512-.469283-.692605-.810396-1.21-.94-.25-.06-.34-.25-.27-.52.51-.26.94-.47,1.34-.72.524367-.295251,1.025781-.629527,1.5-1c.260289-.173468.433511-.450399.475603-.76035s-.051002-.623049-.255603-.85965c-.304346-.478754-.742427-.857729-1.26-1.09-1.323782-.661275-2.757388-1.07475-4.23-1.22.004702-.736041-.045436-1.471409-.15-2.2-.707552-3.107064-1.650268-6.155847-2.82-9.12-.08-.22-.14-.53-.6-.51.19,1.11.41,2.2.55,3.3.216585,1.155912.353574,2.325327.41,3.5c0,1.84,0,3.68-.05,5.58-1.098322.44965-2.11264,1.081908-3,1.87-.192864.202082-.403736.386176-.63.55-.71.54-1.33.37-1.9.9-.14947.1443-.277443.309318-.38.49-.506347.02545-1.013653.02545-1.52,0-1.67049-.105926-3.320558-.425186-4.91-.95-6.79-1.94-6.94-2-7.65-2.34-.942498-.532173-1.921632-.996677-2.93-1.39-1.34-.51-1.24-.3-2.51-.81-.581653-.268541-1.209988-.421379-1.85-.45-.25293-.020214-.50707-.020214-.76,0-.657303.0752-1.306559.209067-1.94.4-.710707.191583-1.431915.341834-2.16.45-.24-2.88-.56-5-.67-5.46s-.23-.95-.23-.95l-.12-.45c-.240009-1.107554-.557455-2.196897-.95-3.26s-.13-.32-1-1.83c-.193074-.301987-.545435-.462507-.9-.41-.42,0-.67.28-.57.68.159155.635708.35958,1.260366.6,1.87.717164,1.829943,1.30527,3.707872,1.76,5.62.39,1.43.7,2.87,1.05,4.42.26,1.91.52,3.73.78,5.54-.007464.416119.167998.814564.48,1.09c1.193176-.259416,2.424352-.293333,3.63-.1.69664,1.274547.868836,2.770506.48,4.17-.40742,1.932012-1.207276,3.759769-2.35,5.37-.578096.912088-1.212668,1.787129-1.9,2.62-.28487.170367-.586445.311101-.9.42-.473666.155227-.963504.255879-1.46.3-2,.22-7,.59-8.11.53-.263086-.016142-.526914-.016142-.79,0-.157562.006767-.314541.023467-.47.05l.21,1.17c.42,2.21.79,3.16,1.06,4.6.252645,1.109551.39004,2.242224.41,3.38-.05,3,0,6.07,0,9.1-.035288.352452-.035288.707548,0,1.06.25,1.31.8,2,2.31,2c.524294.021275,1.045911-.085107,1.52-.31c1.21-.62,1.95-1.07,1.92-2.8-.15727-1.66962-.076462-3.353119.24-5-.010536-1.708199.170597-3.412188.54-5.08.198532-1.25759.611175-2.471841,1.22-3.59.316954-.629335.876644-1.102363,1.55-1.31c1.37-.44,2.72-1,4.06-1.46c1.72-.64,3.42-1.3,5.13-1.95l7.32-2.83c1.42-.55,2.83-1.13,4.24-1.7.312379-.088754.562209-.323668.67-.63.157343.032302.31134.07917.46.14c3.254354,1.593285,6.7192,2.714562,10.29,3.33.86.14,1.71.32,2.56.47-.266819,1.988119-.357171,3.995951-.27,6c.11,1.79.28,3.58.44,5.37q.12,1.44.3,2.88c.23,2,.5,4,.71,6c.09.83.09,1.67.13,2.5.102551.796792-.41679,1.54118-1.2,1.72-.47,0-.73,0-1,0-3-.06-5.92-.12-8.88-.16-1.74,0-3.48,0-5.34,0-.33,0-.55,0-.77,0-3.77-.06-7.52.16-11.28.1-1.17,0-2.1,0-3.36,0h-.76c-3.41-.07-6.78-.26-10.07-.31-.766183.086428-1.541637.035634-2.29-.15-.336086-.085636-.649839-.242513-.92-.46-.117077-.085319-.218564-.190189-.3-.31-.12694-.231729-.205207-.486946-.23-.75s0-1.39,0-2.08c.033461-1.590076-.04339-3.180558-.23-4.76c0-.5-.05-.78-.08-1.06.020001-.393079.020001-.786921,0-1.18-.06-.82-.14-1.65-.23-2.47c0-.39-.12-.77-.2-1.36c0-.41-.06-.6-.08-.8-.08-.82-.12-1.64-.24-2.45-.23-1.58-.5-3.16-.78-4.93-.14-.62-.47-.58-.78-.58-.82-.1-1-.76-1.26-1.56-.12-.37-.2-.58-.29-.79-.29-1.27-.58-2.55-.88-3.82-.12-.51-.26-1-.41-1.71-.16-.49-.24-.78-.32-1.08Z" transform="translate(-140.58-55.77)" fill="#f2d170"/><path d="M496.49,199.26c.73,0,1.46.11,2.2.12c3.29,0,6.58.08,10,.23-.11.17-.26.41-.47.68-.689191.833238-1.543901,1.514282-2.51,2-2.018248,1.077752-4.262485,1.663652-6.55,1.71-.120553-.037033-.249447-.037033-.37,0-.086693.041512-.162143.103244-.22.18l.14.08c.070575.033714.144253.060506.22.08.264637.046527.535363.046527.8,0c.934608-.053723,1.863876-.177403,2.78-.37c1.173846-.311903,2.305466-.765222,3.37-1.35.997694-.571623,1.935699-1.241626,2.8-2c.314467-.23719.548375-.565359.67-.94.005987-.069872.005987-.140128,0-.21l3.48-.07q6.21-.09,12.23,0c.27,6.44.28,13,0,19.77l-.06,1.28c-.62.51-1.15.9-1.63,1.34-.194349.176021-.324534.41176-.37.67-.12,1-.22,2.08-.28,3.13-.11,1.83-1.45,27.13-1.44,27.81-.163985.618542-.290877,1.246326-.38,1.88-.22,2.18-.39,4.38-.63,6.56-.38,3.46-.77,6.91-1.2,10.35-.45,3.63-.89,7.25-1.43,10.86s-1.13,7.12-1.76,10.66c-.78,4.46-1.72,8.89-2.91,13.26-.656025,2.553309-1.512002,5.051022-2.56,7.47-.236159.652129-.573634,1.262958-1,1.81l-3,.07h-10.68l-2.8-.08c0-.46-.09-.84-.09-1.22c0-7-.1-14.06-.1-21.09q0-7.52.17-15c.11-5.57.29-11.15.43-16.73c0-.26,0-.53,0-1s0-.8,0-1.08l.11-1c0-.39,0-.62,0-.84c0-.47.12-.94.13-1.42c0-1.82.05-3.64.08-5.68c0-.42,0-.62,0-.82.07-1.61.16-3.22.2-4.83s.06-3.48.1-5.46c0-.59,0-1,0-1.33.07-1.21.16-2.42.21-3.64s.06-4.61,0-4.81c.1-2.21.2-4.42.31-6.83c0-.33.1-1.43.12-1.86.14-2.92.26-5.84.4-9c0-.32,0-.44,0-.56.06-.39.14-.77.18-1.16.2-2.47.37-4.95.61-7.42.1-1.13.33-2.24.53-3.53.03-.28.1-.47.17-.67Z" transform="translate(-140.58-55.77)" fill="#343383"/><path d="M521.2,253.84c-.07-1-.1-1.66-.12-2-.27-6.5.46-14.87,1.35-25.41c0-.43.26-3.07.3-3.54.074217-.357295.216836-.696863.42-1c.42536-.606767,1.04698-1.048258,1.76-1.25c0-.46,0-.93,0-1.39-.24-6.74-.15-13.32.22-19.73c1.25,0,3.13.1,5.46.08h1.21c4.48-.05,6.31,0,7.38.06l.92.05c.19,2.1.45,5.24.73,9.06.19,2.63.36,5.47.72,11.05.21,3.28.4,6.57.61,9.86s.46,6.74.68,10.11l.6,9.6c.22,3.46.46,6.92.69,10.38.1,1.54.2,3.07.29,4.6q.45,7.11.89,14.2.51,8.08,1,16.17.38,5.91.76,11.83c.2,3,.41,6,.61,9.07.008269.143214.008269.286786,0,.43-.57.38-1.26,0-1.94.27.28.67.62,1.32.83,2c.196658.740507.294176,1.503836.29,2.27-2.57.1-5,.1-7.44.11-1.92,0-3.84,0-5.79-.08.030854-.554833.104405-1.106465.22-1.65.151222-.502078.328122-.996062.53-1.48.292845-.460295.537471-.949547.73-1.46L531,316c-.11-.36-.22-.64-.28-.94-.82-4-1.7-8.06-2.45-12.11-.88-4.74-1.68-9.5-2.47-14.26-.53-3.2-1-6.41-1.45-9.63-.41-3-.78-6-1.13-9-.75-6.35-.46-5.57-.86-8-.53847-2.716425-.925733-5.460646-1.16-8.22Z" transform="translate(-140.58-55.77)" fill="#2b2b5f"/><path d="M486.43,135.73c-.13.79-.26,1.86-.34,3.14s-.07,2.35,0,3.39c0,1.22.09,2.78.26,4.63-1.197463.113025-2.356814.48129-3.4,1.08-.54011.265582-.981482.696445-1.26,1.23-.168647.383137-.234148.803723-.19,1.22.027003,1.050912.140723,2.097801.34,3.13.19.79.13,1.57.27,2.35.259792,1.15329.410456,2.328473.45,3.51-.033809.264114-.016838.532256.05.79.210987.764302.278794,1.561036.2,2.35-.03001.77933.061073,1.558598.27,2.31c0,.3,0,.5,0,.69-.108555.354376-.195383.715046-.26,1.08-.195218.686022-.28954,1.396806-.28,2.11-.07.37-.14.71-.21,1-.24,1.16-.28,1.33-.31,1.61-.07.5,0,.41-.12,1.35-.082613.519504-.12939,1.044076-.14,1.57.01367.421392.070636.840262.17,1.25.081652.38988.198807.771471.35,1.14v.79c.017151.291843-.006408.584653-.07.87-.391788,1.246919-.547784,2.55593-.46,3.86.090352.924464.090352,1.855536,0,2.78-.129304.958419-.206085,1.923194-.23,2.89-.17,2.25-.15,2.41-.28,3.55s-.19,1.79-.3,2.35-.27,1.71-.45,3c-.025027.17578-.025027.35422,0,.53-.007426.693612.275973,1.358634.781425,1.833683s1.186755.716702,1.878575.666317c.750809.071311,1.499149-.158948,2.08-.64.33-.29.71-.53,1-.81.209185-.198176.482228-.315194.77-.33h.21c.004422.33658-.032522.672429-.11,1-1.175219,1.259954-2.661844,2.187801-4.31,2.69-1.41.48-2.84.94-4.28,1.32s-3.17.74-4.86,1.09c-3.808267.6405-7.652082,1.047924-11.51,1.22-3.035272.143536-6.077298.016367-9.09-.38-2.414416-.241627-4.776243-.859076-7-1.83-.220484-.090292-.428776-.207876-.62-.35-.546745-.902499-.667496-2.000234-.33-3c.435292-1.936854.982884-3.846746,1.64-5.72.16-.45.21-.94.39-1.49.190276-.007223.366831.098711.45.27-.005974.334322-.029339.668106-.07,1-.14.9-.31,1.8-.45,2.71s-.26,2.08-.45,3.11c-.121101.530159.092754,1.080638.54,1.39.509776.427875,1.154458.661661,1.82.66.52,0,1.05,0,1.57,0c.618001.006799,1.219083-.201812,1.7-.59.579417-.471523,1.055912-1.05693,1.4-1.72.946789-1.995234,1.735868-4.061551,2.36-6.18.25-.79.39-1.61.59-2.53-.031311-.411722-.004379-.825803.08-1.23.247505-.0629.428074-.275571.45-.53.34-1.63.72-3.26,1-4.89.311537-1.282376.499067-2.591732.56-3.91.020947-.173927.061195-.344981.12-.51.234876-1.218787.234876-2.471213,0-3.69-.326299-1.465498-.86891-2.874266-1.61-4.18-.29-.54-.61-1.06-.91-1.6-.5-.89-.92-1.81-1.48-2.65-1.57-2.34-3.17-4.65-4.79-6.95-.26-.37-.57-.92-1.14-.72s-.54.74-.63,1.27c-.172343.113733-.330175.248058-.47.4-.64.88-1.25,1.8-1.93,2.65-1.31,1.65-2.66,3.26-4,4.89-.58.7-1.14,1.42-1.68,2.09-.014329.11288-.014329.22712,0,.34.26.65.5,1.31.8,2c1,2.14,2.15,4.23,3,6.47.56,1.52,1.28,3,1.94,4.47.48,1.08,1,2.16,1.46,3.24.09499.258962.119155.538581.07.81-.731451.820879-1.31661,1.761191-1.73,2.78-.05.1,0,.25,0,.38-.398441.081203-.809969-.055973-1.08-.36-1.228067-1.131528-2.36804-2.355077-3.41-3.66-.134496-.180048-.288797-.344412-.46-.49-2.316256-2.34434-4.331746-4.967835-6-7.81-1.38-2.41-2.75-4.82-4-7.29-.416775-.692722-.461756-1.547355-.12-2.28.17-.36.31-.73.49-1.08c1.67-3.36,3.28-6.76,5-10.07c1.470974-2.909509,3.180136-5.692333,5.11-8.32.91-1.18,1.72-2.44,2.66-3.6s2-2.31,3.08-3.44c.215378-.218596.469754-.394963.75-.52.67-.32,1.35-.63,2.05-.89c1.23-.47,2.48-.9,3.71-1.35l2-.73c.683457-.317037,1.445403-.424892,2.19-.31.179089.335809.412202.639868.69.9.362024.318817.778733.56952,1.23.74c1.538879.476534,3.13909.72583,4.75.74c1.246456.04048,2.493647-.053395,3.72-.28c1.73-.34,2.25-.76,2.52-1.2.24912-.454273.343878-.977197.27-1.49c1.619307.168552,3.255428.063759,4.84-.31.261554-.024124.517865-.088201.76-.19c1.669881-.780906,3.440124-1.326114,5.26-1.62l.54-.11Z" transform="translate(-140.58-55.77)" fill="#dfe5f5"/><path d="M445.6,202.84c.1.06.25.13.44.22c2.197569,1.025096,4.577044,1.602968,7,1.7c3.02267.313168,6.061744.440074,9.1.38c3.83-.19,7.64-.55,11.53-1.09c0,.47.09,1.22.13,2.14.102441,3.066819-.001125,6.137056-.31,9.19-.06.74-.15,1.8-.29,3.09-.608358.188492-1.156612.533306-1.59,1-.316365.376943-.563511.806909-.73,1.27-.291184,1.002515-.402902,2.048602-.33,3.09c0,.74-.11,1.48-.15,2.22-.08,1.39-.18,2.78-.27,4.17-.3,4.62-.45,7.19-.48,8.28c0,.58,0,1.2-.09,2.22-.05.65-.1,1.15-.24,2.34s-.21,1.85-.31,2.61c-.417991,3.542011-.648312,7.103654-.69,10.67c0,.16.08.33.1.6-.140584.514478-.204605,1.04686-.19,1.58c0,.78-.09,1.36-.09,1.53c0,.81-.15,2.91-.51,8.25q-.39,6.48-.79,13l-.25,4.19-.21,4.67c0,.23-.06.39-.08.54-.189728.954357-.266922,1.927667-.23,2.9-.009573.183208-.009573.366792,0,.55-.1,1.24-.19,2.48-.3,3.93c0,.32,0,.44,0,.56-.08.91-.17,1.82-.26,2.73.040206.488872-.028088.980589-.2,1.44-.709052.127863-1.431123.168165-2.15.12h-7.91c-.30519.013441-.609174.046846-.91.1-.35,0-.7-.09-1.05-.09s-.62-.26-.72-.85c-.29-1.78-.56-3.35-.83-5c.017094-.212991.017094-.427009,0-.64-.3-1.62-.6-3.25-.81-4.89.029512-.653629-.145244-1.300227-.5-1.85-.11-.91-.2-1.83-.33-2.74-.32-2.31-.66-4.61-1-6.92-.33-2.48-.64-5-.95-7.45-.22-1.79-.42-3.58-.62-5.37-.24-2.09-.49-4.19-.72-6.29s-.41-3.93-.6-5.9c-.25-2.45-.49-4.89-.72-7.34-.11-1.1-.22-2.19-.3-3.29-.21-2.89-.44-5.78-.61-8.68-.25-4.17-.49-8.34-.65-12.51-.183334-4.393571-.11656-8.794014.2-13.18.075111-1.685641.312882-3.360084.71-5c.33-.95.59-1.71.76-2.2Z" transform="translate(-140.58-55.77)" fill="#565ca6"/><path d="M469.13,245.18c.05-.83.51-8.09.53-8.75c0-.83.3-5.83.44-6.53.095434-.739248.125551-1.485466.09-2.23-.007238-.653995.049701-1.307123.17-1.95.120576-.659589.147508-1.332888.08-2-.005263-1.050756.095243-2.099374.3-3.13.116754-.612025.477848-1.150054,1-1.49.49-.36,1-.67,1.58-1c0-1,.28-7.85.3-8.76c0-.32.17-1.35.19-2.75.008748-.837814-.024627-1.675538-.1-2.51c1.712447-.330221,3.402446-.76775,5.06-1.31c1.389015-.453807,2.754104-.977814,4.09-1.57c1.472772-.660975,2.908253-1.402084,4.3-2.22.37,1.26.52,1.88.59,2.21c0,0,0,.25.11.52s.12.55.17.79c.14,1.34.28,2.68.45,4.21.05.3.07.42.1.53c0,.69,0,1.38.07,2.07.06,1.08.14,2.15.22,3.46.06.86.12,1.5.17,2.13c0,.2,0,.39,0,.78s.06.77.08,1.05-.05.43-.05.65v14.08c0,.51-.24,8.86-.22,9-.1,1.77-.2,3.53-.31,5.51c0,.42-.13,2.54-.12,2.66-.13,2.11-.26,4.23-.4,6.55c0,.32-.17,2.19-.22,3-.013149.478622-.15476.944902-.41,1.35-.5.76-1,1.55-1.52,2.46s-10,15.23-10.78,16.35c-.23.29-8.07,10.81-8.31,11.07l-.32.37c.84-17.68,1.51-30.57,1.59-31.46.098066-.64201.300756-1.263592.6-1.84.041237-.073472.08804-.143677.14-.21L469,256l3.29-4.53c.039074-.102193.059399-.210594.06-.32Z" transform="translate(-140.58-55.77)" fill="#343383"/><path d="M459.2,137.71c-2.213239.449616-4.475353.610955-6.73.48-2.292444-.141388-4.560846-.547418-6.76-1.21-.17,0-.33-.14-.57-.24.13-.26.23-.48.35-.7.865071-1.746489,1.551877-3.575737,2.05-5.46.74-2.46,1.4-4.94,2.19-7.38.788395-2.453442,1.919581-4.783147,3.36-6.92.926702-1.369749,2.060164-2.587545,3.36-3.61c1.966463-1.540313,4.373291-2.412656,6.87-2.49c2.945765-.201545,5.875237.579179,8.33,2.22c2.174711,1.452261,3.781793,3.610342,4.55,6.11c1.696604,5.028042,1.714151,10.471124.05,15.51-.259746.877176-.650848,1.709954-1.16,2.47-.87-.08-1.76-.14-2.69-.19-1.13-.06-2.22-.08-3.28-.09-.070749-.259504-.1242-.523417-.16-.79-.046561-.307966-.073283-.618606-.08-.93-.077445-.552901-.033076-1.116049.13-1.65.17-.4.3-.3,1.08-1.21.345278-.358294.635138-.766121.86-1.21.169891-.37628.274711-.778656.31-1.19.043987-1.12053-.023006-2.242663-.2-3.35c0-.67-.15-1.34-.14-2c.020544-.341947-.037614-.684051-.17-1-.123503-.226008-.267437-.440235-.43-.64-.234138-.338489-.425586-.704592-.57-1.09-.560139-1.020601-1.33866-1.904974-2.28-2.59-1.767639-1.470028-4.332361-1.470028-6.1,0-.530583.407653-1.016613.87022-1.45,1.38-2.08,2.68-2.71,3.22-2.91,4-.078059.28151-.131592.569252-.16.86.12,1.76.24,3.52.37,5.29.110112.428937.319007.826181.61,1.16.254464.250728.52504.48456.81.7.375874.305064.726974.639445,1.05,1c0,.11,0,.41,0,.79.09,2.3.12,3.08-.36,3.78Z" transform="translate(-140.58-55.77)" fill="#565ca6"/><path d="M459.33,137.23c.179161-.672011.269926-1.364516.27-2.06.061459-.745402.061459-1.494598,0-2.24l-1.48-1.3c-.606862-.54146-.988656-1.290776-1.07-2.1-.201539-1.735934-.298381-3.482427-.29-5.23.003223-.310126.097076-.612539.27-.87.94-1.37,1.87-2.73,2.87-4.05.422412-.515644.898417-.984945,1.42-1.4c1.719973-1.496736,4.280027-1.496736,6,0c.930422.705941,1.694992,1.607041,2.24,2.64.285489.609401.619918,1.194652,1,1.75.512929.731893.756729,1.618759.69,2.51c0,1.3.11,2.6.18,3.9.061134.630001-.067731,1.263878-.37,1.82-.305717.500879-.660822.969885-1.06,1.4-1.08,1.12-1,.78-1,2.46.022381.522008.092677,1.040855.21,1.55.013282.635309.103951,1.266631.27,1.88.17.52.43.84,1,.82.162933-.016175.327067-.016175.49,0c.12,1.29-.21,1.86-1.3,2.29-.491529.202383-1.005005.346693-1.53.43-1.586421.362081-3.221695.460063-4.84.29-.960481-.105071-1.912686-.275465-2.85-.51-.49908-.172246-.986726-.375989-1.46-.61-.564459-.254281-1.001247-.727167-1.21-1.31.346478-.25254.656116-.552081.92-.89.26345-.358766.475498-.75257.63-1.17Zm5.23-6.85c-.903275-.110297-1.819524.028005-2.65.4c0,.15,0,.27.07.31c1.13715,1.167574,2.982797,1.259202,4.23.21.130502-.148207.235282-.317207.31-.5-.594456-.338596-1.278998-.485284-1.96-.42Zm-5-6.63c-.26,0-.61-.15-.8.31c1.059867.228583,2.131477.398839,3.21.51-.71-.72-1.49-.63-2.37-.82Z" transform="translate(-140.58-55.77)" fill="#e4b1b5"/><path d="M523.87,111.86c0,.06,0,.24,0,.49s0,.68,0,.88-.16.71-.29,1.21-.18.73-.28,1.1c-.14187.691244-.366838,1.362789-.67,2-.224999.390805-.527935.731184-.89,1-1.200445.557204-2.490646.89584-3.81,1-.209828.047963-.430142.008235-.61-.11-.049319-.044481-.09298-.094859-.13-.15.063971-.360915.147427-.718104.25-1.07.05-.19.11-.38.17-.55.277218-.218037.511236-.485972.69-.79.110469-.202872.197687-.417564.26-.64-.821774-.329367-1.706253-.472797-2.59-.42-.61,0-1.22,0-1.82,0-1.009568-.031523-2.009675.202985-2.9.68l.26.38c.22.32.44.62.66.91s.14.42.2.66c.073316.299479.126766.603474.16.91-.102394.072999-.213188.133432-.33.18-.14,0-.56.18-1.87-.35-.604223-.239733-1.183631-.53781-1.73-.89-.135858-.08123-.266147-.17143-.39-.27-.381464-.281452-.718548-.618536-1-1-.261902-.389832-.442189-.828642-.53-1.29-.140645-.560476-.227703-1.13305-.26-1.71-.011954-.179802-.011954-.360198,0-.54.015134-.079284.015134-.160716,0-.24-.031531-.112293-.089871-.215246-.17-.3.115024-.700652.168561-1.410021.16-2.12c0-.86-.12-1-.17-1.93-.04389-1.00249.006329-2.006888.15-3c.038334-.571997.173593-1.133321.4-1.66.228383-.466039.540194-.886307.92-1.24.845588-.743884,1.886719-1.229745,3-1.4.13,0,.38,0,1.06-.13l1-.12c.67-.07.85,0,1.63-.07.6,0,.87-.08,1.19-.1.940075-.059701,1.883797.021189,2.8.24c1.22542.102942,2.410035.489825,3.46,1.13.72769.489842,1.291945,1.186454,1.62,2c.142096.314401.217026.654992.22,1c.1,1.53.16,3.07.22,4.6-.04.57-.05,1.15-.04,1.72Z" transform="translate(-140.58-55.77)" fill="#af7242"/><path d="M523.86,111.09c-.05-.67-.09-1.22-.11-1.58-.038742-1.475147-.155572-2.947209-.35-4.41-.02415-.31536-.094919-.625397-.21-.92-.384135-.765816-1.019557-1.376527-1.8-1.73-1.078904-.542186-2.248385-.881167-3.45-1-.72-.08-1.45-.13-2.17-.19-.17244-.02489-.34756-.02489-.52,0-1.57.23-3.17.08-4.73.46-1.06248.190204-2.053976.663497-2.87,1.37-.310292.29086-.57344.628229-.78,1-.255942.454951-.425464.953346-.5,1.47-.29,1.66,0,2.77,0,4.82c0,.71,0,1.27-.07,1.57-.21-.43-.5-1-.83-1.82-.690587-1.440337-1.207546-2.957644-1.54-4.52-.211348-1.104601-.238381-2.23657-.08-3.35.260609-1.823652,1.281655-3.451513,2.81-4.48c1.205288-.832258,2.565558-1.413774,4-1.71c1.954471-.522653,3.989434-.675275,6-.45.511343.056564,1.025548.083276,1.54.08c1.706984.122627,3.419036-.154725,5-.81c3.06754,4.901045,3.314763,11.058813.65,16.19Z" transform="translate(-140.58-55.77)" fill="#2b2b5f"/><path d="M522.63,127.44c.19,2.19-1.13,3.33-2.64,4.26-1.50178.899173-3.267906,1.252398-5,1-1.643686-.145409-3.245103-.600049-4.72-1.34-.43-.23-.84-.5-1.25-.77-.921989-.56366-1.520006-1.533117-1.61-2.61c0-.46.05-.81.06-1.17.06-2.14.11-4.29.29-6.52c2.475168,1.347057,5.05726,2.487593,7.72,3.41.68594-.819506,1.580925-1.438047,2.59-1.79l4.38-2c0,1.35-.1,2.7-.07,4c0,1.18.14,2.3.25,3.53Z" transform="translate(-140.58-55.77)" fill="#af7242"/><path d="M461.4,314.61c2.439186.24765,4.845678.7504,7.18,1.5v0c1.542357.535194,2.955888,1.386719,4.15,2.5.287833.279932.558335.57715.81.89.10824.149224.205177.306328.29.47-.171394.062543-.349119.106136-.53.13h-15.62c-.161249-.008266-.321678-.02832-.48-.06-.722273-1.628386-1.284907-3.322986-1.68-5.06l.18-.05.32-.08h.16c.875015-.161602,1.760744-.258531,2.65-.29.856949-.028705,1.714816-.012015,2.57.05Z" transform="translate(-140.58-55.77)" fill="#f2d170"/><path d="M445.23,303.063872c.72-1.15,1.84-4.213872,2.66-5.413872s1.58-2.28,2.36-3.35c.168437.245438.318833.502781.45.77l.4.75c.220177.390243.48168.755677.78,1.09.11.87.24,1.77.38,2.68s.27,1.68.42,2.49l-.8.76q-2.46,2.3-7.04,6.029593" transform="translate(-140.58-55.77)" fill="#e4b1b5"/><path id="eIeHQSUJakx67" d="M447,307.16c0,.88,0,1.77,0,2.65-.07219,2.545764-.758318,5.03641-2,7.26-.446894.783649-1.009952,1.495057-1.67,2.11-.152502.114505-.312901.218097-.48.31-.112613-.29616-.202866-.600346-.27-.91q-1.12-7.09-2.22-14.21c-.024859-.279448-.024859-.560552,0-.84.096825-.114497.211664-.212447.34-.29c1.6-.72,3.22-1.43,4.94-2.06.676759,1.691416,1.075246,3.481232,1.18,5.3.029399.233681.089936.462377.18.68Z" transform="translate(-140.58-55.77)" fill="#f2d170"/><path d="M461.4,314.61c-.78,0-1.62-.05-2.51,0s-1.47.08-2.14.15c-.09-1-.19-1.81-.26-2.29-.35-2.68-.74-4.1-1.51-8.36-.09-.51-.16-.91-.2-1.12h.4c.256465-.014374.513535-.014374.77,0c.42,0,3,0,7,0-.14.9-.32,2.1-.52,3.51s-.3,2.25-.45,3.38-.35,2.71-.58,4.73Z" transform="translate(-140.58-55.77)" fill="#e4b1b5"/><path d="M487.25,198c-.489003.083676-.947556.29399-1.33.61-.264616.288983-.548607.55961-.85.81-.233156.181883-.492846.326904-.77.43-.415334.124409-.854849.145012-1.28.06-.681331-.004501-1.340836-.240794-1.87-.67-.470808-.514293-.737524-1.182862-.75-1.88-.093155-1.134398.001448-2.276394.28-3.38c0-.18.25-1.53.38-2.54.39-3,.12-3.88.46-6.14.093228-.569368.153329-1.143667.18-1.72c0-.53,0-.91,0-1.64-.05-2-.17-2.6.25-3.4.079469-.143318.16973-.280381.27-.41.033796.097962.060531.198218.08.3c0,.2.82,3.68.91,4.15.16.74.34,1.47.51,2.21s.25,1.3.42,1.94c.56,2.18,1.18,4.69,1.87,7.07.3,1.02.72,2.45,1.24,4.2Z" transform="translate(-140.58-55.77)" fill="#d1d7ed"/><path d="M522.23,120.23c-1.5.71-2.94,1.35-4.39,2-1.000664.342267-1.889154.950727-2.57,1.76-2.64535-.913882-5.197017-2.07921-7.62-3.48-.887896-.908532-1.346229-2.15258-1.26-3.42-.004897-.311918-.034995-.622931-.09-.93-.05-1-.09-2-.13-3.16.128222.130866.200027.306787.2.49.011234.795446.128947,1.585804.35,2.35.163501.969763.754776,1.814443,1.61,2.3.937799.572115,1.946337,1.019234,3,1.33.37623.190722.827366.156019,1.17-.09-.17338-.509644-.294012-1.035732-.36-1.57.322643.03255.637255.120506.93.26c1.092226.449506,2.317774.449506,3.41,0l1.1-.4-.42,1.62c.194714.272554.555227.36897.86.23c1.07-.24,2.14-.51,3.2-.81.641169-.215073,1.151593-.707136,1.39-1.34.269256-.605912.493204-1.23096.67-1.87.21-.72.35-1.46.56-2.28.041976,1.340629-.061968,2.681847-.31,4-.173668,1.096589-.620755,2.131767-1.3,3.01Z" transform="translate(-140.58-55.77)" fill="#2b2b5f"/><path d="M507.32,320.71c-1.05,0-2.09,0-3.14,0h-10.2c-.048505-1.496793.417371-2.965009,1.32-4.16c3.52-.08,7-.08,10.66,0c.293974.315642.539938.672795.73,1.06.535244.939698.755993,2.025922.63,3.1Z" transform="translate(-140.58-55.77)" fill="#2b2b5f"/><path d="M447.63,192.77c-.059018-.071737-.13008-.132647-.21-.18-.072583-.046937-.154451-.077638-.24-.09-.085233-.143795-.185822-.277914-.3-.4-.277812-.261977-.624815-.438949-1-.51-.054494-.123105-.085039-.255464-.09-.39c0-.31.06-.73.93-1.83.21-.26.5-.6.85-1c.231205.161781.507874.245833.79.24.487596-.023951.934014-.280641,1.2-.69l.85-.15c.80248-.13609,1.616388-.19303,2.43-.17.46671-.002847.931424.061135,1.38.19.46314.13728.901826.3465,1.3.62.461374.300866.875836.668154,1.23,1.09.017694.411308-.005756.823355-.07,1.23-.306029.272947-.641417.511072-1,.71-.797127.41755-1.634804.752621-2.5,1-1.1.39-1,.38-1.19.42-.751603.261359-1.544594.383358-2.34.36-.695562-.022261-1.380762-.174905-2.02-.45Z" transform="translate(-140.58-55.77)" fill="#e4b1b5"/><path d="M482.73,165.09c-.219102-.711658-.310512-1.45648-.27-2.2.080271-.786252.008983-1.580604-.21-2.34-.05697-.25584-.073838-.51898-.05-.78-.026256-1.178668-.173699-2.351509-.44-3.5-.14-.77-.08-1.55-.27-2.33-.195277-1.025837-.305651-2.066026-.33-3.11-.045092-.4163.020447-.837128.19-1.22.28203-.65265.693685-1.241214,1.21-1.73c1.058162-.829351,2.409131-1.190572,3.74-1c.07.52.15,1,.22,1.56.1.71.19,1.41.3,2.11-.582136-.015145-1.150212.180131-1.6.55-.092783.110968-.173254.231674-.24.36-.074171.127591-.128143.265896-.16.41-.08.46-.16.92-.25,1.59c0,.49,0,.77,0,1.05.00035.252148-.026472.503599-.08.75-.076037.275729-.13284.556403-.17.84-.08.37-.16.75-.26,1.33-.1.83-.18,1.47-.27,2.1-.08.37-.16.75-.25,1.31c0,.3,0,.42,0,.54-.229081.748723-.347005,1.527021-.35,2.31-.1.4-.14.63-.18.86.004426.05658.004426.11342,0,.17-.047822.151958-.146753.282688-.28.37Z" transform="translate(-140.58-55.77)" fill="#d1d7ed"/><path d="M451.85,296.91c-.462465-.359616-.867153-.78791-1.2-1.27-.32699-.468516-.579949-.984553-.75-1.53-.272191-.685362-.371778-1.427114-.29-2.16.082088-.828574.386093-1.61968.88-2.29.096706.120926.180495.251637.25.39.15954.354646.234838.741404.22,1.13c0,.06.09.59.27,1.64.264249,1.137415.461257,2.289411.59,3.45.02.27.03.5.03.64Z" transform="translate(-140.58-55.77)" fill="#343383"/><path d="M527,171.39c.165589-.048491.33747-.072082.51-.07.217074.005514.431021.053057.63.14-.065852.246403-.185371.475197-.35.67-.261443.296872-.612492.500481-1,.58l-4.33,1.65c-1.81.68-2.15.8-7.46,2.76-1.74.64-3.48,1.28-5.23,1.9-1.37.5-2.75,1-4.14,1.42-.676448.198587-1.245368.659484-1.58,1.28-.617454,1.084904-1.040489,2.269402-1.25,3.5-.438586,3.24365-.705624,6.508193-.8,9.78c0,1.68-.73,2.12-2,2.73-.485507.221687-1.016839.324525-1.55.3-.577382.10576-1.172076-.047464-1.626466-.419063s-.722596-.92405-.733534-1.510937c-.033417-.332496-.033417-.667504,0-1c0-3,0-5.92,0-8.88-.015654-1.10838-.153147-2.211678-.41-3.29-.3-1.51-.73-3-1.09-4.49-.11-.49-.18-1-.26-1.46.17-.34.46-.29.71-.29.76,0,1.52,0,2.27,0c.53,0,1-.11,1.58-.17.128079-.032997.258441-.056395.39-.07c1.373195-.009888,2.744987-.089993,4.11-.24.791445-.025709,1.5741-.174144,2.32-.44.577903.097797,1.165585.124663,1.75.08c1.53-.19,3.05-.46,4.58-.67c5-.67,5.93-.6,10.76-2.16c1.429965-.46272,2.832261-1.006944,4.2-1.63Z" transform="translate(-140.58-55.77)" fill="#edc565"/><path d="M527.1,171.51c-1.463752.691936-2.970142,1.289816-4.51,1.79-3.428972,1.04871-6.952486,1.758772-10.52,2.12-1.51458.222848-3.040172.363056-4.57.42-.86,0-1.57,0-2.06,0c.962251-.842494,1.821546-1.795774,2.56-2.84c1.239172-1.574493,2.042689-3.447065,2.33-5.43.159113-1.456753-.015288-2.930614-.51-4.31.283781-.051724.571547-.078493.86-.08.375468-.00977.75091.020399,1.12.09.758712.158863,1.49682.40378,2.2.73c2.2,1.06,4.23,2.34,4.24,2.34c1.84,1.17,2.65,1.78,3.94,2.53c1,.58,2,1.12,2,1.12l.66.36c.91.48,1.69.88,2.26,1.16Z" transform="translate(-140.58-55.77)" fill="#a16133"/><path d="M543.53,162.93c-.548651.324563-1.205968.411242-1.82.24-1.51-.41-3.07-.49-4.59-.76-1.75-.31-3.5-.64-5.32-1c.090018-.153732.237555-.265284.41-.31c1.018604-.24603,1.949484-.768568,2.69-1.51.978411-.864619,2.107076-1.542496,3.33-2c1-.2,1.88-.32,2.72-.45c1.564754.058676,3.098949.450748,4.5,1.15.545576.245492,1.010254.640815,1.34,1.14.211499.248579.306311.575887.260422.899024s-.228078.611109-.500422.790976c-.5057.385476-1.036915.736278-1.59,1.05-.43.27-.89.49-1.43.76Z" transform="translate(-140.58-55.77)" fill="#a16133"/><path d="M506.44,156.23c-.192569.031177-.382956.074598-.57.13-.321965.08589-.63127.213647-.92.38-.058146-.828895-.164997-1.653653-.32-2.47-.12-.62-.27-1.1-.53-2.11-.438462-1.868278-.99968-3.705599-1.68-5.5-.235013-.595058-.425536-1.206738-.57-1.83-.11-.4.13-.65.54-.66.224141-.023549.449665.029309.64.15.088638.064491.163445.1461.22.24.34.6.66.84,1,1.57.424873.996382.727088,2.040703.9,3.11.33,1.38.35,1.3.54,2.11.37697,1.604601.627737,3.236253.75,4.88Z" transform="translate(-140.58-55.77)" fill="#edc565"/><path d="M509.37,199.61c.004612.046553.004612.093447,0,.14-.016009.133837-.049633.264973-.1.39-.119857.266391-.289575.507389-.5.71-1.097839.967548-2.326596,1.775498-3.65,2.4-.918964.441488-1.885179.776979-2.88,1-.910493.192255-1.839519.28281-2.77.27-.191492.037734-.388508.037734-.58,0-.146262-.035165-.287413-.088937-.42-.16.019506-.085729.060844-.164958.12-.23.22-.22.62-.13.71-.12c1.92784-.14808,3.818982-.607358,5.6-1.36c1.493514-.664101,2.794097-1.696309,3.78-3h.7Z" transform="translate(-140.58-55.77)" fill="#2b2b5f"/><path d="M498.78,233.55c0,4.23,0,8.33.05,12.43c0,.57.14,1.13.17,1.7.141758,2.065235.11835,4.138492-.07,6.2-.120222,2.362027.051068,4.729869.51,7.05.180074.81686.180074,1.66314,0,2.48-.075058.385604-.115221.777187-.12,1.17.05182,1.715895-.015006,3.43332-.2,5.14-.060714.302648-.080891.61203-.06.92.078407,1.493944.001326,2.991993-.23,4.47-.045212.438839-.045212.881161,0,1.32.058751.792294-.008758,1.588892-.2,2.36-.008892,1.184788-.099104,2.367568-.27,3.54-.08.24-.28,4.81-.48,5.37-.064164.254708-.087787.517937-.07.78c0,.75-.22,3.2-.27,3.68-.14,1.12-.33,2.25-.47,3.37-.12.91-.2,1.82-.31,2.92-.160187-.956674-.160187-1.933326,0-2.89.06-.44.11-.87.16-1.31.036204-.079975.063048-.163864.08-.25.1-1.23.19-2.45.3-3.67c0-.48.23-1.61.22-1.69.022915-1.360595.116374-2.719086.28-4.07-.007992-.837629.058941-1.674295.2-2.5.14-.62.05-3.19.23-3.81.082535-.431454.109421-.871709.08-1.31-.034738-1.054368.035609-2.109574.21-3.15.15-.67,0-4.05.26-5c.04561-.304971.04561-.615029,0-.92c0-1.32,0-2.65,0-4c0-.48.12-1,.14-1.43.055154-.475071.055154-.954929,0-1.43-.15-.87-.37-1.72-.56-2.57-.026286-.084537-.043057-.171743-.05-.26c0-1.67,0-3.35,0-5c.218158-1.473701.245047-2.969409.08-4.45c0-.48-.09-1-.1-1.44c0-3.93,0-7.86,0-11.78c0-.57-.11-1.13-.16-1.7c0-.35-.07-.7-.07-1q0-7.54,0-15.09c0-.33-.11-.7.22-1c.08.08.22.16.23.24c0,.44,0,.89,0,1.33q0,6.75,0,13.5c-.026258.595429.065503,1.190173.27,1.75Z" transform="translate(-140.58-55.77)" fill="#2b2b5f"/><path d="M449.54,187.94c.12-.38.29-.95.53-1.63.58-1.63.86-2,1.74-4.15.581438-1.385273,1.007377-2.830784,1.27-4.31.044862-.308377.044862-.621623,0-.93-.320144-2.050938-.747395-4.083717-1.28-6.09-.93-2.44-2.07-5.71-3.49-9.75-.032432-.357932.071104-.714953.29-1c.095248-.102959.21109-.184729.34-.24.157939-.067611.328205-.101664.5-.1.392172.084138.734311.321835.95.66c1.719947,2.222338,3.283698,4.561283,4.68,7c.55.84,1,1.78,1.45,2.67.29.54.61,1.07.89,1.62.726582,1.319958,1.258741,2.737925,1.58,4.21.229773,1.225994.229773,2.484006,0,3.71-.050978.169994-.087771.343924-.11.52-.057544,1.324546-.241716,2.640545-.55,3.93-.31,1.65-.68,3.29-1,4.94-.012405.124588-.061081.242801-.14.34-.112596.120546-.265703.195319-.43.21-.427074-.411513-.896333-.776864-1.4-1.09-.734736-.519149-1.610397-.801733-2.51-.81-.705455-.019302-1.411282.02084-2.11.12-.52.04-.92.11-1.2.17Z" transform="translate(-140.58-55.77)" fill="#d1d7ed"/><path d="M447.63,192.77c.641279.236983,1.316666.368684,2,.39.981584-.04577,1.949962-.244845,2.87-.59c1.063573-.302212,2.095125-.707465,3.08-1.21.44-.23.79-.45,1-.61-.063228.976238-.203667,1.945936-.42,2.9-.48,2.1-1.26,3.46-2.83,6.19-.360206.798415-1.016292,1.425819-1.83,1.75-.331056.048844-.665368.072246-1,.07-.766803.099227-1.543197.099227-2.31,0-.556615-.055948-1.064356-.342459-1.4-.79-.128938-.260109-.210223-.541218-.24-.83-.037334-.298838-.037334-.601162,0-.9.12-.86.24-1.64.29-1.89.17-.75.05-.4.48-3c.16-.62.25-1.14.31-1.48Z" transform="translate(-140.58-55.77)" fill="#d1d7ed"/><path d="M453,264c-.040059,1.004673.030364,2.010706.21,3c.03263.332535.03263.667465,0,1c0,.53.1,1,.15,1.56c0,.13.06.26.06.39c0,1.05.11,2.09.22,3.13.16,1.64.24,3.29.45,4.94.15,1.11.17,2.25.28,3.38s.23,2.07.36,3.11c.08.64.17,1.29.25,1.93.18,1.42.35,2.85.52,4.27.01467.243112.01467.486888,0,.73-.22879-.644417-.36678-1.317541-.41-2c0-.78-.16-1.55-.26-2.33s-.3-1.7-.4-2.57c-.18-1.59-.32-3.2-.5-4.8-.11-1-.29-2-.4-3s-.1-1.74-.23-2.61c-.19-1.19-.18-2.43-.29-3.64s-.27-2.51-.4-3.76c0-.17,0-.35,0-.52c0-1-.08-1.91-.19-2.87-.19-1.78-.2-3.57-.27-5.36-.008563-.6529-.062022-1.304437-.16-1.95-.093292-.604714-.076353-1.221321.05-1.82.256966-1.283575.374316-2.591182.35-3.9c0-1,0-2.1,0-3.15.021725-.653987-.031962-1.308301-.16-1.95-.065516-.433391-.085625-.872435-.06-1.31q0-11.44,0-22.88c.063453-.830538.006191-1.665889-.17-2.48-.030281-.259118-.030281-.520882,0-.78q0-4.34,0-8.68v-.63v0c0,.27.05.54.06.81-.054476,1.004406.012678,2.011714.2,3c.040248.305346.040248.614654,0,.92c0,1.53,0,3.07,0,4.6-.053462.96002.003579,1.923004.17,2.87.045299.392029.045299.787971,0,1.18q0,10.59,0,21.17c-.04045.653809.010031,1.310069.15,1.95.065327.345932.085496.698878.06,1.05c0,1.44,0,2.89,0,4.34.050577,1.392861-.070331,2.786655-.36,4.15-.074672.329151-.074672.670849,0,1c.131184.658141.184883,1.329374.16,2-.028133.873455.028802,1.747574.17,2.61.05883.608124.082203,1.219158.07,1.83.13.6.22,1.25.32,2.07Z" transform="translate(-140.58-55.77)" fill="#343383"/><path d="M464.91,130.3c.786566-.075218,1.572475.149838,2.2.63-.083503.263475-.212076.51047-.38.73-1.51,1.39-3.11,1.59-5-.31-.06-.06,0-.23-.08-.46.94-.77,2.05-.54,3.26-.59Z" transform="translate(-140.58-55.77)" fill="#af7242"/><path d="M517.83,117.58c-.387594.215049-.796448.389315-1.22.52-.607263.183944-1.235865.288151-1.87.31-.431464.008657-.862911-.018099-1.29-.08-.381522-.03503-.750453-.154591-1.08-.35-.177215-.12305-.335546-.271275-.47-.44-.268129-.298948-.490538-.635932-.66-1c.886589-.489677,1.887472-.73472,2.9-.71.6095.034913,1.2205.034913,1.83,0c.885468-.050542,1.770899.099879,2.59.44.023437.547351-.257408,1.062874-.73,1.34Z" transform="matrix(1 0 0 0.999564-140.58-55.77)" fill="#a16133"/><path d="M540.05,175.28c-1-.14-1.82-.31-2.68-.45-3.561671-.621256-7.018652-1.7388-10.27-3.32-.12-.06-2-1-2.26-1.17-.87-.5-1.78-.94-2.62-1.48-2.754333-1.762014-5.605493-3.367878-8.54-4.81-.588012-.37052-1.233451-.640861-1.91-.8-.662534-.104976-1.337466-.104976-2,0l-3.6.35c-.188085-.212312-.330986-.460688-.42-.73-.064639-.183967-.10498-.375587-.12-.57-.25-1.81-.51-3.62-.68-5.55.288831-.166147.598109-.293893.92-.38.76-.17,1.52-.33,2.28-.52c1.417431-.261335,2.860648-.355312,4.3-.28.819269.14273,1.622952.363743,2.4.66c1,.5,2.09.89,3.07,1.45c2.386852,1.242744,4.949865,2.112819,7.6,2.58c1.7.37,3.4.67,5.11,1c.37.07.77,0,1.34.14c1.83.38,3.47.69,5.11,1c1.43.26,2.9.34,4.31.73.331398.050798.668602.050798,1,0c.374069-.033044.741291-.120638,1.09-.26.459295.370926.893574.771799,1.3,1.2c1.835893,2.137984,3.162554,4.664794,3.88,7.39.139527.545929.213383,1.106562.22,1.67.027456.36578-.020187.733311-.14,1.08-.155648.39739-.418794.743635-.76,1-1.59.13-3.3.19-5.13.16-.94.01-1.85-.03-2.8-.09Z" transform="translate(-140.58-55.77)" fill="#af7242"/><path d="M509.19,106.53h3.44c.387216,0,.758573.153821,1.032376.427624s.427624.64516.427624,1.032376v1.56c0,1.496692-1.213308,2.71-2.71,2.71h-1.64c-.745258,0-1.459993-.296053-1.98697-.82303s-.82303-1.241712-.82303-1.98697v-.66c-.002674-.600205.234574-1.176599.658987-1.601013s1.000808-.661661,1.601013-.658987Z" transform="matrix(.984929-.172961 0.172961 0.984929-151.81 34.15)" fill="none" stroke="#edc565" stroke-width="0.9" stroke-miterlimit="10"/><path d="M518.69,106.53h1.64c.718737,0,1.408036.285517,1.916259.793741s.793741,1.197522.793741,1.916259v1.56c0,.387216-.153821.758573-.427624,1.032376s-.64516.427624-1.032376.427624h-3.44c-1.242641,0-2.25-1.007359-2.25-2.25v-.66c-.002657-.74526.290851-1.461051.815954-1.989904s1.238786-.827449,1.984046-.830096Z" transform="matrix(-.984929-.172961 0.172961-.984929 871.59 251.18)" fill="none" stroke="#edc565" stroke-width="0.9" stroke-miterlimit="10"/><rect width="1.65" height="0.66" rx="0" ry="0" transform="translate(373.57 52.3)" fill="none" stroke="#edc565" stroke-miterlimit="10"/><path d="" transform="translate(-140.58-55.77)" fill="#d1d7ed"/><path d="M458.5,124c.08635-.083241.183972-.153933.29-.21.237127-.122358.504283-.174401.77-.15.465238.019734.929171.063124,1.39.13.153125.017261.303976.050784.45.1.160439.062974.311771.147047.45.25.173099.132204.327796.286901.46.46-.44,0-.81,0-1.09,0-.425917-.019132-.850143-.065897-1.27-.14-.339108-.058247-.673377-.141814-1-.25-.16-.1-.32-.19-.45-.19Z" transform="translate(-140.58-55.77)" fill="#565ca6"/><path d="M469.49,124.09c-.085359-.091453-.187119-.166077-.3-.22-.235979-.115238-.497933-.166939-.76-.15-.44,0-1.19.11-1.39.13-.15276.019403-.3034.052879-.45.1-.161504.060695-.313144.14494-.45.25-.178217.130211-.333651.289024-.46.47.44,0,.81,0,1.09,0c.422731-.01066.843997-.054124,1.26-.13.33855-.060874.672633-.144395,1-.25Z" transform="translate(-140.58-55.77)" fill="#565ca6"/><rect width="33.8" height="38.03" rx="0" ry="0" transform="translate(233.47 126.19)" fill="#7bb5af" stroke="#9dc0c0" stroke-width="4" stroke-linejoin="round"/><path d="M409.84,183.62v10.44c0,1.72,0,3.45,0,5.17l-4,.16L376,217.67l-4,.77v-3.6l33.83-19.94v-6L376,207.23l-4,.77v-3.6l33.83-19.94Z" transform="translate(-140.58-55.77)" fill="#afd2cf"/><polygon points="141.82,89.46 98.95,89.46 133.53,30.57 176.4,30.57 141.82,89.46" fill="#c9e8e2" stroke="#effdfd" stroke-width="4" stroke-miterlimit="10"/><polygon points="184.53,89.46 141.66,89.46 176.24,30.57 219.12,30.57 184.53,89.46" fill="#c9e8e2" stroke="#effdfd" stroke-width="4" stroke-miterlimit="10"/><polygon points="228.19,89.46 185.31,89.46 219.9,30.57 262.77,30.57 228.19,89.46" fill="#c9e8e2" stroke="#effdfd" stroke-width="4" stroke-miterlimit="10"/><polyline points="244.49,58.75 203.35,58.75 200.83,58.75 159.69,58.75 158.12,58.75 116.98,58.75" fill="none" stroke="#effdfd" stroke-width="4" stroke-miterlimit="10"/><g id="eIeHQSUJakx99" transform="translate(0 0.000001)"><polygon points="106.66,91.56 100.98,91.56 177.2,28.44 182.88,28.44 106.66,91.56" fill="#eaf7f5"/><polygon points="118.95,91.56 117.3,91.56 193.53,28.44 195.18,28.44 118.95,91.56" fill="#eaf7f5"/><polygon points="147.82,91.56 144.04,91.56 220.26,28.44 224.04,28.44 147.82,91.56" fill="#eaf7f5"/><polygon points="180.45,91.57 172,91.56 248.22,28.44 256.68,28.45 180.45,91.57" fill="#eaf7f5"/></g>
<script><![CDATA[
!function(t,n){"object"==typeof exports&&"undefined"!=typeof module?module.exports=n():"function"==typeof __SVGATOR_DEFINE__&&__SVGATOR_DEFINE__.amd?__SVGATOR_DEFINE__(n):((t="undefined"!=typeof globalThis?globalThis:t||self).__SVGATOR_PLAYER__=t.__SVGATOR_PLAYER__||{},t.__SVGATOR_PLAYER__["5c7f360c"]=n())}(this,(function(){"use strict";function t(t,n){var e=Object.keys(t);if(Object.getOwnPropertySymbols){var r=Object.getOwnPropertySymbols(t);n&&(r=r.filter((function(n){return Object.getOwnPropertyDescriptor(t,n).enumerable}))),e.push.apply(e,r)}return e}function n(n){for(var e=1;e<arguments.length;e++){var r=null!=arguments[e]?arguments[e]:{};e%2?t(Object(r),!0).forEach((function(t){o(n,t,r[t])})):Object.getOwnPropertyDescriptors?Object.defineProperties(n,Object.getOwnPropertyDescriptors(r)):t(Object(r)).forEach((function(t){Object.defineProperty(n,t,Object.getOwnPropertyDescriptor(r,t))}))}return n}function e(t){return(e="function"==typeof Symbol&&"symbol"==typeof Symbol.iterator?function(t){return typeof t}:function(t){return t&&"function"==typeof Symbol&&t.constructor===Symbol&&t!==Symbol.prototype?"symbol":typeof t})(t)}function r(t,n){if(!(t instanceof n))throw new TypeError("Cannot call a class as a function")}function i(t,n){for(var e=0;e<n.length;e++){var r=n[e];r.enumerable=r.enumerable||!1,r.configurable=!0,"value"in r&&(r.writable=!0),Object.defineProperty(t,r.key,r)}}function u(t,n,e){return n&&i(t.prototype,n),e&&i(t,e),t}function o(t,n,e){return n in t?Object.defineProperty(t,n,{value:e,enumerable:!0,configurable:!0,writable:!0}):t[n]=e,t}function a(t){return(a=Object.setPrototypeOf?Object.getPrototypeOf:function(t){return t.__proto__||Object.getPrototypeOf(t)})(t)}function l(t,n){return(l=Object.setPrototypeOf||function(t,n){return t.__proto__=n,t})(t,n)}function s(){if("undefined"==typeof Reflect||!Reflect.construct)return!1;if(Reflect.construct.sham)return!1;if("function"==typeof Proxy)return!0;try{return Boolean.prototype.valueOf.call(Reflect.construct(Boolean,[],(function(){}))),!0}catch(t){return!1}}function f(t,n,e){return(f=s()?Reflect.construct:function(t,n,e){var r=[null];r.push.apply(r,n);var i=new(Function.bind.apply(t,r));return e&&l(i,e.prototype),i}).apply(null,arguments)}function c(t,n){if(n&&("object"==typeof n||"function"==typeof n))return n;if(void 0!==n)throw new TypeError("Derived constructors may only return object or undefined");return function(t){if(void 0===t)throw new ReferenceError("this hasn't been initialised - super() hasn't been called");return t}(t)}function h(t,n,e){return(h="undefined"!=typeof Reflect&&Reflect.get?Reflect.get:function(t,n,e){var r=function(t,n){for(;!Object.prototype.hasOwnProperty.call(t,n)&&null!==(t=a(t)););return t}(t,n);if(r){var i=Object.getOwnPropertyDescriptor(r,n);return i.get?i.get.call(e):i.value}})(t,n,e||t)}function v(t){return function(t){if(Array.isArray(t))return y(t)}(t)||function(t){if("undefined"!=typeof Symbol&&null!=t[Symbol.iterator]||null!=t["@@iterator"])return Array.from(t)}(t)||function(t,n){if(!t)return;if("string"==typeof t)return y(t,n);var e=Object.prototype.toString.call(t).slice(8,-1);"Object"===e&&t.constructor&&(e=t.constructor.name);if("Map"===e||"Set"===e)return Array.from(t);if("Arguments"===e||/^(?:Ui|I)nt(?:8|16|32)(?:Clamped)?Array$/.test(e))return y(t,n)}(t)||function(){throw new TypeError("Invalid attempt to spread non-iterable instance.\nIn order to be iterable, non-array objects must have a [Symbol.iterator]() method.")}()}function y(t,n){(null==n||n>t.length)&&(n=t.length);for(var e=0,r=new Array(n);e<n;e++)r[e]=t[e];return r}Number.isInteger||(Number.isInteger=function(t){return"number"==typeof t&&isFinite(t)&&Math.floor(t)===t}),Number.EPSILON||(Number.EPSILON=2220446049250313e-31);var g=d(Math.pow(10,-6));function d(t){var n=arguments.length>1&&void 0!==arguments[1]?arguments[1]:6;if(Number.isInteger(t))return t;var e=Math.pow(10,n);return Math.round((+t+Number.EPSILON)*e)/e}function p(t,n){var e=arguments.length>2&&void 0!==arguments[2]?arguments[2]:g;return Math.abs(t-n)<e}var m=Math.PI/180;function b(t){return t}function w(t,n,e){var r=1-e;return 3*e*r*(t*r+n*e)+e*e*e}function A(){var t=arguments.length>0&&void 0!==arguments[0]?arguments[0]:0,n=arguments.length>1&&void 0!==arguments[1]?arguments[1]:0,e=arguments.length>2&&void 0!==arguments[2]?arguments[2]:1,r=arguments.length>3&&void 0!==arguments[3]?arguments[3]:1;return t<0||t>1||e<0||e>1?null:p(t,n)&&p(e,r)?b:function(i){if(i<=0)return t>0?i*n/t:0===n&&e>0?i*r/e:0;if(i>=1)return e<1?1+(i-1)*(r-1)/(e-1):1===e&&t<1?1+(i-1)*(n-1)/(t-1):1;for(var u,o=0,a=1;o<a;){var l=w(t,e,u=(o+a)/2);if(p(i,l))break;l<i?o=u:a=u}return w(n,r,u)}}function _(){return 1}function x(t){return 1===t?1:0}function k(){var t=arguments.length>0&&void 0!==arguments[0]?arguments[0]:1,n=arguments.length>1&&void 0!==arguments[1]?arguments[1]:0;if(1===t){if(0===n)return x;if(1===n)return _}var e=1/t;return function(t){return t>=1?1:(t+=n*e)-t%e}}var S=Math.sin,O=Math.cos,j=Math.acos,E=Math.asin,M=Math.tan,P=Math.atan2,I=Math.PI/180,R=180/Math.PI,F=Math.sqrt,N=function(){function t(){var n=arguments.length>0&&void 0!==arguments[0]?arguments[0]:1,e=arguments.length>1&&void 0!==arguments[1]?arguments[1]:0,i=arguments.length>2&&void 0!==arguments[2]?arguments[2]:0,u=arguments.length>3&&void 0!==arguments[3]?arguments[3]:1,o=arguments.length>4&&void 0!==arguments[4]?arguments[4]:0,a=arguments.length>5&&void 0!==arguments[5]?arguments[5]:0;r(this,t),this.m=[n,e,i,u,o,a],this.i=null,this.w=null,this.s=null}return u(t,[{key:"determinant",get:function(){var t=this.m;return t[0]*t[3]-t[1]*t[2]}},{key:"isIdentity",get:function(){if(null===this.i){var t=this.m;this.i=1===t[0]&&0===t[1]&&0===t[2]&&1===t[3]&&0===t[4]&&0===t[5]}return this.i}},{key:"point",value:function(t,n){var e=this.m;return{x:e[0]*t+e[2]*n+e[4],y:e[1]*t+e[3]*n+e[5]}}},{key:"translateSelf",value:function(){var t=arguments.length>0&&void 0!==arguments[0]?arguments[0]:0,n=arguments.length>1&&void 0!==arguments[1]?arguments[1]:0;if(!t&&!n)return this;var e=this.m;return e[4]+=e[0]*t+e[2]*n,e[5]+=e[1]*t+e[3]*n,this.w=this.s=this.i=null,this}},{key:"rotateSelf",value:function(){var t=arguments.length>0&&void 0!==arguments[0]?arguments[0]:0;if(t%=360){var n=S(t*=I),e=O(t),r=this.m,i=r[0],u=r[1];r[0]=i*e+r[2]*n,r[1]=u*e+r[3]*n,r[2]=r[2]*e-i*n,r[3]=r[3]*e-u*n,this.w=this.s=this.i=null}return this}},{key:"scaleSelf",value:function(){var t=arguments.length>0&&void 0!==arguments[0]?arguments[0]:1,n=arguments.length>1&&void 0!==arguments[1]?arguments[1]:1;if(1!==t||1!==n){var e=this.m;e[0]*=t,e[1]*=t,e[2]*=n,e[3]*=n,this.w=this.s=this.i=null}return this}},{key:"skewSelf",value:function(t,n){if(n%=360,(t%=360)||n){var e=this.m,r=e[0],i=e[1],u=e[2],o=e[3];t&&(t=M(t*I),e[2]+=r*t,e[3]+=i*t),n&&(n=M(n*I),e[0]+=u*n,e[1]+=o*n),this.w=this.s=this.i=null}return this}},{key:"resetSelf",value:function(){var t=arguments.length>0&&void 0!==arguments[0]?arguments[0]:1,n=arguments.length>1&&void 0!==arguments[1]?arguments[1]:0,e=arguments.length>2&&void 0!==arguments[2]?arguments[2]:0,r=arguments.length>3&&void 0!==arguments[3]?arguments[3]:1,i=arguments.length>4&&void 0!==arguments[4]?arguments[4]:0,u=arguments.length>5&&void 0!==arguments[5]?arguments[5]:0,o=this.m;return o[0]=t,o[1]=n,o[2]=e,o[3]=r,o[4]=i,o[5]=u,this.w=this.s=this.i=null,this}},{key:"recomposeSelf",value:function(){var t=arguments.length>0&&void 0!==arguments[0]?arguments[0]:null,n=arguments.length>1&&void 0!==arguments[1]?arguments[1]:null,e=arguments.length>2&&void 0!==arguments[2]?arguments[2]:null,r=arguments.length>3&&void 0!==arguments[3]?arguments[3]:null,i=arguments.length>4&&void 0!==arguments[4]?arguments[4]:null;return this.isIdentity||this.resetSelf(),t&&(t.x||t.y)&&this.translateSelf(t.x,t.y),n&&this.rotateSelf(n),e&&(e.x&&this.skewSelf(e.x,0),e.y&&this.skewSelf(0,e.y)),!r||1===r.x&&1===r.y||this.scaleSelf(r.x,r.y),i&&(i.x||i.y)&&this.translateSelf(i.x,i.y),this}},{key:"decompose",value:function(){var t=arguments.length>0&&void 0!==arguments[0]?arguments[0]:0,n=arguments.length>1&&void 0!==arguments[1]?arguments[1]:0,e=this.m,r=e[0]*e[0]+e[1]*e[1],i=[[e[0],e[1]],[e[2],e[3]]],u=F(r);if(0===u)return{origin:{x:d(e[4]),y:d(e[5])},translate:{x:d(t),y:d(n)},scale:{x:0,y:0},skew:{x:0,y:0},rotate:0};i[0][0]/=u,i[0][1]/=u;var o=e[0]*e[3]-e[1]*e[2]<0;o&&(u=-u);var a=i[0][0]*i[1][0]+i[0][1]*i[1][1];i[1][0]-=i[0][0]*a,i[1][1]-=i[0][1]*a;var l=F(i[1][0]*i[1][0]+i[1][1]*i[1][1]);if(0===l)return{origin:{x:d(e[4]),y:d(e[5])},translate:{x:d(t),y:d(n)},scale:{x:d(u),y:0},skew:{x:0,y:0},rotate:0};i[1][0]/=l,i[1][1]/=l,a/=l;var s=0;return i[1][1]<0?(s=j(i[1][1])*R,i[0][1]<0&&(s=360-s)):s=E(i[0][1])*R,o&&(s=-s),a=P(a,F(i[0][0]*i[0][0]+i[0][1]*i[0][1]))*R,o&&(a=-a),{origin:{x:d(e[4]),y:d(e[5])},translate:{x:d(t),y:d(n)},scale:{x:d(u),y:d(l)},skew:{x:d(a),y:0},rotate:d(s)}}},{key:"clone",value:function(){var t=this.m;return new this.constructor(t[0],t[1],t[2],t[3],t[4],t[5])}},{key:"toString",value:function(){var t=arguments.length>0&&void 0!==arguments[0]?arguments[0]:" ";if(null===this.s){var n=this.m.map((function(t){return d(t)}));1===n[0]&&0===n[1]&&0===n[2]&&1===n[3]?this.s="translate("+n[4]+t+n[5]+")":this.s="matrix("+n.join(t)+")"}return this.s}}],[{key:"create",value:function(t){return t?Array.isArray(t)?f(this,v(t)):t instanceof this?t.clone():(new this).recomposeSelf(t.origin,t.rotate,t.skew,t.scale,t.translate):new this}}]),t}();function T(t,n,e){return t>=.5?e:n}function B(t,n,e){return 0===t||n===e?n:t*(e-n)+n}function q(t,n,e){var r=B(t,n,e);return r<=0?0:r}function D(t,n,e){var r=B(t,n,e);return r<=0?0:r>=1?1:r}function L(t,n,e){return 0===t?n:1===t?e:{x:B(t,n.x,e.x),y:B(t,n.y,e.y)}}function C(t,n,e){var r=function(t,n,e){return Math.round(B(t,n,e))}(t,n,e);return r<=0?0:r>=255?255:r}function V(t,n,e){return 0===t?n:1===t?e:{r:C(t,n.r,e.r),g:C(t,n.g,e.g),b:C(t,n.b,e.b),a:B(t,null==n.a?1:n.a,null==e.a?1:e.a)}}function G(t,n){for(var e=[],r=0;r<t;r++)e.push(n);return e}function z(t,n){if(--n<=0)return t;var e=(t=Object.assign([],t)).length;do{for(var r=0;r<e;r++)t.push(t[r])}while(--n>0);return t}var Y,$=function(){function t(n){r(this,t),this.list=n,this.length=n.length}return u(t,[{key:"setAttribute",value:function(t,n){for(var e=this.list,r=0;r<this.length;r++)e[r].setAttribute(t,n)}},{key:"removeAttribute",value:function(t){for(var n=this.list,e=0;e<this.length;e++)n[e].removeAttribute(t)}},{key:"style",value:function(t,n){for(var e=this.list,r=0;r<this.length;r++)e[r].style[t]=n}}]),t}(),U=/-./g,Q=function(t,n){return n.toUpperCase()};function H(t){return"function"==typeof t?t:T}function J(t){return t?"function"==typeof t?t:Array.isArray(t)?function(t){var n=arguments.length>1&&void 0!==arguments[1]?arguments[1]:b;if(!Array.isArray(t))return n;switch(t.length){case 1:return k(t[0])||n;case 2:return k(t[0],t[1])||n;case 4:return A(t[0],t[1],t[2],t[3])||n}return n}(t,null):function(t,n){var e=arguments.length>2&&void 0!==arguments[2]?arguments[2]:b;switch(t){case"linear":return b;case"steps":return k(n.steps||1,n.jump||0)||e;case"bezier":case"cubic-bezier":return A(n.x1||0,n.y1||0,n.x2||0,n.y2||0)||e}return e}(t.type,t.value,null):null}function Z(t,n,e){var r=arguments.length>3&&void 0!==arguments[3]&&arguments[3],i=n.length-1;if(t<=n[0].t)return r?[0,0,n[0].v]:n[0].v;if(t>=n[i].t)return r?[i,1,n[i].v]:n[i].v;var u,o=n[0],a=null;for(u=1;u<=i;u++){if(!(t>n[u].t)){a=n[u];break}o=n[u]}return null==a?r?[i,1,n[i].v]:n[i].v:o.t===a.t?r?[u,1,a.v]:a.v:(t=(t-o.t)/(a.t-o.t),o.e&&(t=o.e(t)),r?[u,t,e(t,o.v,a.v)]:e(t,o.v,a.v))}function K(t,n){var e=arguments.length>2&&void 0!==arguments[2]?arguments[2]:null;return t&&t.length?"function"!=typeof n?null:("function"!=typeof e&&(e=null),function(r){var i=Z(r,t,n);return null!=i&&e&&(i=e(i)),i}):null}function W(t,n){return t.t-n.t}function X(t,n,r,i,u){var o,a="@"===r[0],l="#"===r[0],s=Y[r],f=T;switch(a?(o=r.substr(1),r=o.replace(U,Q)):l&&(r=r.substr(1)),e(s)){case"function":if(f=s(i,u,Z,J,r,a,n,t),l)return f;break;case"string":f=K(i,H(s));break;case"object":if((f=K(i,H(s.i),s.f))&&"function"==typeof s.u)return s.u(n,f,r,a,t)}return f?function(t,n,e){if(arguments.length>3&&void 0!==arguments[3]&&arguments[3])return t instanceof $?function(r){return t.style(n,e(r))}:function(r){return t.style[n]=e(r)};if(Array.isArray(n)){var r=n.length;return function(i){var u=e(i);if(null==u)for(var o=0;o<r;o++)t[o].removeAttribute(n);else for(var a=0;a<r;a++)t[a].setAttribute(n,u)}}return function(r){var i=e(r);null==i?t.removeAttribute(n):t.setAttribute(n,i)}}(n,r,f,a):null}function tt(t,n,r,i){if(!i||"object"!==e(i))return null;var u=null,o=null;return Array.isArray(i)?o=function(t){if(!t||!t.length)return null;for(var n=0;n<t.length;n++)t[n].e&&(t[n].e=J(t[n].e));return t.sort(W)}(i):(o=i.keys,u=i.data||null),o?X(t,n,r,o,u):null}function nt(t,n,e){if(!e)return null;var r=[];for(var i in e)if(e.hasOwnProperty(i)){var u=tt(t,n,i,e[i]);u&&r.push(u)}return r.length?r:null}function et(t,n){if(!n.settings.duration||n.settings.duration<0)return null;var e,r,i,u,o,a=function(t,n){if(!n)return null;var e=[];if(Array.isArray(n))for(var r=n.length,i=0;i<r;i++){var u=n[i];if(2===u.length){var o=null;if("string"==typeof u[0])o=t.getElementById(u[0]);else if(Array.isArray(u[0])){o=[];for(var a=0;a<u[0].length;a++)if("string"==typeof u[0][a]){var l=t.getElementById(u[0][a]);l&&o.push(l)}o=o.length?1===o.length?o[0]:new $(o):null}if(o){var s=nt(t,o,u[1]);s&&(e=e.concat(s))}}}else for(var f in n)if(n.hasOwnProperty(f)){var c=t.getElementById(f);if(c){var h=nt(t,c,n[f]);h&&(e=e.concat(h))}}return e.length?e:null}(t,n.elements);return a?(e=a,r=n.settings,i=r.duration,u=e.length,o=null,function(t,n){var a=r.iterations||1/0,l=(r.alternate&&a%2==0)^r.direction>0?i:0,s=t%i,f=1+(t-s)/i;n*=r.direction,r.alternate&&f%2==0&&(n=-n);var c=!1;if(f>a)s=l,c=!0,-1===r.fill&&(s=r.direction>0?0:i);else if(n<0&&(s=i-s),s===o)return!1;o=s;for(var h=0;h<u;h++)e[h](s);return c}):null}function rt(t,n){if(Y=n,!t||!t.root||!Array.isArray(t.animations))return null;var e=function(t){for(var n=document.getElementsByTagName("svg"),e=0;e<n.length;e++)if(n[e].id===t.root&&!n[e].svgatorAnimation)return n[e].svgatorAnimation=!0,n[e];return null}(t);if(!e)return null;var r=t.animations.map((function(t){return et(e,t)})).filter((function(t){return!!t}));return r.length?{svg:e,animations:r,animationSettings:t.animationSettings,options:t.options||void 0}:null}function it(t){var n=arguments.length>1&&void 0!==arguments[1]?arguments[1]:null,e=arguments.length>2&&void 0!==arguments[2]?arguments[2]:Number,r=arguments.length>3&&void 0!==arguments[3]?arguments[3]:"undefined"!=typeof BigInt&&BigInt,i="0x"+(t.replace(/[^0-9a-fA-F]+/g,"")||27);return n&&r&&e.isSafeInteger&&!e.isSafeInteger(+i)?e(r(i))%n+n:+i}function ut(t,n,e){return!t||!e||n>t.length?t:t.substring(0,n)+ut(t.substring(n+1),e,e)}function ot(t){var n=arguments.length>1&&void 0!==arguments[1]?arguments[1]:27;return!t||t%n?t%n:[0,1].includes(n)?n:ot(t/n,n)}function at(t,n,e){if(t&&t.length){var r=it(e),i=ot(r)+5,u=ut(t,ot(r,5),i);return u=u.replace(/\x7c$/g,"==").replace(/\x2f$/g,"="),u=function(t,n,e){var r=+("0x"+t.substring(0,4));t=t.substring(4);for(var i=it(n,r)%r+e%27,u=[],o=0;o<t.length;o+=2)if("|"!==t[o]){var a=+("0x"+t[o]+t[o+1])-i;u.push(a)}else{var l=+("0x"+t.substring(o+1,o+1+4))-i;o+=3,u.push(l)}return String.fromCharCode.apply(String,u)}(u=(u=atob(u)).replace(/[\x41-\x5A]/g,""),n,r),u=JSON.parse(u)}}var lt=[{key:"alternate",def:!1},{key:"fill",def:1},{key:"iterations",def:0},{key:"direction",def:1},{key:"speed",def:1},{key:"fps",def:100}],st=function(){function t(n,e){var i=this,u=arguments.length>2&&void 0!==arguments[2]?arguments[2]:null;r(this,t),this._id=0,this._running=!1,this._rollingBack=!1,this._animations=n,this._settings=e,(!u||u<"2022-05-02")&&delete this._settings.speed,lt.forEach((function(t){i._settings[t.key]=i._settings[t.key]||t.def})),this.duration=e.duration,this.offset=e.offset||0,this.rollbackStartOffset=0}return u(t,[{key:"alternate",get:function(){return this._settings.alternate}},{key:"fill",get:function(){return this._settings.fill}},{key:"iterations",get:function(){return this._settings.iterations}},{key:"direction",get:function(){return this._settings.direction}},{key:"speed",get:function(){return this._settings.speed}},{key:"fps",get:function(){return this._settings.fps}},{key:"maxFiniteDuration",get:function(){return this.iterations>0?this.iterations*this.duration:this.duration}},{key:"_apply",value:function(t){for(var n=arguments.length>1&&void 0!==arguments[1]?arguments[1]:{},e=this._animations,r=e.length,i=0,u=0;u<r;u++)n[u]?i++:(n[u]=e[u](t,1),n[u]&&i++);return i}},{key:"_rollback",value:function(t){var n=this,e=1/0,r=null;this.rollbackStartOffset=t,this._rollingBack=!0,this._running=!0;this._id=window.requestAnimationFrame((function i(u){if(n._rollingBack){null==r&&(r=u);var o=Math.round(t-(u-r)*n.speed);if(o>n.duration&&e!==1/0){var a=!!n.alternate&&o/n.duration%2>1,l=o%n.duration;o=(l+=a?n.duration:0)||n.duration}var s=(n.fps?1e3/n.fps:0)*n.speed,f=Math.max(0,o);f<=e-s&&(n.offset=f,e=f,n._apply(f));var c=n.iterations>0&&-1===n.fill&&o>=n.maxFiniteDuration;(o<=0||n.offset<o||c)&&n.stop(),n._id=window.requestAnimationFrame(i)}}))}},{key:"_start",value:function(){var t=this,n=arguments.length>0&&void 0!==arguments[0]?arguments[0]:0,e=-1/0,r=null,i={};this._running=!0;var u=function u(o){null==r&&(r=o);var a=Math.round((o-r)*t.speed+n),l=(t.fps?1e3/t.fps:0)*t.speed;if(a>=e+l&&!t._rollingBack&&(t.offset=a,e=a,t._apply(a,i)===t._animations.length))return void t.pause(!0);t._id=window.requestAnimationFrame(u)};this._id=window.requestAnimationFrame(u)}},{key:"_pause",value:function(){this._id&&window.cancelAnimationFrame(this._id),this._running=!1}},{key:"play",value:function(){if(!this._running)return this._rollingBack?this._rollback(this.offset):this._start(this.offset)}},{key:"stop",value:function(){this._pause(),this.offset=0,this.rollbackStartOffset=0,this._rollingBack=!1,this._apply(0)}},{key:"reachedToEnd",value:function(){return this.iterations>0&&this.offset>=this.iterations*this.duration}},{key:"restart",value:function(){var t=arguments.length>0&&void 0!==arguments[0]&&arguments[0];this.stop(t),this.play(t)}},{key:"pause",value:function(){this._pause()}},{key:"reverse",value:function(){this.direction=-this.direction}}],[{key:"build",value:function(t,n){delete t.animationSettings,t.options=at(t.options,t.root,"5c7f360c"),t.animations.map((function(n){n.settings=at(n.s,t.root,"5c7f360c"),delete n.s,t.animationSettings||(t.animationSettings=n.settings)}));var e=t.version;if(!(t=rt(t,n)))return null;var r=t.options||{},i=new this(t.animations,t.animationSettings,e);return{el:t.svg,options:r,player:i}}},{key:"push",value:function(t){return this.build(t)}},{key:"init",value:function(){var t=this,n=window.__SVGATOR_PLAYER__&&window.__SVGATOR_PLAYER__["5c7f360c"];Array.isArray(n)&&n.splice(0).forEach((function(n){return t.build(n)}))}}]),t}();function ft(t){return d(t)+""}function ct(t){var n=arguments.length>1&&void 0!==arguments[1]?arguments[1]:" ";return t&&t.length?t.map(ft).join(n):""}function ht(t){if(!t)return"transparent";if(null==t.a||t.a>=1){var n=function(t){return 1===(t=parseInt(t).toString(16)).length?"0"+t:t},e=function(t){return t.charAt(0)===t.charAt(1)},r=n(t.r),i=n(t.g),u=n(t.b);return e(r)&&e(i)&&e(u)&&(r=r.charAt(0),i=i.charAt(0),u=u.charAt(0)),"#"+r+i+u}return"rgba("+t.r+","+t.g+","+t.b+","+t.a+")"}function vt(t){return t?"url(#"+t+")":"none"}!function(){for(var t=0,n=["ms","moz","webkit","o"],e=0;e<n.length&&!window.requestAnimationFrame;++e)window.requestAnimationFrame=window[n[e]+"RequestAnimationFrame"],window.cancelAnimationFrame=window[n[e]+"CancelAnimationFrame"]||window[n[e]+"CancelRequestAnimationFrame"];window.requestAnimationFrame||(window.requestAnimationFrame=function(n){var e=Date.now(),r=Math.max(0,16-(e-t)),i=window.setTimeout((function(){n(e+r)}),r);return t=e+r,i},window.cancelAnimationFrame=window.clearTimeout)}();var yt={f:null,i:function(t,n,e){return 0===t?n:1===t?e:{x:q(t,n.x,e.x),y:q(t,n.y,e.y)}},u:function(t,n){return function(e){var r=n(e);t.setAttribute("rx",ft(r.x)),t.setAttribute("ry",ft(r.y))}}},gt={f:null,i:function(t,n,e){return 0===t?n:1===t?e:{width:q(t,n.width,e.width),height:q(t,n.height,e.height)}},u:function(t,n){return function(e){var r=n(e);t.setAttribute("width",ft(r.width)),t.setAttribute("height",ft(r.height))}}};Object.freeze({M:2,L:2,Z:0,H:1,V:1,C:6,Q:4,T:2,S:4,A:7});var dt={},pt=null;function mt(t){var n=function(){if(pt)return pt;if("object"!==("undefined"==typeof document?"undefined":e(document))||!document.createElementNS)return{};var t=document.createElementNS("http://www.w3.org/2000/svg","svg");return t&&t.style?(t.style.position="absolute",t.style.opacity="0.01",t.style.zIndex="-9999",t.style.left="-9999px",t.style.width="1px",t.style.height="1px",pt={svg:t}):{}}().svg;if(!n)return function(t){return null};var r=document.createElementNS(n.namespaceURI,"path");r.setAttributeNS(null,"d",t),r.setAttributeNS(null,"fill","none"),r.setAttributeNS(null,"stroke","none"),n.appendChild(r);var i=r.getTotalLength();return function(t){var n=r.getPointAtLength(i*t);return{x:n.x,y:n.y}}}function bt(t){return dt[t]?dt[t]:dt[t]=mt(t)}function wt(t,n,e,r){if(!t||!r)return!1;var i=["M",t.x,t.y];if(n&&e&&(i.push("C"),i.push(n.x),i.push(n.y),i.push(e.x),i.push(e.y)),n?!e:e){var u=n||e;i.push("Q"),i.push(u.x),i.push(u.y)}return n||e||i.push("L"),i.push(r.x),i.push(r.y),i.join(" ")}function At(t,n,e,r){var i=arguments.length>4&&void 0!==arguments[4]?arguments[4]:1,u=wt(t,n,e,r),o=bt(u);try{return o(i)}catch(t){return null}}function _t(t,n,e){return t+(n-t)*e}function xt(t,n,e){var r=arguments.length>3&&void 0!==arguments[3]&&arguments[3],i={x:_t(t.x,n.x,e),y:_t(t.y,n.y,e)};return r&&(i.a=kt(t,n)),i}function kt(t,n){return Math.atan2(n.y-t.y,n.x-t.x)}function St(t,n,e,r){var i=1-r;return i*i*t+2*i*r*n+r*r*e}function Ot(t,n,e,r){return 2*(1-r)*(n-t)+2*r*(e-n)}function jt(t,n,e,r){var i=arguments.length>4&&void 0!==arguments[4]&&arguments[4],u=At(t,n,null,e,r);return u||(u={x:St(t.x,n.x,e.x,r),y:St(t.y,n.y,e.y,r)}),i&&(u.a=Et(t,n,e,r)),u}function Et(t,n,e,r){return Math.atan2(Ot(t.y,n.y,e.y,r),Ot(t.x,n.x,e.x,r))}function Mt(t,n,e,r,i){var u=i*i;return i*u*(r-t+3*(n-e))+3*u*(t+e-2*n)+3*i*(n-t)+t}function Pt(t,n,e,r,i){var u=1-i;return 3*(u*u*(n-t)+2*u*i*(e-n)+i*i*(r-e))}function It(t,n,e,r,i){var u=arguments.length>5&&void 0!==arguments[5]&&arguments[5],o=At(t,n,e,r,i);return o||(o={x:Mt(t.x,n.x,e.x,r.x,i),y:Mt(t.y,n.y,e.y,r.y,i)}),u&&(o.a=Rt(t,n,e,r,i)),o}function Rt(t,n,e,r,i){return Math.atan2(Pt(t.y,n.y,e.y,r.y,i),Pt(t.x,n.x,e.x,r.x,i))}function Ft(t,n,e){var r=arguments.length>3&&void 0!==arguments[3]&&arguments[3];if(Tt(n)){if(Bt(e))return jt(n,e.start,e,t,r)}else if(Tt(e)){if(qt(n))return jt(n,n.end,e,t,r)}else{if(qt(n))return Bt(e)?It(n,n.end,e.start,e,t,r):jt(n,n.end,e,t,r);if(Bt(e))return jt(n,e.start,e,t,r)}return xt(n,e,t,r)}function Nt(t,n,e){var r=Ft(t,n,e,!0);return r.a=function(t){return arguments.length>1&&void 0!==arguments[1]&&arguments[1]?t+Math.PI:t}(r.a)/m,r}function Tt(t){return!t.type||"corner"===t.type}function Bt(t){return null!=t.start&&!Tt(t)}function qt(t){return null!=t.end&&!Tt(t)}var Dt=new N;var Lt={f:ft,i:B},Ct={f:ft,i:D};function Vt(t,n,e){return t.map((function(t){return function(t,n,e){var r=t.v;if(!r||"g"!==r.t||r.s||!r.v||!r.r)return t;var i=e.getElementById(r.r),u=i&&i.querySelectorAll("stop")||[];return r.s=r.v.map((function(t,n){var e=u[n]&&u[n].getAttribute("offset");return{c:t,o:e=d(parseInt(e)/100)}})),delete r.v,t}(t,0,e)}))}var Gt={gt:"gradientTransform",c:{x:"cx",y:"cy"},rd:"r",f:{x:"x1",y:"y1"},to:{x:"x2",y:"y2"}};function zt(t,n,r,i,u,o,a,l){return Vt(t,0,l),n=function(t,n,e){for(var r,i,u,o=t.length-1,a={},l=0;l<=o;l++)(r=t[l]).e&&(r.e=n(r.e)),r.v&&"g"===(i=r.v).t&&i.r&&(u=e.getElementById(i.r))&&(a[i.r]={e:u,s:u.querySelectorAll("stop")});return a}(t,i,l),function(i){var u=r(i,t,Yt);if(!u)return"none";if("c"===u.t)return ht(u.v);if("g"===u.t){if(!n[u.r])return vt(u.r);var o=n[u.r];return function(t,n){for(var e=t.s,r=e.length;r<n.length;r++){var i=e[e.length-1].cloneNode();i.id=Qt(i.id),t.e.appendChild(i),e=t.s=t.e.querySelectorAll("stop")}for(var u=0,o=e.length,a=n.length-1;u<o;u++)e[u].setAttribute("stop-color",ht(n[Math.min(u,a)].c)),e[u].setAttribute("offset",n[Math.min(u,a)].o)}(o,u.s),Object.keys(Gt).forEach((function(t){if(void 0!==u[t])if("object"!==e(Gt[t])){var n,r="gt"===t?(n=u[t],Array.isArray(n)?"matrix("+n.join(" ")+")":""):u[t],i=Gt[t];o.e.setAttribute(i,r)}else Object.keys(Gt[t]).forEach((function(n){if(void 0!==u[t][n]){var e=u[t][n],r=Gt[t][n];o.e.setAttribute(r,e)}}))})),vt(u.r)}return"none"}}function Yt(t,e,r){if(0===t)return e;if(1===t)return r;if(e&&r){var i=e.t;if(i===r.t)switch(e.t){case"c":return{t:i,v:V(t,e.v,r.v)};case"g":if(e.r===r.r){var u={t:i,s:$t(t,e.s,r.s),r:e.r};return e.gt&&r.gt&&(u.gt=function(t,n,e){var r=n.length;if(r!==e.length)return T(t,n,e);for(var i=new Array(r),u=0;u<r;u++)i[u]=B(t,n[u],e[u]);return i}(t,e.gt,r.gt)),e.c?(u.c=L(t,e.c,r.c),u.rd=q(t,e.rd,r.rd)):e.f&&(u.f=L(t,e.f,r.f),u.to=L(t,e.to,r.to)),u}}if("c"===e.t&&"g"===r.t||"c"===r.t&&"g"===e.t){var o="c"===e.t?e:r,a="g"===e.t?n({},e):n({},r),l=a.s.map((function(t){return{c:o.v,o:t.o}}));return a.s="c"===e.t?$t(t,l,a.s):$t(t,a.s,l),a}}return T(t,e,r)}function $t(t,n,e){if(n.length===e.length)return n.map((function(n,r){return Ut(t,n,e[r])}));for(var r=Math.max(n.length,e.length),i=[],u=0;u<r;u++){var o=Ut(t,n[Math.min(u,n.length-1)],e[Math.min(u,e.length-1)]);i.push(o)}return i}function Ut(t,n,e){return{o:D(t,n.o,e.o||0),c:V(t,n.c,e.c||{})}}function Qt(t){return t.replace(/-fill-([0-9]+)$/,(function(t,n){return"-fill-"+(+n+1)}))}var Ht={fill:zt,"fill-opacity":Ct,stroke:zt,"stroke-opacity":Ct,"stroke-width":Lt,"stroke-dashoffset":{f:ft,i:B},"stroke-dasharray":{f:function(t){var n=arguments.length>1&&void 0!==arguments[1]?arguments[1]:" ";return t&&t.length>0&&(t=t.map((function(t){return d(t,4)}))),ct(t,n)},i:function(t,n,e){var r,i,u,o=n.length,a=e.length;if(o!==a)if(0===o)n=G(o=a,0);else if(0===a)a=o,e=G(o,0);else{var l=(u=(r=o)*(i=a)/function(t,n){for(var e;n;)e=n,n=t%n,t=e;return t||1}(r,i))<0?-u:u;n=z(n,Math.floor(l/o)),e=z(e,Math.floor(l/a)),o=a=l}for(var s=[],f=0;f<o;f++)s.push(d(q(t,n[f],e[f])));return s}},opacity:Ct,transform:function(t,n,r,i){if(!(t=function(t,n){if(!t||"object"!==e(t))return null;var r=!1;for(var i in t)t.hasOwnProperty(i)&&(t[i]&&t[i].length?(t[i].forEach((function(t){t.e&&(t.e=n(t.e))})),r=!0):delete t[i]);return r?t:null}(t,i)))return null;var u=function(e,i,u){var o=arguments.length>3&&void 0!==arguments[3]?arguments[3]:null;return t[e]?r(i,t[e],u):n&&n[e]?n[e]:o};return n&&n.a&&t.o?function(n){var e=r(n,t.o,Nt);return Dt.recomposeSelf(e,u("r",n,B,0)+e.a,u("k",n,L),u("s",n,L),u("t",n,L)).toString()}:function(t){return Dt.recomposeSelf(u("o",t,Ft,null),u("r",t,B,0),u("k",t,L),u("s",t,L),u("t",t,L)).toString()}},r:Lt,"#size":gt,"#radius":yt,_:function(t,n){if(Array.isArray(t))for(var e=0;e<t.length;e++)this[t[e]]=n;else this[t]=n}},Jt=function(t){!function(t,n){if("function"!=typeof n&&null!==n)throw new TypeError("Super expression must either be null or a function");t.prototype=Object.create(n&&n.prototype,{constructor:{value:t,writable:!0,configurable:!0}}),n&&l(t,n)}(o,t);var n,e,i=(n=o,e=s(),function(){var t,r=a(n);if(e){var i=a(this).constructor;t=Reflect.construct(r,arguments,i)}else t=r.apply(this,arguments);return c(this,t)});function o(){return r(this,o),i.apply(this,arguments)}return u(o,null,[{key:"build",value:function(t){var n=h(a(o),"build",this).call(this,t,Ht);if(!n)return null;n.el,n.options,function(t,n,e){t.play()}(n.player)}}]),o}(st);return Jt.init(),Jt}));
(function(s,i,o,w,d,a,b){w[o]=w[o]||{};w[o][s]=w[o][s]||[];w[o][s].push(i);})('5c7f360c',{"root":"eIeHQSUJakx1","version":"2022-05-04","animations":[{"elements":{"eIeHQSUJakx2":{"transform":{"data":{"o":{"x":58.93,"y":127.36,"type":"corner"},"s":{"x":1.012703,"y":0.998389},"t":{"x":-197.007414,"y":-183.425495}},"keys":{"r":[{"t":0,"v":0},{"t":1000,"v":5.712447,"e":[0.42,0,0.58,1]},{"t":2200,"v":-6.648037,"e":[0.42,0,0.58,1]},{"t":3000,"v":0}]}}},"eIeHQSUJakx7":{"transform":{"data":{"t":{"x":-361.039994,"y":-90.619999}},"keys":{"o":[{"t":0,"v":{"x":361.039994,"y":90.619999,"type":"corner"}},{"t":600,"v":{"x":379.039994,"y":90.619999,"type":"corner"}},{"t":700,"v":{"x":351.039994,"y":90.619999,"type":"corner"}},{"t":900,"v":{"x":361.039994,"y":90.619999,"type":"corner"}},{"t":1600,"v":{"x":379.039994,"y":90.619999,"type":"corner"}},{"t":1800,"v":{"x":351.039994,"y":90.619999,"type":"corner"}},{"t":2000,"v":{"x":361.039994,"y":90.619999,"type":"corner"}},{"t":2600,"v":{"x":381.039994,"y":90.619999,"type":"corner"}},{"t":2900,"v":{"x":342.039994,"y":90.619999,"type":"corner"}},{"t":3000,"v":{"x":361.039994,"y":90.619999,"type":"corner"}}]}},"opacity":[{"t":0,"v":1},{"t":600,"v":0},{"t":700,"v":0},{"t":900,"v":1},{"t":1600,"v":0},{"t":1800,"v":0},{"t":2000,"v":1},{"t":2600,"v":0},{"t":2900,"v":0},{"t":3000,"v":1}]},"eIeHQSUJakx34":{"transform":{"data":{"o":{"x":493.462816,"y":133.275713,"type":"corner"},"t":{"x":-634.042816,"y":-189.045708}},"keys":{"r":[{"t":0,"v":0,"e":[0.42,0,0.58,1]},{"t":800,"v":4.001922,"e":[0.42,0,0.58,1]},{"t":1900,"v":-4.966236,"e":[0.54,-0.01,0.58,1]},{"t":3000,"v":0}]}}},"eIeHQSUJakx53":{"transform":{"data":{"t":{"x":-493.382278,"y":-126.344653}},"keys":{"o":[{"t":0,"v":{"x":352.802278,"y":79.574656,"type":"corner"},"e":[0.42,0,1,1]},{"t":500,"v":{"x":352.802278,"y":70.574656,"type":"corner"},"e":[0.42,0,1,1]},{"t":2500,"v":{"x":352.802278,"y":70.774656,"type":"corner"},"e":[0.42,0,1,1]},{"t":3000,"v":{"x":352.802278,"y":79.574656,"type":"corner"}}],"r":[{"t":500,"v":0,"e":[0.42,0,1,1]},{"t":800,"v":-14.427315,"e":[0.42,0,1,1]},{"t":1100,"v":14.44876,"e":[0.42,0,1,1]},{"t":1400,"v":-20.365007,"e":[0.42,0,1,1]},{"t":1700,"v":18.503392,"e":[0.42,0,1,1]},{"t":2000,"v":-22.107781,"e":[0.42,0,1,1]},{"t":2500,"v":0}]}}},"eIeHQSUJakx67":{"transform":{"data":{"o":{"x":299.76137,"y":245.41,"type":"corner"},"t":{"x":-440.34137,"y":-301.18}},"keys":{"r":[{"t":0,"v":0,"e":[0.42,0,0.58,1]},{"t":500,"v":16.434671,"e":[0.42,0,0.58,1]},{"t":1000,"v":0,"e":[0.42,0,0.58,1]},{"t":1500,"v":6.875139,"e":[0.42,0,0.58,1]},{"t":2000,"v":0,"e":[0.42,0,0.58,1]},{"t":2500,"v":10.352499,"e":[0.42,0,0.58,1]},{"t":3000,"v":0}]}}},"eIeHQSUJakx99":{"transform":{"data":{"t":{"x":-178.829994,"y":-60.004999}},"keys":{"o":[{"t":0,"v":{"x":178.829994,"y":60.005,"type":"corner"},"e":[0.42,0,0.58,1]},{"t":390,"v":{"x":189.829994,"y":60.005,"type":"corner"},"e":[0.42,0,0.58,1]},{"t":700,"v":{"x":173.029994,"y":60.005,"type":"corner"},"e":[0.42,0,0.58,1]},{"t":1000,"v":{"x":178.829994,"y":60.005,"type":"corner"},"e":[0.42,0,0.58,1]},{"t":1600,"v":{"x":189.829994,"y":60.005,"type":"corner"},"e":[0.42,0,0.58,1]},{"t":2000,"v":{"x":173.029994,"y":60.005,"type":"corner"},"e":[0.42,0,0.58,1]},{"t":2800,"v":{"x":178.829994,"y":60.005,"type":"corner"},"e":[0.42,0,0.58,1]},{"t":2990,"v":{"x":178.829994,"y":60.005,"type":"corner"}}]}},"opacity":[{"t":0,"v":1,"e":[0.42,0,0.58,1]},{"t":390,"v":0,"e":[0.42,0,0.58,1]},{"t":700,"v":0,"e":[0.42,0,0.58,1]},{"t":1000,"v":1,"e":[0.42,0,0.58,1]},{"t":1590,"v":0,"e":[0.42,0,0.58,1]},{"t":2000,"v":0,"e":[0.42,0,0.58,1]},{"t":2800,"v":1,"e":[0.42,0,0.58,1]},{"t":2990,"v":1}]}},"s":"MIDA1ZGQ4RDdmYzFSZDEJjZmJlZDFjNmNjY2IA3Zjk3OTA4ZDhkOGQ4MOUk3ZkhjMWM2Y2ZjMNmMwQWQxYzZjY2NiN2MY5NzhlODlIN2ZjNmQHxYzJjZmJlZDFjNmNjCY2JkMDdmOTc4ZDg5NK2ZjM2M2YzlTYzk3ZjPk3OGU4OTdmYmVjOWQBxYzJSY2ZjYmJlZDFjNMjdmOTdjM2JlYzlkMUGMyODk3ZlJkMGNkYzGJjMlljMTdmOTc4ZTgY5N2ZjM2NkZDA3Zjk3OWDhlOGQ4ZGRh"}],"options":"MRDAxMDg4MmY4MDgxNmUU3ZkI4MTJmNDcyZjcN5N2M2ZTcxMmY4YQ|"},'__SVGATOR_PLAYER__',window,document)
]]></script>
</svg>
