<svg width="24" height="24" viewBox="0 0 24 24" fill="none" xmlns="http://www.w3.org/2000/svg">
<g clip-path="url(#clip0_535_42914)">
<path d="M12 -0.000244141C8.7435 -0.000244141 8.334 0.0147559 7.0545 0.0717559C5.775 0.131756 4.9035 0.332756 4.14 0.629756C3.33914 0.930984 2.61374 1.4035 2.0145 2.01426C1.40411 2.6138 0.931661 3.33912 0.63 4.13976C0.333 4.90176 0.1305 5.77476 0.072 7.04976C0.015 8.33226 0 8.74026 0 12.0013C0 15.2593 0.015 15.6673 0.072 16.9468C0.132 18.2248 0.333 19.0963 0.63 19.8598C0.9375 20.6488 1.347 21.3178 2.0145 21.9853C2.6805 22.6528 3.3495 23.0638 4.1385 23.3698C4.9035 23.6668 5.7735 23.8693 7.0515 23.9278C8.3325 23.9848 8.7405 23.9998 12 23.9998C15.2595 23.9998 15.666 23.9848 16.947 23.9278C18.2235 23.8678 19.098 23.6668 19.8615 23.3698C20.6618 23.0684 21.3867 22.5959 21.9855 21.9853C22.653 21.3178 23.0625 20.6488 23.37 19.8598C23.6655 19.0963 23.868 18.2248 23.928 16.9468C23.985 15.6673 24 15.2593 24 11.9998C24 8.74026 23.985 8.33226 23.928 7.05126C23.868 5.77476 23.6655 4.90176 23.37 4.13976C23.0684 3.33909 22.5959 2.61377 21.9855 2.01426C21.3864 1.40327 20.661 0.930724 19.86 0.629756C19.095 0.332756 18.222 0.130256 16.9455 0.0717559C15.6645 0.0147559 15.258 -0.000244141 11.997 -0.000244141H12.0015H12ZM10.9245 2.16276H12.0015C15.2055 2.16276 15.585 2.17326 16.8495 2.23176C18.0195 2.28426 18.6555 2.48076 19.0785 2.64426C19.638 2.86176 20.0385 3.12276 20.4585 3.54276C20.8785 3.96276 21.138 4.36176 21.3555 4.92276C21.5205 5.34426 21.7155 5.98026 21.768 7.15026C21.8265 8.41476 21.8385 8.79426 21.8385 11.9968C21.8385 15.1993 21.8265 15.5803 21.768 16.8448C21.7155 18.0148 21.519 18.6493 21.3555 19.0723C21.1631 19.5933 20.856 20.0644 20.457 20.4508C20.037 20.8708 19.638 21.1303 19.077 21.3478C18.657 21.5128 18.021 21.7078 16.8495 21.7618C15.585 21.8188 15.2055 21.8323 12.0015 21.8323C8.7975 21.8323 8.4165 21.8188 7.152 21.7618C5.982 21.7078 5.3475 21.5128 4.9245 21.3478C4.40325 21.1556 3.93169 20.8491 3.5445 20.4508C3.14513 20.0638 2.83758 19.5922 2.6445 19.0708C2.481 18.6493 2.2845 18.0133 2.232 16.8433C2.175 15.5788 2.163 15.1993 2.163 11.9938C2.163 8.78976 2.175 8.41176 2.232 7.14726C2.286 5.97726 2.481 5.34126 2.646 4.91826C2.8635 4.35876 3.1245 3.95826 3.5445 3.53826C3.9645 3.11826 4.3635 2.85876 4.9245 2.64126C5.3475 2.47626 5.982 2.28126 7.152 2.22726C8.259 2.17626 8.688 2.16126 10.9245 2.15976V2.16276ZM18.4065 4.15476C18.2174 4.15476 18.0301 4.192 17.8554 4.26437C17.6807 4.33674 17.522 4.44281 17.3883 4.57652C17.2545 4.71024 17.1485 4.86898 17.0761 5.04369C17.0037 5.2184 16.9665 5.40565 16.9665 5.59476C16.9665 5.78386 17.0037 5.97111 17.0761 6.14582C17.1485 6.32053 17.2545 6.47927 17.3883 6.61299C17.522 6.74671 17.6807 6.85278 17.8554 6.92514C18.0301 6.99751 18.2174 7.03476 18.4065 7.03476C18.7884 7.03476 19.1547 6.88304 19.4247 6.61299C19.6948 6.34294 19.8465 5.97667 19.8465 5.59476C19.8465 5.21284 19.6948 4.84657 19.4247 4.57652C19.1547 4.30647 18.7884 4.15476 18.4065 4.15476ZM12.0015 5.83776C11.1841 5.825 10.3723 5.97498 9.61347 6.27897C8.85459 6.58295 8.16377 7.03486 7.58123 7.60839C6.99868 8.18192 6.53605 8.86561 6.22026 9.61965C5.90448 10.3737 5.74185 11.183 5.74185 12.0005C5.74185 12.818 5.90448 13.6273 6.22026 14.3814C6.53605 15.1354 6.99868 15.8191 7.58123 16.3926C8.16377 16.9662 8.85459 17.4181 9.61347 17.722C10.3723 18.026 11.1841 18.176 12.0015 18.1633C13.6193 18.138 15.1623 17.4776 16.2975 16.3246C17.4326 15.1716 18.0689 13.6185 18.0689 12.0005C18.0689 10.3825 17.4326 8.82937 16.2975 7.67638C15.1623 6.52339 13.6193 5.863 12.0015 5.83776ZM12.0015 7.99926C13.0625 7.99926 14.08 8.42074 14.8303 9.17097C15.5805 9.92121 16.002 10.9388 16.002 11.9998C16.002 13.0608 15.5805 14.0783 14.8303 14.8285C14.08 15.5788 13.0625 16.0003 12.0015 16.0003C10.9405 16.0003 9.92296 15.5788 9.17272 14.8285C8.42248 14.0783 8.001 13.0608 8.001 11.9998C8.001 10.9388 8.42248 9.92121 9.17272 9.17097C9.92296 8.42074 10.9405 7.99926 12.0015 7.99926Z" fill="#183C56"/>
</g>
<defs>
<clipPath id="clip0_535_42914">
<rect width="24" height="24" fill="white" transform="translate(0 -0.000244141)"/>
</clipPath>
</defs>
</svg>
