<svg width="31" height="30" viewBox="0 0 31 30" fill="none" xmlns="http://www.w3.org/2000/svg">
<g clip-path="url(#clip0_535_42912)">
<path d="M0.714844 2.14875C0.714844 0.961875 1.70263 0 2.9214 0H28.5551C29.7738 0 30.7616 0.961875 30.7616 2.14875V27.8513C30.7616 29.0381 29.7738 30 28.5551 30H2.9214C1.70263 30 0.714844 29.0381 0.714844 27.8513V2.14875ZM9.99742 25.1138V11.5669H5.48853V25.1138H9.99742ZM7.74391 9.71625C9.31574 9.71625 10.2941 8.6775 10.2941 7.37625C10.266 6.04688 9.31761 5.03625 7.77396 5.03625C6.23031 5.03625 5.22186 6.04875 5.22186 7.37625C5.22186 8.6775 6.20026 9.71625 7.71387 9.71625H7.74391V9.71625ZM16.9608 25.1138V17.5481C16.9608 17.1431 16.9908 16.7381 17.111 16.4494C17.4359 15.6412 18.1777 14.8031 19.4246 14.8031C21.0565 14.8031 21.7082 16.0444 21.7082 17.8669V25.1138H26.2171V17.3438C26.2171 13.1812 23.9936 11.2463 21.0265 11.2463C18.634 11.2463 17.5617 12.5587 16.9608 13.4831V13.53H16.9307C16.9407 13.5143 16.9507 13.4987 16.9608 13.4831V11.5669H12.4537C12.5101 12.8381 12.4537 25.1138 12.4537 25.1138H16.9608Z" fill="#183C56"/>
</g>
<defs>
<clipPath id="clip0_535_42912">
<rect width="30.0468" height="30" fill="white" transform="translate(0.714844)"/>
</clipPath>
</defs>
</svg>
