<svg width="31" height="31" viewBox="0 0 31 31" fill="none" xmlns="http://www.w3.org/2000/svg">
<path d="M4.84375 1.9375C3.7737 1.9375 2.90625 2.80495 2.90625 3.875V5.8125C2.90625 6.88255 3.7737 7.75 4.84375 7.75H5.8125V25.1875C5.8125 27.3276 7.5474 29.0625 9.6875 29.0625H21.3125C23.4526 29.0625 25.1875 27.3276 25.1875 25.1875V7.75H26.1562C27.2263 7.75 28.0938 6.88255 28.0938 5.8125V3.875C28.0938 2.80495 27.2263 1.9375 26.1562 1.9375H19.375C19.375 0.867448 18.5076 0 17.4375 0H13.5625C12.4924 0 11.625 0.867448 11.625 1.9375H4.84375ZM10.6562 9.6875C11.1913 9.6875 11.625 10.1212 11.625 10.6562V24.2188C11.625 24.7538 11.1913 25.1875 10.6562 25.1875C10.1212 25.1875 9.6875 24.7538 9.6875 24.2188L9.6875 10.6562C9.6875 10.1212 10.1212 9.6875 10.6562 9.6875ZM15.5 9.6875C16.035 9.6875 16.4688 10.1212 16.4688 10.6562V24.2188C16.4687 24.7538 16.035 25.1875 15.5 25.1875C14.965 25.1875 14.5312 24.7538 14.5312 24.2188V10.6562C14.5313 10.1212 14.965 9.6875 15.5 9.6875ZM21.3125 10.6562V24.2188C21.3125 24.7538 20.8788 25.1875 20.3438 25.1875C19.8087 25.1875 19.375 24.7538 19.375 24.2188V10.6562C19.375 10.1212 19.8087 9.6875 20.3438 9.6875C20.8788 9.6875 21.3125 10.1212 21.3125 10.6562Z" fill="#183C56" fill-opacity="0.6"/>
</svg>
