<svg width="17" height="16" viewBox="0 0 17 16" fill="none" xmlns="http://www.w3.org/2000/svg">
<path d="M1.88281 11.5156C1.88281 11.9507 2.06675 12.368 2.39417 12.6757C2.72158 12.9834 3.16565 13.1562 3.62868 13.1562H14.1039C14.567 13.1562 15.011 12.9834 15.3384 12.6757C15.6658 12.368 15.8498 11.9507 15.8498 11.5156V7.00391H1.88281V11.5156ZM3.94045 9.28906C3.94045 9.05596 4.03899 8.83241 4.21439 8.66758C4.38979 8.50276 4.62768 8.41016 4.87574 8.41016H6.3722C6.62025 8.41016 6.85815 8.50276 7.03355 8.66758C7.20895 8.83241 7.30749 9.05596 7.30749 9.28906V9.875C7.30749 10.1081 7.20895 10.3317 7.03355 10.4965C6.85815 10.6613 6.62025 10.7539 6.3722 10.7539H4.87574C4.62768 10.7539 4.38979 10.6613 4.21439 10.4965C4.03899 10.3317 3.94045 10.1081 3.94045 9.875V9.28906Z" fill="#183C56"/>
<path d="M14.1039 2.84277H3.62868C3.16565 2.84277 2.72158 3.01562 2.39417 3.3233C2.06675 3.63098 1.88281 4.04828 1.88281 4.4834V5.24512H15.8498V4.4834C15.8498 4.04828 15.6658 3.63098 15.3384 3.3233C15.011 3.01562 14.567 2.84277 14.1039 2.84277V2.84277Z" fill="#183C56"/>
</svg>
