<svg width="17" height="16" viewBox="0 0 17 16" fill="none" xmlns="http://www.w3.org/2000/svg">
<path d="M14.2322 7.0625H9.86748C9.4706 7.0625 9.08996 6.91434 8.80932 6.65062C8.52868 6.38689 8.37102 6.02921 8.37102 5.65625V1.55469C8.37102 1.52361 8.35788 1.4938 8.33449 1.47182C8.31111 1.44985 8.27939 1.4375 8.24631 1.4375H5.3781C4.84891 1.4375 4.34141 1.63504 3.96722 1.98667C3.59303 2.33831 3.38281 2.81522 3.38281 3.3125V12.6875C3.38281 13.1848 3.59303 13.6617 3.96722 14.0133C4.34141 14.365 4.84891 14.5625 5.3781 14.5625H12.3616C12.8908 14.5625 13.3983 14.365 13.7725 14.0133C14.1467 13.6617 14.3569 13.1848 14.3569 12.6875V7.17969C14.3569 7.14861 14.3437 7.1188 14.3203 7.09682C14.297 7.07484 14.2652 7.0625 14.2322 7.0625Z" fill="#183C56"/>
<path d="M13.957 6.02612L9.4735 1.81294C9.46478 1.80479 9.45369 1.79925 9.44163 1.79701C9.42957 1.79477 9.41707 1.79593 9.40571 1.80034C9.39435 1.80476 9.38463 1.81223 9.37778 1.82182C9.37092 1.83141 9.36724 1.84269 9.36719 1.85425V5.65727C9.36719 5.78159 9.41974 5.90082 9.51329 5.98873C9.60684 6.07664 9.73371 6.12602 9.86601 6.12602H13.913C13.9253 6.12598 13.9373 6.12251 13.9475 6.11607C13.9577 6.10963 13.9657 6.1005 13.9704 6.08982C13.9751 6.07914 13.9763 6.0674 13.9739 6.05607C13.9715 6.04473 13.9656 6.03431 13.957 6.02612V6.02612Z" fill="#183C56"/>
</svg>
