<svg width="16" height="16" viewBox="0 0 16 16" fill="none" xmlns="http://www.w3.org/2000/svg">
<rect width="16" height="16" rx="3" fill="white"/>
<path fill-rule="evenodd" clip-rule="evenodd" d="M2.1875 4.72739C2.1875 4.52656 2.35031 4.36376 2.55114 4.36376H2.91477C4.5163 4.36376 5.69806 5.26579 6.45929 6.12217C6.81619 6.52368 7.08889 6.92388 7.27841 7.23647C7.46793 6.92388 7.74063 6.52368 8.09753 6.12217C8.85876 5.26579 10.0405 4.36376 11.642 4.36376V5.09103C10.3345 5.09103 9.33442 5.82536 8.6411 6.60534C8.29674 6.99275 8.03728 7.38167 7.86397 7.67414C7.78553 7.80651 7.72522 7.9183 7.6831 8.00012C7.72522 8.08194 7.78553 8.19373 7.86397 8.3261C8.03728 8.61857 8.29674 9.00749 8.6411 9.3949C9.33442 10.1749 10.3345 10.9092 11.642 10.9092V11.6365C10.0405 11.6365 8.85876 10.7345 8.09753 9.87807C7.74063 9.47656 7.46793 9.07636 7.27841 8.76377C7.08889 9.07636 6.81619 9.47656 6.45929 9.87807C5.69806 10.7345 4.5163 11.6365 2.91477 11.6365H2.55114C2.35031 11.6365 2.1875 11.4737 2.1875 11.2728C2.1875 11.072 2.35031 10.9092 2.55114 10.9092H2.91477C4.22234 10.9092 5.2224 10.1749 5.91572 9.3949C6.26008 9.00749 6.51954 8.61857 6.69285 8.3261C6.77129 8.19373 6.8316 8.08194 6.87372 8.00012C6.8316 7.9183 6.77129 7.80651 6.69285 7.67414C6.51954 7.38167 6.26008 6.99275 5.91572 6.60534C5.2224 5.82536 4.22234 5.09103 2.91477 5.09103H2.55114C2.35031 5.09103 2.1875 4.92822 2.1875 4.72739Z" fill="#183C56"/>
<path d="M11.642 6.15739V3.2974C11.642 3.14325 11.8218 3.05904 11.9403 3.15772L13.6563 4.58772C13.7435 4.66041 13.7435 4.79438 13.6563 4.86707L11.9403 6.29706C11.8218 6.39575 11.642 6.31154 11.642 6.15739Z" fill="#183C56"/>
<path d="M11.642 12.7028V9.84285C11.642 9.6887 11.8218 9.60449 11.9403 9.70318L13.6563 11.1332C13.7435 11.2059 13.7435 11.3398 13.6563 11.4125L11.9403 12.8425C11.8218 12.9412 11.642 12.857 11.642 12.7028Z" fill="#183C56"/>
</svg>
