<svg width="48" height="48" viewBox="0 0 48 48" fill="none" xmlns="http://www.w3.org/2000/svg">
<path d="M24 48C37.2548 48 48 37.2548 48 24C48 10.7452 37.2548 0 24 0C10.7452 0 0 10.7452 0 24C0 37.2548 10.7452 48 24 48Z" fill="url(#paint0_linear_644_49595)"/>
<g clip-path="url(#clip0_644_49595)">
<path d="M19.8513 32.2573C19.8513 33.378 18.7581 33.6166 18.4413 33.6626C17.7006 33.6419 17.1046 33.021 17.1046 32.2573V14.8788H25.3447V13H16.189C15.6836 13 15.2734 13.4208 15.2734 13.9394V32.2573C15.2734 34.0703 16.7109 35.5451 18.4779 35.5451H32.2115C33.9786 35.5451 35.416 34.0703 35.416 32.2573V30.8482H19.8513V32.2573Z" fill="white"/>
<path d="M30.8381 24.2723C29.4766 24.2723 28.215 23.8308 27.1758 23.085V28.9692L30.8381 26.1511L34.5004 28.9692V23.085C33.4612 23.8308 32.1995 24.2723 30.8381 24.2723Z" fill="white"/>
<path d="M30.8396 22.3938C33.3679 22.3938 35.4174 20.2909 35.4174 17.6969C35.4174 15.1029 33.3679 13 30.8396 13C28.3113 13 26.2617 15.1029 26.2617 17.6969C26.2617 20.2909 28.3113 22.3938 30.8396 22.3938Z" fill="white"/>
</g>
<defs>
<linearGradient id="paint0_linear_644_49595" x1="7.94287" y1="7" x2="37.4429" y2="43" gradientUnits="userSpaceOnUse">
<stop stop-color="#183C56"/>
</linearGradient>
<clipPath id="clip0_644_49595">
<rect width="21.9737" height="22.5451" fill="white" transform="translate(13.4414 13)"/>
</clipPath>
</defs>
</svg>
