<svg width="38" height="38" viewBox="0 0 38 38" fill="none" xmlns="http://www.w3.org/2000/svg">
<rect width="38" height="38" fill="white"/>
<path d="M28 7C25.2386 7 23 9.23858 23 12C23 12.5523 22.5523 13 22 13C21.4477 13 21 12.5523 21 12C21 8.13401 24.134 5 28 5C31.866 5 35 8.13401 35 12C35 15.866 31.866 19 28 19H4C3.44772 19 3 18.5523 3 18C3 17.4477 3.44772 17 4 17H28C30.7614 17 33 14.7614 33 12C33 9.23858 30.7614 7 28 7ZM14 9C12.8954 9 12 9.89543 12 11C12 11.5523 11.5523 12 11 12C10.4477 12 10 11.5523 10 11C10 8.79086 11.7909 7 14 7C16.2091 7 18 8.79086 18 11C18 13.2091 16.2091 15 14 15H4C3.44772 15 3 14.5523 3 14C3 13.4477 3.44772 13 4 13H14C15.1046 13 16 12.1046 16 11C16 9.89543 15.1046 9 14 9ZM3 22C3 21.4477 3.44772 21 4 21H24.0833C27.397 21 30.0833 23.6863 30.0833 27C30.0833 30.3137 27.397 33 24.0833 33C20.7696 33 18.0833 30.3137 18.0833 27C18.0833 26.4477 18.531 26 19.0833 26C19.6356 26 20.0833 26.4477 20.0833 27C20.0833 29.2091 21.8742 31 24.0833 31C26.2925 31 28.0833 29.2091 28.0833 27C28.0833 24.7909 26.2925 23 24.0833 23H4C3.44772 23 3 22.5523 3 22Z" fill="#183C56"/>
</svg>
