<svg width="38" height="38" viewBox="0 0 38 38" fill="none" xmlns="http://www.w3.org/2000/svg">
<rect width="38" height="38" fill="white"/>
<path d="M19 33C11.268 33 5 26.732 5 19C5 11.268 11.268 5 19 5C26.732 5 33 11.268 33 19C33 26.732 26.732 33 19 33ZM19 35C27.8366 35 35 27.8366 35 19C35 10.1634 27.8366 3 19 3C10.1634 3 3 10.1634 3 19C3 27.8366 10.1634 35 19 35Z" fill="#183C56"/>
<path d="M19 11C19.5523 11 20 11.4477 20 12V18H26C26.5523 18 27 18.4477 27 19C27 19.5523 26.5523 20 26 20H20V26C20 26.5523 19.5523 27 19 27C18.4477 27 18 26.5523 18 26V20H12C11.4477 20 11 19.5523 11 19C11 18.4477 11.4477 18 12 18H18V12C18 11.4477 18.4477 11 19 11Z" fill="#183C56"/>
</svg>
