<svg width="38" height="38" viewBox="0 0 38 38" fill="none" xmlns="http://www.w3.org/2000/svg">
<rect width="38" height="38" fill="white"/>
<path d="M19 25C15.6863 25 13 22.3137 13 19C13 15.6863 15.6863 13 19 13C22.3137 13 25 15.6863 25 19C25 22.3137 22.3137 25 19 25ZM19 27C23.4183 27 27 23.4183 27 19C27 14.5817 23.4183 11 19 11C14.5817 11 11 14.5817 11 19C11 23.4183 14.5817 27 19 27Z" fill="#183C56"/>
<path d="M19 3C19.5523 3 20 3.44772 20 4V8C20 8.55228 19.5523 9 19 9C18.4477 9 18 8.55228 18 8V4C18 3.44772 18.4477 3 19 3Z" fill="#183C56"/>
<path d="M19 29C19.5523 29 20 29.4477 20 30V34C20 34.5523 19.5523 35 19 35C18.4477 35 18 34.5523 18 34V30C18 29.4477 18.4477 29 19 29Z" fill="#183C56"/>
<path d="M35 19C35 19.5523 34.5523 20 34 20H30C29.4477 20 29 19.5523 29 19C29 18.4477 29.4477 18 30 18H34C34.5523 18 35 18.4477 35 19Z" fill="#183C56"/>
<path d="M9 19C9 19.5523 8.55228 20 8 20H4C3.44772 20 3 19.5523 3 19C3 18.4477 3.44772 18 4 18H8C8.55228 18 9 18.4477 9 19Z" fill="#183C56"/>
<path d="M30.3137 7.68635C30.7042 8.07688 30.7042 8.71004 30.3137 9.10057L27.4853 11.929C27.0948 12.3195 26.4616 12.3195 26.0711 11.929C25.6805 11.5385 25.6805 10.9053 26.0711 10.5148L28.8995 7.68635C29.29 7.29583 29.9232 7.29583 30.3137 7.68635Z" fill="#183C56"/>
<path d="M11.9289 26.0711C12.3195 26.4617 12.3195 27.0948 11.9289 27.4853L9.1005 30.3138C8.70998 30.7043 8.07681 30.7043 7.68629 30.3138C7.29576 29.9232 7.29576 29.2901 7.68629 28.8996L10.5147 26.0711C10.9052 25.6806 11.5384 25.6806 11.9289 26.0711Z" fill="#183C56"/>
<path d="M30.3137 30.3138C29.9232 30.7043 29.29 30.7043 28.8995 30.3138L26.0711 27.4854C25.6805 27.0948 25.6805 26.4617 26.0711 26.0712C26.4616 25.6806 27.0948 25.6806 27.4853 26.0712L30.3137 28.8996C30.7042 29.2901 30.7042 29.9233 30.3137 30.3138Z" fill="#183C56"/>
<path d="M11.9289 11.929C11.5384 12.3195 10.9052 12.3195 10.5147 11.929L7.68629 9.10059C7.29577 8.71007 7.29577 8.0769 7.68629 7.68638C8.07682 7.29585 8.70998 7.29585 9.1005 7.68638L11.9289 10.5148C12.3195 10.9053 12.3195 11.5385 11.9289 11.929Z" fill="#183C56"/>
</svg>
