<svg width="16" height="12" viewBox="0 0 16 12" fill="none" xmlns="http://www.w3.org/2000/svg">
<path fill-rule="evenodd" clip-rule="evenodd" d="M10 10.5C10 10.6326 9.94732 10.7598 9.85355 10.8536C9.75979 10.9473 9.63261 11 9.5 11H1.5C1.36739 11 1.24021 10.9473 1.14645 10.8536C1.05268 10.7598 1 10.6326 1 10.5V1.5C1 1.36739 1.05268 1.24021 1.14645 1.14645C1.24021 1.05268 1.36739 1 1.5 1H9.5C9.63261 1 9.75979 1.05268 9.85355 1.14645C9.94732 1.24021 10 1.36739 10 1.5V3.5C10 3.63261 10.0527 3.75979 10.1464 3.85355C10.2402 3.94732 10.3674 4 10.5 4C10.6326 4 10.7598 3.94732 10.8536 3.85355C10.9473 3.75979 11 3.63261 11 3.5V1.5C11 1.10218 10.842 0.720644 10.5607 0.43934C10.2794 0.158035 9.89782 0 9.5 0H1.5C1.10218 0 0.720644 0.158035 0.43934 0.43934C0.158035 0.720644 0 1.10218 0 1.5V10.5C0 10.8978 0.158035 11.2794 0.43934 11.5607C0.720644 11.842 1.10218 12 1.5 12H9.5C9.89782 12 10.2794 11.842 10.5607 11.5607C10.842 11.2794 11 10.8978 11 10.5V8.5C11 8.36739 10.9473 8.24021 10.8536 8.14645C10.7598 8.05268 10.6326 8 10.5 8C10.3674 8 10.2402 8.05268 10.1464 8.14645C10.0527 8.24021 10 8.36739 10 8.5V10.5Z" fill="#212529"/>
<path fill-rule="evenodd" clip-rule="evenodd" d="M15.854 6.354C15.9006 6.30755 15.9375 6.25238 15.9627 6.19163C15.9879 6.13089 16.0009 6.06577 16.0009 6C16.0009 5.93423 15.9879 5.86911 15.9627 5.80837C15.9375 5.74762 15.9006 5.69245 15.854 5.646L12.854 2.646C12.7601 2.55211 12.6328 2.49937 12.5 2.49937C12.3672 2.49937 12.2399 2.55211 12.146 2.646C12.0521 2.73989 11.9994 2.86722 11.9994 3C11.9994 3.13278 12.0521 3.26011 12.146 3.354L14.293 5.5H5.5C5.36739 5.5 5.24021 5.55268 5.14645 5.64645C5.05268 5.74021 5 5.86739 5 6C5 6.13261 5.05268 6.25979 5.14645 6.35355C5.24021 6.44732 5.36739 6.5 5.5 6.5H14.293L12.146 8.646C12.0521 8.73989 11.9994 8.86722 11.9994 9C11.9994 9.13278 12.0521 9.26011 12.146 9.354C12.2399 9.44789 12.3672 9.50063 12.5 9.50063C12.6328 9.50063 12.7601 9.44789 12.854 9.354L15.854 6.354Z" fill="#212529"/>
</svg>
