<svg width="24" height="24" viewBox="0 0 24 24" fill="none" xmlns="http://www.w3.org/2000/svg">
<g clip-path="url(#clip0_535_42918)">
<path d="M7.00563 -0.000244141C8.32563 -0.000244141 9.60513 0.370256 10.7076 1.05276C12.3543 0.877489 14.0194 1.07173 15.5815 1.62132C17.1436 2.17092 18.5635 3.06203 19.7376 4.22976C20.767 5.25602 21.5839 6.47515 22.1416 7.81741C22.6994 9.15967 22.987 10.5987 22.9881 12.0523C22.9881 12.5683 22.9521 13.0828 22.8801 13.5913C23.4684 14.6358 23.7784 15.814 23.7801 17.0128C23.7801 17.9311 23.5986 18.8405 23.2459 19.6884C22.8932 20.5364 22.3764 21.3062 21.7251 21.9538C20.4096 23.2656 18.627 24.0015 16.7691 23.9998C15.5091 23.9998 14.2821 23.6608 13.2141 23.0338C11.5461 23.2329 9.8546 23.052 8.26637 22.5047C6.67814 21.9574 5.23435 21.0578 4.04313 19.8733C3.01411 18.8471 2.19739 17.6282 1.63965 16.2862C1.08191 14.9442 0.794092 13.5055 0.792633 12.0523C0.792633 11.5078 0.831633 10.9663 0.912633 10.4308C0.155872 9.10178 -0.142516 7.56071 0.0635116 6.04532C0.26954 4.52993 0.968532 3.12445 2.05263 2.04576C3.36775 0.735989 5.14805 0.000353119 7.00413 -0.000244141L7.00563 -0.000244141ZM7.67613 10.5148C7.94613 10.9783 8.32113 11.3728 8.76963 11.6683C9.36376 12.0571 9.99543 12.3852 10.6551 12.6478C11.3931 12.9553 11.9646 13.2178 12.3726 13.4323C12.7161 13.6003 13.0281 13.8283 13.2951 14.1043C13.4976 14.3173 13.6101 14.6008 13.6101 14.8963C13.6186 15.1039 13.5774 15.3107 13.49 15.4993C13.4026 15.6879 13.2715 15.8529 13.1076 15.9808C12.6711 16.2748 12.1476 16.4143 11.6226 16.3768C11.083 16.3829 10.5478 16.2777 10.0506 16.0678C9.78142 15.9481 9.51533 15.8216 9.25263 15.6883C8.98128 15.5441 8.67938 15.4669 8.37213 15.4633C8.09708 15.4518 7.82811 15.5463 7.62063 15.7273C7.52147 15.8215 7.44395 15.9362 7.39345 16.0634C7.34295 16.1905 7.32066 16.3271 7.32813 16.4638C7.32183 16.7224 7.39974 16.9762 7.55013 17.1868C7.73153 17.4168 7.96632 17.5991 8.23413 17.7178C9.2797 18.1712 10.4132 18.3859 11.5521 18.3463C12.3815 18.3628 13.207 18.2281 13.9881 17.9488C14.6359 17.7189 15.2001 17.3004 15.6081 16.7473C16.0086 16.1623 16.2111 15.4648 16.1871 14.7568C16.2028 14.1782 16.0579 13.6066 15.7686 13.1053C15.475 12.6287 15.0795 12.223 14.6106 11.9173C14.0163 11.5339 13.3858 11.2098 12.7281 10.9498C12.6579 10.9154 12.5852 10.8863 12.5106 10.8628C11.9974 10.6547 11.4907 10.4311 10.9911 10.1923C10.6879 10.0499 10.4134 9.85313 10.1811 9.61176C9.98594 9.40638 9.87834 9.13308 9.88113 8.84976C9.87153 8.63385 9.92005 8.41932 10.0216 8.22856C10.1232 8.0378 10.2741 7.8778 10.4586 7.76526C10.8967 7.5041 11.401 7.37541 11.9106 7.39476C12.3006 7.39026 12.6906 7.43976 13.0686 7.53876C13.4796 7.65726 13.8816 7.80426 14.2716 7.97826C14.4291 8.05176 14.6016 8.09076 14.7756 8.09226C14.9026 8.09538 15.0288 8.0716 15.1459 8.02248C15.263 7.97336 15.3684 7.90001 15.4551 7.80726C15.6401 7.60482 15.7373 7.33723 15.7251 7.06326C15.7296 6.80219 15.639 6.54841 15.4701 6.34926C15.2393 6.10721 14.9531 5.92497 14.6361 5.81826C14.2921 5.69182 13.9363 5.59987 13.5741 5.54376C13.0674 5.46083 12.5545 5.42168 12.0411 5.42676C11.2565 5.42177 10.477 5.55271 9.73713 5.81376C9.05655 6.04329 8.44893 6.44906 7.97613 6.98976C7.5213 7.5283 7.28098 8.21563 7.30113 8.92026C7.28613 9.47526 7.41513 10.0243 7.67613 10.5148Z" fill="#183C56"/>
</g>
<defs>
<clipPath id="clip0_535_42918">
<rect width="24" height="24" fill="white" transform="translate(0 -0.000244141)"/>
</clipPath>
</defs>
</svg>
