<svg width="18" height="19" viewBox="0 0 18 19" fill="none" xmlns="http://www.w3.org/2000/svg">
<path fill-rule="evenodd" clip-rule="evenodd" d="M12.2143 3.97025C12.2143 2.41695 10.7752 1.15775 9 1.15775C7.2248 1.15775 5.78571 2.41695 5.78571 3.97025V4.53275H12.2143V3.97025ZM13.5 3.97025V4.53275H18V15.7827C18 17.0254 16.8487 18.0327 15.4286 18.0327H2.57143C1.15127 18.0327 0 17.0254 0 15.7827V4.53275H4.5V3.97025C4.5 1.79563 6.51472 0.0327474 9 0.0327474C11.4853 0.0327474 13.5 1.79563 13.5 3.97025ZM9.63839 9.03247C9.63839 8.72181 9.35058 8.46997 8.99554 8.46997C8.6405 8.46997 8.35268 8.72181 8.35268 9.03247V10.72H6.42411C6.06907 10.72 5.78125 10.9718 5.78125 11.2825C5.78125 11.5931 6.06907 11.845 6.42411 11.845H8.35268V13.5325C8.35268 13.8431 8.6405 14.095 8.99554 14.095C9.35058 14.095 9.63839 13.8431 9.63839 13.5325V11.845H11.567C11.922 11.845 12.2098 11.5931 12.2098 11.2825C12.2098 10.9718 11.922 10.72 11.567 10.72H9.63839V9.03247Z" fill="white"/>
</svg>
