<svg width="12" height="16" viewBox="0 0 12 16" fill="none" xmlns="http://www.w3.org/2000/svg">
<path d="M10 0H2C1.46957 0 0.960859 0.210714 0.585786 0.585786C0.210714 0.960859 0 1.46957 0 2V14C0 14.5304 0.210714 15.0391 0.585786 15.4142C0.960859 15.7893 1.46957 16 2 16H10C10.5304 16 11.0391 15.7893 11.4142 15.4142C11.7893 15.0391 12 14.5304 12 14V2C12 1.46957 11.7893 0.960859 11.4142 0.585786C11.0391 0.210714 10.5304 0 10 0ZM3 4H9C9.13261 4 9.25979 4.05268 9.35355 4.14645C9.44732 4.24021 9.5 4.36739 9.5 4.5C9.5 4.63261 9.44732 4.75979 9.35355 4.85355C9.25979 4.94732 9.13261 5 9 5H3C2.86739 5 2.74021 4.94732 2.64645 4.85355C2.55268 4.75979 2.5 4.63261 2.5 4.5C2.5 4.36739 2.55268 4.24021 2.64645 4.14645C2.74021 4.05268 2.86739 4 3 4ZM2.5 6.5C2.5 6.36739 2.55268 6.24021 2.64645 6.14645C2.74021 6.05268 2.86739 6 3 6H9C9.13261 6 9.25979 6.05268 9.35355 6.14645C9.44732 6.24021 9.5 6.36739 9.5 6.5C9.5 6.63261 9.44732 6.75979 9.35355 6.85355C9.25979 6.94732 9.13261 7 9 7H3C2.86739 7 2.74021 6.94732 2.64645 6.85355C2.55268 6.75979 2.5 6.63261 2.5 6.5ZM3 8H9C9.13261 8 9.25979 8.05268 9.35355 8.14645C9.44732 8.24021 9.5 8.36739 9.5 8.5C9.5 8.63261 9.44732 8.75979 9.35355 8.85355C9.25979 8.94732 9.13261 9 9 9H3C2.86739 9 2.74021 8.94732 2.64645 8.85355C2.55268 8.75979 2.5 8.63261 2.5 8.5C2.5 8.36739 2.55268 8.24021 2.64645 8.14645C2.74021 8.05268 2.86739 8 3 8ZM3 10H6C6.13261 10 6.25979 10.0527 6.35355 10.1464C6.44732 10.2402 6.5 10.3674 6.5 10.5C6.5 10.6326 6.44732 10.7598 6.35355 10.8536C6.25979 10.9473 6.13261 11 6 11H3C2.86739 11 2.74021 10.9473 2.64645 10.8536C2.55268 10.7598 2.5 10.6326 2.5 10.5C2.5 10.3674 2.55268 10.2402 2.64645 10.1464C2.74021 10.0527 2.86739 10 3 10Z" fill="white"/>
</svg>
