<svg width="22" height="25" viewBox="0 0 22 25" fill="none" xmlns="http://www.w3.org/2000/svg">
<path d="M2.0625 1.625C1.16504 1.625 0.4375 2.35254 0.4375 3.25V4.875C0.4375 5.77246 1.16504 6.5 2.0625 6.5H2.875V21.125C2.875 22.9199 4.33007 24.375 6.125 24.375H15.875C17.6699 24.375 19.125 22.9199 19.125 21.125V6.5H19.9375C20.835 6.5 21.5625 5.77246 21.5625 4.875V3.25C21.5625 2.35254 20.835 1.625 19.9375 1.625H14.25C14.25 0.727537 13.5225 0 12.625 0H9.375C8.47754 0 7.75 0.727537 7.75 1.625H2.0625ZM6.9375 8.125C7.38623 8.125 7.75 8.48877 7.75 8.9375V20.3125C7.75 20.7612 7.38623 21.125 6.9375 21.125C6.48877 21.125 6.125 20.7612 6.125 20.3125L6.125 8.9375C6.125 8.48877 6.48877 8.125 6.9375 8.125ZM11 8.125C11.4487 8.125 11.8125 8.48877 11.8125 8.9375V20.3125C11.8125 20.7612 11.4487 21.125 11 21.125C10.5513 21.125 10.1875 20.7612 10.1875 20.3125V8.9375C10.1875 8.48877 10.5513 8.125 11 8.125ZM15.875 8.9375V20.3125C15.875 20.7612 15.5112 21.125 15.0625 21.125C14.6138 21.125 14.25 20.7612 14.25 20.3125V8.9375C14.25 8.48877 14.6138 8.125 15.0625 8.125C15.5112 8.125 15.875 8.48877 15.875 8.9375Z" fill="#183C56" fill-opacity="0.6"/>
</svg>
