<svg width="24" height="24" viewBox="0 0 24 24" fill="none" xmlns="http://www.w3.org/2000/svg">
<path d="M7.539 22.4998C16.596 22.4998 21.5505 14.9953 21.5505 8.49882C21.5505 8.28882 21.5505 8.07582 21.5415 7.86582C22.5061 7.16755 23.3386 6.30305 24 5.31282C23.099 5.7101 22.1441 5.97193 21.1665 6.08982C22.1963 5.47428 22.9676 4.50577 23.337 3.36432C22.3695 3.93751 21.3105 4.33988 20.2065 4.55382C19.4643 3.76335 18.4821 3.2397 17.4121 3.06396C16.3421 2.88821 15.2441 3.0702 14.288 3.58173C13.3319 4.09325 12.5712 4.90576 12.1237 5.89341C11.6761 6.88106 11.5668 7.98872 11.8125 9.04482C9.85461 8.94665 7.93922 8.43802 6.19056 7.55193C4.4419 6.66585 2.89903 5.42208 1.662 3.90132C1.03401 4.98594 0.842361 6.26892 1.12597 7.48972C1.40958 8.71052 2.14718 9.77761 3.189 10.4743C2.40831 10.4478 1.64478 10.2382 0.96 9.86232V9.92982C0.961346 11.066 1.35496 12.167 2.07431 13.0465C2.79366 13.926 3.79462 14.5301 4.908 14.7568C4.48539 14.8732 4.04884 14.9313 3.6105 14.9293C3.30148 14.9303 2.99307 14.9016 2.6895 14.8438C3.00418 15.8219 3.61691 16.6771 4.44187 17.2895C5.26683 17.902 6.2627 18.2411 7.29 18.2593C5.54483 19.63 3.3891 20.3734 1.17 20.3698C0.778981 20.3715 0.388235 20.3489 0 20.3023C2.25227 21.7382 4.86795 22.5006 7.539 22.4998Z" fill="#183C56"/>
</svg>
