<svg width="32" height="32" viewBox="0 0 32 32" fill="none" xmlns="http://www.w3.org/2000/svg">
<path fill-rule="evenodd" clip-rule="evenodd" d="M28 0H4C1.79086 0 0 2.0467 0 4.57143C0 7.09616 1.79086 9.14286 4 9.14286L4 27.4286C4 29.9533 5.79086 32 8 32H24C26.2091 32 28 29.9533 28 27.4286V9.14286C30.2091 9.14286 32 7.09616 32 4.57143C32 2.0467 30.2091 0 28 0ZM6 27.4286L6 4.57143H18V29.7143H8C6.89543 29.7143 6 28.6909 6 27.4286ZM22 4.57143L22 29.7143H24C25.1046 29.7143 26 28.6909 26 27.4286V4.57143H22Z" fill="#183C56"/>
</svg>
