<svg width="48" height="48" viewBox="0 0 48 48" fill="none" xmlns="http://www.w3.org/2000/svg">
<path d="M24 48C37.2548 48 48 37.2548 48 24C48 10.7452 37.2548 0 24 0C10.7452 0 0 10.7452 0 24C0 37.2548 10.7452 48 24 48Z" fill="#183C56"/>
<g clip-path="url(#clip0_201_80854)">
<path d="M24.4322 13C18.3738 13 13.4453 18.0567 13.4453 24.2726C13.4453 30.4884 18.3738 35.5451 24.4322 35.5451C30.4905 35.5451 35.4191 30.4884 35.4191 24.2726C35.4191 18.0567 30.4905 13 24.4322 13ZM24.4322 33.6663C22.1433 33.6663 20.053 32.7937 18.4462 31.3639C18.4535 31.3517 18.4636 31.3414 18.47 31.3292C19.9825 28.729 19.0312 27.1405 18.329 26.4247C18.144 26.2359 17.9325 26.0639 17.7146 25.8911C17.1451 25.4374 16.7679 25.1377 16.7679 24.2726C16.7679 23.8649 16.9895 23.7052 18.0836 23.3219C18.8362 23.0579 19.6886 22.7592 20.2389 22.0293C21.5161 20.3347 20.1116 17.7213 19.8168 17.2141C19.6657 16.9538 19.5018 16.7096 19.3315 16.4757C20.7076 15.5251 22.3502 14.9577 24.1154 14.8947C24.4011 15.3917 24.8726 15.8106 25.3359 16.2193C25.7314 16.5687 26.3595 16.7152 26.6827 17.1286C26.8676 17.3653 26.7779 17.8218 26.7843 18.1206C26.7971 18.7133 27.1469 19.5728 28.3261 19.5728C28.3783 19.5728 28.4323 19.571 28.4882 19.5672C28.9441 19.5343 30.3669 19.1999 31.7971 18.7152C32.9177 20.2746 33.5879 22.1928 33.5879 24.2726C33.5879 29.4523 29.4807 33.6663 24.4322 33.6663Z" fill="white"/>
<path d="M27.649 21.3633C26.2061 21.3633 24.7329 22.0669 23.984 23.1133C23.4814 23.816 23.3349 24.6286 23.5711 25.4017C24.0426 26.9441 24.0884 27.8535 23.7936 28.8727C23.5317 29.7782 23.5061 31.0915 25.0012 31.7171C25.2832 31.8355 25.5927 31.8956 25.9186 31.8956C27.0301 31.8956 28.3458 31.1901 29.5296 29.9586C30.9524 28.4791 31.7893 26.6661 31.7691 25.1067C31.7417 23.0081 29.9316 21.3633 27.649 21.3633Z" fill="white"/>
</g>
<defs>
<clipPath id="clip0_201_80854">
<rect width="21.9737" height="22.5451" fill="white" transform="translate(13.4453 13)"/>
</clipPath>
</defs>
</svg>
