<svg width="1944" height="202" viewBox="0 0 1944 202" fill="none" xmlns="http://www.w3.org/2000/svg">
<g filter="url(#filter0_d_601_93902)">
<path d="M12 165.42V8H1932V72.2211C1918.37 103.287 1881.82 131.079 1837.62 147.407C1767.31 173.376 1751.33 151.323 1648.4 115.296C1545.48 79.2697 1554.47 108.248 1476.72 147.407C1398.97 186.566 1396.72 147.407 1314.47 147.407C1232.22 147.407 1208.67 165.74 1140.09 165.42C1074.48 165.114 998.067 139.967 973.348 147.407C948.629 154.847 808.854 181.867 755.371 181.867C701.888 181.867 620.031 168.259 532.899 165.42C463.969 163.174 356.27 165.42 356.27 165.42C356.27 165.42 274.8 173.726 229.978 181.867C146.24 197.075 12 165.42 12 165.42Z" fill="#113752"/>
</g>
<defs>
<filter id="filter0_d_601_93902" x="0" y="0" width="1944" height="202" filterUnits="userSpaceOnUse" color-interpolation-filters="sRGB">
<feFlood flood-opacity="0" result="BackgroundImageFix"/>
<feColorMatrix in="SourceAlpha" type="matrix" values="0 0 0 0 0 0 0 0 0 0 0 0 0 0 0 0 0 0 127 0" result="hardAlpha"/>
<feOffset dy="4"/>
<feGaussianBlur stdDeviation="6"/>
<feComposite in2="hardAlpha" operator="out"/>
<feColorMatrix type="matrix" values="0 0 0 0 0 0 0 0 0 0 0 0 0 0 0 0 0 0 0.25 0"/>
<feBlend mode="normal" in2="BackgroundImageFix" result="effect1_dropShadow_601_93902"/>
<feBlend mode="normal" in="SourceGraphic" in2="effect1_dropShadow_601_93902" result="shape"/>
</filter>
</defs>
</svg>
