<svg width="48" height="48" viewBox="0 0 48 48" fill="none" xmlns="http://www.w3.org/2000/svg">
<path d="M24 48C37.2548 48 48 37.2548 48 24C48 10.7452 37.2548 0 24 0C10.7452 0 0 10.7452 0 24C0 37.2548 10.7452 48 24 48Z" fill="#183C56"/>
<g clip-path="url(#clip0_644_50234)">
<path d="M34.5039 28.0303H16.1924L17.5658 26.1515H30.8416C31.2362 26.1515 31.585 25.8932 31.7095 25.509L34.4563 17.0546C34.5506 16.7681 34.503 16.4534 34.3308 16.2082C34.1587 15.963 33.8822 15.8184 33.5883 15.8184H17.487L15.0086 13.2755C14.6506 12.9082 14.0719 12.9082 13.714 13.2755C13.356 13.6428 13.356 14.2365 13.714 14.6038L16.1924 17.1467V24.8984L13.6288 28.4061C13.4201 28.6907 13.3871 29.0711 13.5418 29.3896C13.6975 29.708 14.0143 29.9091 14.3613 29.9091H34.5039C35.0102 29.9091 35.4194 29.4882 35.4194 28.9697C35.4194 28.4511 35.0102 28.0303 34.5039 28.0303Z" fill="white"/>
<path d="M17.1046 35.5456C18.1159 35.5456 18.9357 34.7045 18.9357 33.6668C18.9357 32.6292 18.1159 31.7881 17.1046 31.7881C16.0933 31.7881 15.2734 32.6292 15.2734 33.6668C15.2734 34.7045 16.0933 35.5456 17.1046 35.5456Z" fill="white"/>
<path d="M31.7608 35.5456C32.7721 35.5456 33.592 34.7045 33.592 33.6668C33.592 32.6292 32.7721 31.7881 31.7608 31.7881C30.7495 31.7881 29.9297 32.6292 29.9297 33.6668C29.9297 34.7045 30.7495 35.5456 31.7608 35.5456Z" fill="white"/>
</g>
<defs>
<clipPath id="clip0_644_50234">
<rect width="21.9737" height="22.5451" fill="white" transform="translate(13.4453 13)"/>
</clipPath>
</defs>
</svg>
