<svg width="48" height="48" viewBox="0 0 48 48" fill="none" xmlns="http://www.w3.org/2000/svg">
<path d="M24 48C37.2548 48 48 37.2548 48 24C48 10.7452 37.2548 0 24 0C10.7452 0 0 10.7452 0 24C0 37.2548 10.7452 48 24 48Z" fill="#183C56"/>
<path fill-rule="evenodd" clip-rule="evenodd" d="M28.25 39.25C32.116 39.25 35.25 36.116 35.25 32.25C35.25 28.384 32.116 25.25 28.25 25.25C24.384 25.25 21.25 28.384 21.25 32.25C21.25 36.116 24.384 39.25 28.25 39.25ZM37 32.25C37 37.0825 33.0825 41 28.25 41C23.4175 41 19.5 37.0825 19.5 32.25C19.5 27.4175 23.4175 23.5 28.25 23.5C33.0825 23.5 37 27.4175 37 32.25Z" fill="white"/>
<path d="M25.5156 33.9027C25.5991 34.9456 26.4224 35.7586 27.9023 35.8548V36.625H28.5588V35.8495C30.0887 35.7425 30.9844 34.9242 30.9844 33.7369C30.9844 32.6565 30.3001 32.1002 29.0762 31.8114L28.5588 31.6884V29.5918C29.2152 29.6667 29.6325 30.0251 29.7326 30.5225H30.8842C30.8008 29.517 29.9385 28.7307 28.5588 28.6452V27.875H27.9023V28.6612C26.5949 28.7896 25.7048 29.5758 25.7048 30.6883C25.7048 31.6724 26.3668 32.2981 27.4684 32.5549L27.9023 32.6618V34.8868C27.2291 34.7851 26.7841 34.4161 26.6839 33.9027H25.5156ZM27.8967 31.5333C27.2514 31.3836 26.9009 31.0787 26.9009 30.6187C26.9009 30.1053 27.2792 29.7202 27.9023 29.6079V31.5333H27.8967ZM28.6533 32.8383C29.4378 33.0202 29.7994 33.3143 29.7994 33.8331C29.7994 34.4268 29.3488 34.8333 28.5588 34.9082V32.8169L28.6533 32.8383Z" fill="white"/>
<path d="M10.75 13C9.7835 13 9 13.7835 9 14.75V28.75C9 29.7165 9.7835 30.5 10.75 30.5H17.8952C17.9962 29.8977 18.1485 29.3129 18.3475 28.75H14.25C14.25 26.817 12.683 25.25 10.75 25.25V18.25C12.683 18.25 14.25 16.683 14.25 14.75H31.75C31.75 16.683 33.317 18.25 35.25 18.25V24.4236C35.9152 25.019 36.504 25.6979 37 26.4439V14.75C37 13.7835 36.2165 13 35.25 13H10.75Z" fill="white"/>
<path d="M26.497 21.8957C26.499 21.8474 26.5 21.7988 26.5 21.75C26.5 19.817 24.933 18.25 23 18.25C21.067 18.25 19.5 19.817 19.5 21.75C19.5 22.9479 20.1018 24.0052 21.0195 24.6362C22.501 23.2288 24.3928 22.2493 26.497 21.8957Z" fill="white"/>
</svg>
